<svg width="360" height="485" viewBox="0 0 360 485" fill="none" xmlns="http://www.w3.org/2000/svg">
<path d="M357.933 392.682C356.984 389.777 356.202 386.761 355.029 383.968C353.744 380.952 352.18 378.047 350.616 375.142C343.354 361.737 334.25 349.951 320.844 342.131C313.527 337.885 305.818 334.59 297.719 332.076C293.194 330.68 288.614 329.451 284.146 327.943C279.509 326.323 274.929 324.48 270.349 322.581C268.561 321.854 267.221 320.626 267.723 318C269.399 316.66 271.298 315.096 272.751 313.867C275.208 313.308 277.275 313.029 279.23 312.415C285.151 310.683 289.843 307.22 293.362 302.081C299.115 293.758 305.707 286.161 313.75 279.905C316.096 278.118 317.716 275.716 318.386 272.812C320.509 263.707 324.195 255.272 328.887 247.229C329.725 245.777 330.284 244.38 329.893 242.593C329.223 239.632 330.284 236.951 331.736 234.382C334.082 230.248 336.987 226.506 340.282 223.098C342.126 221.199 344.025 219.244 345.533 217.066C348.102 213.323 346.65 210.307 342.126 209.637C339.277 209.19 336.372 209.246 333.635 210.419C332.351 210.977 331.066 211.48 329.893 211.927C326.653 206.844 324.866 206.341 320.229 208.855C319.224 209.413 318.274 210.195 317.213 210.922C316.71 210.028 316.319 209.581 316.096 209.022C315.426 207.403 314.141 206.9 312.633 207.402C311.516 207.793 310.287 208.408 309.617 209.246C306.656 212.988 304.31 217.01 303.528 221.87C302.634 227.232 302.634 232.538 303.416 237.845C303.807 240.414 303.305 242.649 301.796 244.827C299.897 247.508 298.166 250.301 296.434 253.094C294.87 255.608 292.915 257.674 290.29 258.959C282.749 262.701 275.152 266.332 267.556 269.963C266.383 270.521 264.931 271.024 263.702 269.684C268.785 263.763 269.12 262.813 269.176 254.602C269.176 253.597 269.176 252.535 269.176 251.53C269.176 246.67 270.628 242.202 272.639 237.901C273.197 236.672 274.259 235.275 275.376 234.773C278.671 233.376 279.286 230.807 279.118 227.735C279.062 226.506 278.951 225.277 278.895 223.992C283.531 220.306 284.983 215.334 284.983 209.748C284.983 208.129 285.151 206.453 285.095 204.833C284.928 200.644 286.715 197.795 290.625 196.119C292.692 195.226 294.758 194.276 296.713 193.159C301.126 190.645 302.523 187.07 300.959 182.211C300.456 180.647 299.674 179.194 298.724 177.854C297.44 176.011 295.987 174.279 294.423 172.603C289.173 166.794 284.648 160.426 280.403 153.835C277.107 148.752 275.432 143.501 277.889 137.581C278.336 136.463 278.616 135.235 278.895 134.006C280.291 127.582 281.744 121.158 281.576 114.511C281.409 107.027 279.9 99.821 278.001 92.6712C276.772 88.0909 275.041 83.6781 272.639 79.6005C270.572 76.0815 268.505 72.5625 266.383 68.8759C267.053 67.5912 267.556 66.2506 268.338 65.0776C271.354 60.8325 271.131 56.1404 270.014 51.4484C268.896 46.8122 266.662 42.6229 263.534 38.9363C256.328 30.6135 247.95 24.3017 236.555 23.1845C236.332 23.1845 236.164 23.1286 235.941 23.0728C226.333 21.5088 217.117 18.7159 208.459 14.2473C206.448 13.186 204.325 12.3481 202.314 11.3427C186.06 3.41091 168.632 0.673957 150.87 0.0595252C133.33 -0.554907 116.629 3.63441 100.542 10.449C92.7219 13.7446 85.628 18.2132 78.981 23.5196C64.6256 35.0821 53.9568 49.6051 45.8016 65.9714C38.7636 80.0474 34.1274 94.9055 32.6751 110.657C30.9436 129.37 34.7419 147.076 42.2268 164.113C45.5782 171.71 49.7675 178.748 55.5767 184.724C57.6434 186.847 58.4254 189.137 57.6434 191.986C57.4759 192.6 57.42 193.215 57.2524 193.773C54.292 205.727 51.7225 217.848 48.3152 229.69C45.8017 238.348 42.6178 246.838 37.9257 254.714C26.475 273.929 12.2872 290.965 -4.13493 306.103C-11.8433 313.197 -19.6633 320.179 -27.4275 327.217C-28.9356 328.613 -30.4438 330.065 -31.7285 331.629C-33.5718 333.92 -35.6385 335.707 -38.3197 337.104C-45.6929 340.902 -51.1111 346.711 -55.0211 353.917C-58.7635 360.787 -62.0033 367.881 -64.3493 375.366C-69.4323 391.565 -71.6666 408.266 -72.3928 425.135C-72.8955 435.804 -72.6721 446.528 -73.1189 457.197C-74.2361 483.115 -75.6325 508.977 -76.6938 534.839C-77.2524 549.027 -77.1965 563.215 -75.2415 577.347C-74.4595 583.044 -73.3423 588.686 -72.8955 594.439C-72.3928 600.807 -72.1135 619.407 -71.8342 633.372H-68.762C-69.153 613.933 -69.935 586.619 -72.5045 574.386C-73.5658 569.191 -73.5658 563.773 -73.7892 558.411C-74.5153 539.475 -73.2306 520.595 -72.281 501.66C-71.4432 484.4 -70.6612 467.14 -70.1026 449.88C-69.4882 432.62 -69.4882 415.304 -66.5836 398.212C-64.2376 384.582 -60.4951 371.4 -54.3508 358.888C-49.3236 348.61 -41.8387 341.293 -31.3375 336.768C-23.5733 333.417 -15.7533 330.401 -7.65395 327.999C-1.95649 326.323 3.90855 325.318 9.43844 323.027C17.5936 319.62 25.9723 316.716 34.0157 313.141C42.0592 309.566 50.4937 306.941 57.9786 302.137C58.3137 301.913 58.7606 301.802 59.1516 301.802C61.6652 302.137 62.894 300.405 64.067 298.729C66.1338 295.937 68.0329 292.976 70.2114 290.239C78.3107 279.905 88.0858 272.141 101.324 269.404C104.564 268.734 107.748 268.064 110.931 267.282C115.512 266.165 120.204 265.271 124.617 263.595C133.386 260.299 141.374 255.775 146.904 247.787C147.183 247.396 147.797 247.285 148.524 246.95C149.641 258.065 150.646 268.902 151.819 279.682C154.277 301.746 155.226 306.549 158.299 312.135C158.243 310.404 158.299 309.454 158.131 308.56C157.796 306.549 157.237 304.539 156.902 302.528C155.338 291.356 153.551 280.185 152.322 268.902C151.428 261.137 151.205 253.317 150.758 245.497C150.59 243.04 150.925 240.694 152.154 238.348C156.176 230.639 158.466 222.316 159.863 213.714C160.086 212.206 160.03 210.531 161.315 209.022C162.32 209.972 163.158 211.201 164.834 210.028C165.002 206.9 163.661 204.386 160.868 202.599C160.98 192.544 160.198 182.658 161.929 172.883C163.27 165.174 164.778 157.522 166.566 149.925C168.074 143.334 169.805 136.743 171.872 130.319C175.112 120.209 181.2 112.165 189.97 106.021C197.12 101.05 204.66 96.9164 212.648 93.6766C223.484 89.2639 234.432 85.0746 245.325 80.8294C250.91 78.6509 256.328 76.2491 261.132 72.6183C261.914 72.0598 262.808 71.7246 263.925 71.1661C268.282 76.8077 271.633 82.7286 273.812 89.1522C278.783 103.396 280.403 117.975 276.102 132.777C275.655 134.341 275.432 136.017 274.817 137.525C272.527 143.222 273.812 148.417 276.828 153.388C277.666 154.785 278.504 156.181 279.398 157.578C283.531 163.945 288.223 169.922 293.306 175.675C295.149 177.798 296.825 180.256 297.998 182.825C299.506 186.065 298.613 188.299 295.54 190.087C293.585 191.26 291.575 192.265 289.452 193.103C284.425 195.114 282.246 198.912 281.967 204.107C281.911 205.336 281.967 206.565 281.855 207.794C281.744 208.967 281.576 210.14 281.409 211.201C274.985 211.871 275.599 210.866 270.405 216.228C268.952 217.68 267.332 218.965 265.824 220.361C264.819 221.311 263.981 222.484 263.255 223.322C263.59 225.891 264.484 227.623 266.104 229.075C267.723 230.583 269.958 231.533 270.684 233.767C266.997 243.877 266.159 244.436 265.88 257.227C265.88 258.233 265.824 259.294 265.657 260.299C265.042 264.154 262.585 266.667 258.73 267.058C256.719 267.282 254.597 267.058 252.586 266.723C238.566 264.545 225.719 259.071 213.542 252.144C201.365 245.162 190.473 236.393 180.921 226.003C180.362 225.389 179.748 224.83 179.022 224.495C178.575 224.327 177.905 224.551 177.402 224.83C177.178 224.942 177.011 225.668 177.178 225.891C177.681 226.785 178.184 227.735 178.91 228.405C182.597 231.812 184.943 236.169 187.121 240.638C191.981 250.413 197.678 259.741 203.767 268.734C204.66 270.075 205.498 271.471 206.392 272.867C200.415 278.788 198.795 285.994 198.739 293.87C198.739 302.248 200.639 310.18 203.32 318C204.269 320.793 204.772 323.53 204.995 326.379C205.666 336.657 206.336 346.879 207.062 357.156C208.068 371.121 209.241 385.029 210.023 398.994C210.749 411.338 211.028 423.627 211.531 435.971C212.257 453.231 212.089 470.547 211.698 487.807C211.196 507.972 210.693 528.136 211.587 548.301C211.587 549.25 211.419 550.2 211.307 551.205C207.006 550.591 205.777 550.088 202.817 547.63C198.907 544.446 196.058 540.481 193.88 535.956C193.489 535.174 193.154 534.001 191.59 534.783C192.707 537.967 194.159 540.927 196.282 543.385C198.46 545.843 200.75 548.301 203.376 550.2C206.001 552.043 209.073 553.216 211.754 554.557C212.592 560.98 213.262 567.125 214.156 573.213C215.553 583.1 219.407 592.149 223.54 601.142C227.674 610.191 234.321 616.558 243.425 620.357C248.173 622.368 253.089 623.82 258.284 624.323C262.138 624.714 265.992 624.993 269.902 625.384C270.851 627.897 270.181 630.467 270.405 633.26H273.086C273.588 630.076 272.751 626.78 274.706 624.323C275.599 623.988 276.549 623.597 277.554 623.261C286.938 619.687 294.479 613.877 298.892 604.717C301.126 600.136 303.081 595.277 304.534 590.417C312.13 564.611 319.503 538.693 327.044 512.831C329.278 505.123 331.624 497.47 334.138 489.874C344.081 459.822 354.079 429.827 360 399.161C359.274 396.703 358.659 394.581 357.989 392.458L357.933 392.682ZM328.887 218.965C328.999 218.295 329.223 217.569 329.558 217.01C329.558 216.954 329.669 216.842 329.725 216.787C331.68 214.217 335.367 212.653 338.942 212.597C339.556 212.597 340.115 212.597 340.729 212.709C341.288 212.765 341.902 212.932 342.405 213.1C342.405 213.1 342.405 213.1 342.461 213.1C342.684 213.212 342.852 213.435 343.075 213.714C343.131 213.826 343.243 213.938 343.354 214.05C342.74 216.284 341.176 217.96 339.612 219.524C338.662 220.473 337.657 221.423 336.763 222.428C335.758 223.601 334.808 224.83 333.803 226.003C332.462 227.623 331.178 229.187 329.837 230.807C329.39 229.466 329.111 228.237 328.887 226.953C328.441 224.216 328.496 221.59 328.887 218.965ZM245.883 30.3901C247.894 30.3901 249.681 30.7812 251.357 31.8424C251.804 32.1217 252.251 32.4568 252.698 32.8478C255.1 35.0263 257.613 37.0372 260.183 40.0535C259.959 40.0535 259.736 40.1652 259.512 40.1652C259.065 40.2769 258.674 40.3327 258.339 40.4445C258.172 40.4445 258.004 40.5003 257.837 40.5562C257.501 40.6121 257.166 40.6679 256.887 40.7238C256.608 40.7238 256.328 40.8355 255.993 40.8355C254.541 40.9472 253.145 41.1147 251.692 41.2265C250.966 41.2823 250.24 41.3382 249.514 41.3382C248.788 41.3382 248.062 41.3382 247.391 41.3382C238.733 41.0031 230.131 40.3327 221.529 39.9976C213.374 39.7183 205.163 39.3273 197.008 39.2714C194.271 39.2714 191.59 39.2714 188.853 39.3832C183.602 39.5507 178.351 39.9417 173.157 40.612C169.694 41.0589 166.23 41.6175 162.823 42.2878C157.684 43.2932 152.601 44.5779 147.574 46.086C122.047 53.8502 102.609 69.4903 88.7002 92.1126C87.583 93.9001 86.5217 95.7434 85.5163 97.6425C83.5054 101.385 81.718 105.183 80.0423 109.037C79.2044 110.992 78.4783 112.947 77.7521 114.902C77.3611 116.02 76.9143 117.137 76.5233 118.31C75.9088 120.153 75.2944 121.941 74.7358 123.784C73.6187 127.47 72.6133 131.213 71.7195 134.955C70.0438 141.993 68.5915 149.087 67.0275 156.181C66.5248 158.527 66.022 160.873 65.4635 163.275C65.0166 165.286 64.4581 167.241 63.7878 169.419C63.3968 170.76 63.0058 172.156 62.5589 173.72C61.6652 171.933 60.9949 171.039 60.7715 170.034C59.4867 163.722 58.3696 157.466 57.4759 151.098C57.1966 148.976 56.9173 146.853 56.6939 144.786C55.9677 138.419 55.5767 132.051 55.5209 125.627C55.5209 123.505 55.5208 121.326 55.5767 119.204C55.9118 108.311 57.3642 97.6425 60.1012 87.2531C61.7769 81.0529 63.8995 74.9085 66.5248 68.8759C73.3394 53.2358 83.6172 40.4445 97.6374 30.6136C107.357 23.8548 118.137 20.0006 129.7 18.4366C130.482 18.3249 131.264 18.2132 132.046 18.1573C137.966 17.5429 143.943 17.096 149.92 16.9843C152.88 16.9843 155.897 16.9843 158.857 17.1519C161.818 17.3195 164.834 17.5987 167.794 17.9897C169.247 18.2132 170.755 18.4366 172.207 18.6601C175.112 19.1628 178.072 19.7213 180.977 20.3357C182.429 20.6709 183.881 20.9502 185.334 21.2854C195.332 23.5197 205.331 26.0332 215.329 28.3234C222.591 29.9991 229.964 30.7811 237.337 30.6694C238.566 30.6694 239.795 30.6135 241.024 30.5577C242.252 30.5018 243.481 30.3902 244.71 30.2784C245.101 30.2784 245.492 30.2784 245.827 30.2225L245.883 30.3901ZM57.811 182.378C54.683 179.865 52.6721 176.793 50.7171 173.665C47.5332 168.693 44.9638 163.443 42.8412 158.024C42.5619 157.242 42.2268 156.46 41.9475 155.678C40.6069 151.936 39.4339 148.082 38.4285 144.172C34.5743 128.923 34.4067 113.841 37.423 98.9272C37.9257 96.4137 38.5402 93.9559 39.2105 91.4982C39.8808 89.0405 40.6628 86.5269 41.5006 84.0691C42.6736 80.6618 43.9584 77.2545 45.4106 73.9589C46.1368 72.2832 46.8629 70.6633 47.645 69.0435C50.773 62.564 54.3479 56.3638 58.4254 50.4429C59.4309 48.9348 60.4922 47.4825 61.5535 46.0302C62.4472 44.8013 63.3968 43.6283 64.3463 42.4553C66.2455 40.1093 68.2005 37.875 70.2114 35.7524C74.2331 31.5073 78.59 27.6531 83.1703 24.1899C92.3868 17.3194 102.72 12.0689 114.227 8.49397C115.679 8.04711 117.132 7.60028 118.584 7.20928C119.645 6.92999 120.762 6.65065 121.824 6.37136C124.002 5.86864 126.181 5.42184 128.359 5.03084C130.537 4.63983 132.716 4.30465 134.894 4.02536C139.251 3.46678 143.608 3.18753 148.021 3.18753C155.673 3.13167 163.382 3.74608 171.09 5.08666C172.542 5.31009 173.995 5.58938 175.447 5.86867C179.748 6.70653 184.049 7.76786 188.182 9.05258C192.316 10.3373 196.449 11.8454 200.471 13.7446C201.812 14.359 203.152 15.0293 204.437 15.6996C205.275 16.1465 206.113 16.5375 206.95 16.8726C207.565 17.1519 208.235 17.4312 208.85 17.7663C209.073 17.878 209.241 17.9339 209.464 18.0456C211.307 18.9952 213.207 19.833 215.106 20.615C217.005 21.397 218.96 22.0674 220.915 22.6818C222.87 23.2963 224.825 23.8548 226.836 24.3017C227.841 24.5251 228.847 24.7485 229.852 24.9719C230.857 25.1953 231.863 25.3629 232.868 25.5305C234.712 25.8657 236.611 26.2008 238.398 26.6477C239.46 26.9269 240.577 27.2062 241.582 27.5414C241.582 27.9324 241.582 28.2117 241.47 28.4351C241.303 28.7703 241.079 28.882 240.8 28.9378C240.521 28.9937 240.186 28.9378 239.962 28.9937C239.124 28.9937 238.287 29.1054 237.505 29.1054C236.667 29.1054 235.885 29.1054 235.047 29.1054C234.209 29.1054 233.427 29.0495 232.589 28.9937C228.511 28.7702 224.434 28.1559 220.356 27.4856C216.223 26.8153 212.145 26.0332 208.068 25.1395C201.309 23.6313 194.606 21.8998 187.903 20.0565C184.607 19.1069 181.312 18.3808 177.96 17.7105C171.984 16.5375 165.895 15.8113 159.751 15.5879C158.41 15.5879 157.014 15.532 155.617 15.532C145.005 15.532 134.392 15.6438 123.946 17.7105C123.276 17.8222 122.55 17.9898 121.88 18.1015C113.333 20.0006 105.457 23.3521 98.196 28.1558C94.2859 30.7253 90.7111 33.5181 87.3596 36.5903C85.6839 38.0984 84.064 39.6624 82.5559 41.2823C81.6063 42.2877 80.6567 43.3491 79.763 44.4104C78.199 46.2537 76.635 48.1528 75.2385 50.1637C70.9375 56.0846 67.3068 62.564 64.3463 69.6021C61.33 76.7518 58.984 84.0692 57.3642 91.4424C55.9677 97.5867 55.074 103.843 54.5154 110.155C53.9568 116.466 53.8451 122.834 53.9568 129.314C54.1803 139.089 55.2974 148.696 56.8615 158.304C57.3642 161.488 57.9786 164.671 58.593 167.855C58.8164 168.973 59.0399 170.09 59.2633 171.263C59.5984 172.938 59.8777 174.67 60.2129 176.346C60.6039 178.524 60.2129 180.423 57.8669 182.378H57.811ZM7.651 319.899C6.81314 320.514 5.80769 320.961 4.80226 321.352C4.46712 321.463 4.13199 321.631 3.79684 321.743C-4.0232 324.089 -11.8433 326.546 -19.6633 328.948C-21.2273 329.451 -22.7913 329.898 -24.3553 330.401H-24.467C-24.5788 330.401 -24.7463 330.345 -24.9698 330.233C-25.0815 330.233 -25.2491 330.177 -25.4166 330.121C-24.8022 329.339 -24.3553 328.557 -23.7409 327.999C-19.8867 324.48 -15.9767 320.961 -12.1226 317.498C-8.21252 313.979 -4.35836 310.46 -0.560051 306.885C12.1755 294.875 23.6262 281.805 33.4571 267.282C34.0157 266.5 34.6302 265.718 35.4122 264.712C35.5797 264.489 35.7473 264.321 35.9149 264.098C36.25 263.651 36.641 263.148 37.0879 262.59C36.9762 263.93 36.9203 264.936 36.8645 265.829C36.8645 266.276 36.8086 266.667 36.7527 267.002C36.7527 267.338 36.641 267.673 36.5852 268.008C36.4176 268.79 36.1942 269.628 36.0266 270.41C34.7977 275.158 33.3454 279.905 31.3904 284.374C31.0553 285.1 30.7201 285.882 30.385 286.608C27.0894 293.479 23.4028 300.07 19.1018 306.27C16.5323 310.013 13.7395 313.588 10.7232 317.051C9.77358 318.168 8.7123 319.117 7.53928 319.899H7.651ZM125.063 259.126C124.393 259.797 123.723 260.467 122.997 260.97C122.271 261.472 121.433 261.863 120.539 262.031C116.182 262.981 111.881 263.818 107.524 264.712C106.463 264.936 105.346 265.159 104.284 265.383C104.005 265.383 103.614 265.047 103 264.712C103.279 264.209 103.502 263.651 103.782 263.148C103.893 262.981 103.949 262.813 104.061 262.646C106.798 257.898 108.865 252.926 110.485 247.787C110.931 246.335 111.378 244.883 111.769 243.375C113.166 238.18 114.115 232.874 114.953 227.511C115.232 225.556 115.456 223.545 115.679 221.59C116.964 207.738 115.847 193.941 114.45 180.144C114.059 176.29 113.724 172.492 113.445 168.637C113.277 166.347 113.054 164.001 112.886 161.711C112.886 161.208 113.166 160.65 113.333 160.035C118.193 163.387 122.606 168.414 124.114 173.05C124.672 174.838 125.343 176.569 126.125 178.245C126.516 179.083 126.907 179.921 127.354 180.703C129.476 184.724 132.213 188.411 135.62 191.595C135.788 192.768 136.011 193.829 136.179 194.89C136.738 198.074 137.184 200.979 137.631 203.883C138.078 206.565 138.413 209.19 138.581 211.871C139.251 219.859 138.86 227.846 136.961 235.722C136.682 236.784 136.402 237.901 136.123 238.962C134.615 244.268 132.492 249.351 129.364 253.876C128.136 255.719 126.683 257.451 125.119 259.071L125.063 259.126ZM151.819 127.079C152.266 133.559 155.171 177.184 155.506 190.087C152.992 191.148 150.311 191.707 147.742 191.707C144.39 191.707 141.095 190.813 138.302 189.193C136.458 188.132 134.838 186.679 133.554 185.004C131.04 181.708 128.973 178.133 127.8 174.167C126.404 169.531 123.835 165.733 120.483 162.214C118.249 159.868 116.126 157.242 114.45 154.505C114.115 154.003 113.836 153.5 113.557 152.941C112.44 150.875 111.658 148.808 111.155 146.685C111.043 146.183 110.931 145.624 110.82 145.121C110.54 143.557 110.485 141.937 110.54 140.373C110.596 138.809 110.82 137.19 111.211 135.626C111.322 135.067 111.49 134.564 111.658 134.006C111.993 132.944 112.384 131.883 112.831 130.822C113.054 130.319 113.277 129.761 113.557 129.258C113.836 128.643 114.171 128.085 114.506 127.526C117.132 123.169 120.93 120.153 125.343 118.757C126.46 118.422 127.577 118.142 128.75 118.03C129.309 117.975 129.923 117.919 130.537 117.919C132.325 117.919 134.168 118.031 136.067 118.477C136.682 118.645 137.296 118.812 137.967 118.98C142.156 120.321 146.178 121.996 149.473 124.733C150.143 125.292 150.758 125.851 151.372 126.521C151.54 126.688 151.707 126.912 151.875 127.135L151.819 127.079ZM157.74 203.492C157.293 213.77 155.171 223.713 151.205 233.209C150.925 233.823 150.702 234.438 150.423 234.996C148.468 239.185 145.898 243.151 143.441 247.061C140.927 251.083 137.24 253.988 132.66 255.663C134.894 250.413 137.296 245.386 138.916 240.079C139.139 239.297 139.363 238.571 139.531 237.789C140.313 234.773 140.871 231.7 141.262 228.684C141.541 226.394 141.765 224.104 141.821 221.814C142.1 214.943 141.486 208.073 140.201 201.202C140.145 200.755 140.033 200.309 139.922 199.862C139.922 199.694 139.866 199.527 139.81 199.359C139.586 198.186 139.419 196.957 140.033 195.617C140.759 195.896 141.43 196.175 142.156 196.343C143.552 196.734 144.949 197.013 146.401 197.069C147.127 197.069 147.797 197.125 148.524 197.125C151.372 197.125 154.277 196.622 157.237 195.952C157.405 196.79 157.684 197.572 157.796 198.242C157.796 198.465 157.852 198.689 157.852 198.912C157.852 200.364 157.852 201.873 157.74 203.325V203.492ZM178.463 111.998C178.463 111.998 178.296 112.445 178.128 112.612C177.905 112.892 177.625 113.171 177.458 113.394C175.447 115.908 173.715 118.533 172.263 121.326C171.76 122.276 171.313 123.169 170.867 124.119C169.135 127.917 167.794 131.883 166.677 136.017C163.382 147.97 160.868 160.091 158.801 172.268C157.852 155.623 156.455 134.397 156.008 127.917C156.008 127.694 156.008 127.47 156.008 127.247C156.232 126.13 156.567 125.124 157.07 124.175C157.963 122.499 159.192 121.047 160.533 119.594C161.538 118.533 162.488 117.584 163.493 116.69C164.164 116.131 164.778 115.629 165.448 115.126C167.068 113.953 168.744 113.059 170.587 112.389C170.978 112.277 171.313 112.11 171.704 111.998C173.604 111.383 175.726 110.992 178.184 110.769C178.519 111.216 178.519 111.551 178.463 111.886V111.998ZM189.802 101.944C189.802 101.944 189.467 102.223 189.244 102.335C188.35 102.781 187.456 103.172 186.562 103.619C184.496 104.569 182.429 105.518 180.306 106.412C178.631 107.082 176.787 107.641 175 107.976C169.638 109.037 165.169 111.328 161.315 114.567C159.807 115.852 158.354 117.36 157.07 118.98C156.399 119.762 155.785 120.656 155.171 121.494C155.171 121.549 155.059 121.605 155.003 121.717C154.835 121.996 154.668 122.276 154.444 122.499C154.165 122.834 153.886 123.113 153.495 123.504C150.367 121.661 147.351 119.65 144.055 118.086C143.273 117.695 142.491 117.36 141.709 117.081C140.089 116.466 138.413 115.908 136.682 115.293C135.844 115.014 134.95 114.679 134.056 114.344C134.168 114.065 134.336 113.841 134.503 113.618C135.341 112.501 136.402 111.942 137.52 111.439C137.966 111.272 138.413 111.104 138.86 110.937C144.614 108.702 150.311 106.412 156.288 104.792C158.243 104.29 160.254 103.843 162.32 103.452C163.996 103.172 165.672 102.893 167.348 102.67C170.699 102.223 174.05 101.776 177.458 101.385C179.133 101.162 180.809 100.994 182.485 100.771C184.943 100.435 187.456 100.212 190.528 99.8768C190.975 99.8768 191.422 99.7651 191.869 99.7092C190.975 100.659 190.473 101.441 189.914 101.888L189.802 101.944ZM257.055 71.8363C256.552 72.1156 256.105 72.3949 255.602 72.6183C252.474 74.2382 249.29 75.8581 246.051 77.2545C244.989 77.7014 243.872 78.1483 242.755 78.5393C238.119 80.1592 233.483 81.9466 228.902 83.734C221.25 86.8062 213.709 90.0459 206.168 93.2857C201.7 95.1848 197.008 95.9668 192.26 96.5253C190.696 96.7488 189.132 96.9163 187.512 97.1398C180.586 98.0893 173.604 98.7038 166.677 99.5417C164.778 99.7651 162.935 100.1 161.091 100.491C159.248 100.882 157.405 101.273 155.617 101.776C153.216 102.446 150.814 103.228 148.412 104.01C144.837 105.239 141.318 106.58 137.799 107.92C137.24 108.144 136.626 108.367 136.123 108.646C133.386 110.434 130.593 112.11 127.745 113.729C126.348 114.567 124.896 115.349 123.499 116.131C122.047 116.913 120.651 117.695 119.198 118.477C110.429 123.281 105.904 135.346 107.859 145.903C107.915 146.35 108.027 146.797 108.139 147.244C108.25 147.914 108.474 148.585 108.641 149.255C108.865 149.925 109.088 150.595 109.367 151.154C109.758 151.88 110.038 152.606 110.261 153.332C110.373 153.723 110.485 154.059 110.54 154.45C110.931 156.293 110.987 158.192 111.099 160.147C111.099 161.097 111.211 162.046 111.267 162.996C111.546 167.744 111.881 172.492 112.272 177.239C112.44 179.139 112.551 181.038 112.719 182.937C113.11 188.467 113.724 193.997 114.115 199.527C114.227 201.37 114.339 203.213 114.395 205.056C114.395 206.062 114.395 207.011 114.395 208.017C114.395 209.022 114.395 209.972 114.395 210.977C114.171 224.662 112.049 238.124 107.301 251.139C106.239 253.988 104.843 256.78 103.447 259.517C103 260.411 102.497 261.361 102.05 262.255C100.654 265.159 98.4753 267.17 95.2355 268.008C94.9562 268.064 94.7328 268.175 94.4535 268.231C93.7274 268.455 93.0571 268.734 92.3309 269.013C91.7724 269.237 91.2138 269.46 90.5993 269.684C89.5939 270.019 88.6443 270.41 87.7506 270.857C85.9073 271.75 84.1199 272.812 82.5 273.985C81.6622 274.599 80.8801 275.213 80.0423 275.884C73.0042 281.805 66.0779 287.893 60.2687 295.155C59.4309 296.216 58.4254 297.11 57.3083 297.947C56.1911 298.785 54.9623 299.623 53.6217 300.461C53.1748 300.74 52.728 301.076 52.337 301.355C51.8901 301.69 51.4433 301.969 50.9964 302.304C51.0522 301.243 50.9964 300.684 51.1081 300.349C51.1081 300.293 51.1081 300.238 51.164 300.182C51.946 299.232 52.6163 298.283 53.3424 297.333C54.0127 296.383 54.683 295.378 55.2974 294.373C59.0399 288.34 61.721 281.805 64.1788 275.158C66.4131 268.957 68.3122 262.646 69.9321 256.278C70.3231 254.714 70.7141 253.094 71.1051 251.474C72.2222 246.67 73.2277 241.867 74.1214 237.007C76.4674 224.886 78.0314 212.597 79.4837 200.364C79.8189 197.516 80.154 194.723 80.4892 191.874C81.3829 184.557 82.1649 177.184 83.282 169.866C83.5613 168.023 83.8406 166.236 84.1758 164.392C84.7902 160.761 85.5163 157.131 86.41 153.5C86.8569 151.713 87.3038 149.925 87.8065 148.138C90.5993 138.027 94.3977 128.532 99.3131 119.65C101.771 115.238 104.508 110.937 107.58 106.803C110.652 102.67 114.004 98.7596 117.69 94.9613C120.595 92.0009 123.667 89.2639 126.851 86.8062C130.035 84.3484 133.386 82.1142 136.849 80.1033C138.581 79.0979 140.368 78.1483 142.156 77.1987C145.731 75.3554 149.417 73.6797 153.216 72.1715C155.115 71.3895 157.014 70.6633 158.969 69.993C159.918 69.6579 160.868 69.3228 161.873 68.9876C168.632 66.7533 175.447 65.301 182.317 64.4632C183.434 64.3515 184.552 64.1839 185.669 64.0721C187.903 63.8487 190.193 63.737 192.428 63.6253C193.545 63.6253 194.718 63.5695 195.835 63.5136C198.125 63.5136 200.415 63.5136 202.705 63.6253C203.822 63.6253 204.995 63.7371 206.113 63.7929C208.403 63.9046 210.693 64.128 212.983 64.3514C215.944 64.6307 218.904 64.9659 221.809 65.301C223.764 65.5244 225.774 65.7479 227.729 65.9155C236.611 66.865 245.66 67.5912 255.044 67.5354C257.111 67.5354 259.233 67.4795 261.356 67.3678C259.959 69.6021 258.451 70.8309 256.999 71.6688L257.055 71.8363ZM262.808 65.3569C262.249 65.5245 261.635 65.6921 260.909 65.6921C256.999 65.8596 253.089 66.2506 249.235 65.9714C246.553 65.7479 243.928 65.5803 241.247 65.301C235.047 64.7424 228.847 64.1839 222.646 63.5694C220.859 63.4019 219.127 63.2343 217.34 63.0667C214.38 62.7875 211.419 62.5081 208.403 62.3406C205.442 62.1171 202.426 62.0054 199.466 61.8937C197.957 61.8937 196.505 61.8937 194.997 61.8937C190.528 61.8937 186.06 62.173 181.591 62.7874C180.083 63.0109 178.575 63.2343 177.067 63.4577C175.559 63.737 174.106 64.0163 172.598 64.3514C166.677 65.6362 160.924 67.4237 155.226 69.5462C152.378 70.6075 149.585 71.7805 146.792 73.0094C126.683 81.9466 111.769 95.7992 100.877 113.394C99.9834 114.847 99.0897 116.355 98.2518 117.863C95.6824 122.443 93.3922 127.191 91.2697 132.162C88.0858 139.815 85.6839 147.635 83.9523 155.678C83.6172 157.298 83.282 158.918 83.0027 160.482C82.3883 163.722 81.8856 166.962 81.4946 170.257C80.9919 174.335 80.4333 178.412 79.9306 182.49C79.4279 186.568 78.9251 190.645 78.4224 194.723C77.417 202.878 76.4115 211.033 75.2385 219.188C74.6241 223.713 73.898 228.237 73.116 232.762C72.725 234.996 72.334 237.286 71.8871 239.521C70.6024 246.223 69.0384 252.926 67.2509 259.517C66.022 263.93 64.6815 268.287 63.1733 272.644C61.9445 276.107 60.548 279.57 59.2074 282.978C56.1353 290.854 51.4991 297.556 45.4106 303.254C44.5728 304.092 43.6791 304.874 42.7295 305.656C42.3385 305.991 41.9475 306.27 41.5006 306.549C41.0538 306.829 40.6069 307.052 40.1042 307.22C32.1724 310.627 24.2407 313.979 16.2531 317.274C15.9179 317.386 15.5827 317.498 15.1917 317.609C15.08 317.609 14.9125 317.665 14.7449 317.721C14.4656 317.777 14.1305 317.889 13.7395 318C13.3485 318.112 12.9575 318.224 12.4547 318.335C13.0692 317.553 13.5719 316.827 13.9629 316.213C14.5773 315.375 15.0242 314.761 15.5269 314.09C15.6386 313.923 15.7503 313.755 15.8621 313.643C16.2531 313.141 16.644 312.582 17.0909 312.023C23.1235 303.98 28.3183 295.434 32.4517 286.273C33.4013 284.206 34.2392 282.084 35.0212 279.961C35.4122 278.9 35.7473 277.839 36.0825 276.777C37.814 271.415 38.9871 265.885 39.6015 260.244C39.7691 258.624 40.1042 256.948 40.8862 255.552C47.8125 242.76 51.946 229.075 55.4091 215.055C55.6884 213.882 56.0236 212.653 56.3029 211.48C56.5821 210.307 56.9173 209.078 57.1966 207.905C57.811 205.503 58.3696 203.101 58.8723 200.7C59.7102 196.678 60.4922 192.6 60.6039 188.523C60.6039 187.741 60.6597 186.959 60.7156 186.177C60.939 183.886 61.4417 181.708 62.2796 179.585C62.7823 178.357 63.2292 177.128 63.676 175.899C65.8545 169.699 67.4185 163.331 68.7591 156.963C69.3176 154.394 69.8204 151.824 70.3231 149.255C71.7195 142.217 73.2835 135.179 75.2385 128.252C75.6295 126.856 76.0206 125.515 76.4674 124.119C77.3053 121.382 78.2549 118.645 79.2044 115.964C85.9632 97.7542 95.7382 81.6114 110.485 68.5966C112.998 66.3623 115.624 64.2956 118.249 62.3965C120.036 61.1118 121.824 59.8829 123.667 58.7657C127.354 56.4755 131.152 54.4089 135.062 52.6214C137.017 51.7277 139.028 50.8898 141.039 50.1078C146.122 48.1528 151.372 46.6446 156.79 45.4158C161.147 44.4662 165.504 43.6283 169.861 42.958C176.396 41.9526 182.988 41.2824 189.579 41.0031C191.757 40.8914 193.992 40.8355 196.17 40.8355C200.583 40.8355 204.995 40.8913 209.464 41.1706C220.747 41.8409 232.03 42.4554 243.37 42.8464C244.878 42.8464 246.33 42.9022 247.838 42.8464C250.072 42.8464 252.363 42.7904 254.764 42.6787C257.11 42.6229 259.568 42.5112 262.138 42.4553C265.098 45.9185 266.718 50.3312 267.444 55.0233C267.5 55.4701 267.556 55.917 267.556 56.3639C267.556 57.2576 267.444 58.2071 267.277 59.1008C267.165 59.5477 267.053 59.9946 266.941 60.4414C266.718 61.1676 266.439 61.8937 266.104 62.5081C265.322 63.8487 264.204 64.7983 262.752 65.301L262.808 65.3569ZM272.751 218.183C273.142 217.736 273.533 217.345 273.979 216.954C274.203 216.787 274.37 216.563 274.594 216.396C274.706 216.284 274.761 216.228 274.873 216.172C275.376 215.781 275.879 215.334 276.437 215.111C276.661 214.999 276.884 214.943 277.107 214.887C277.331 214.887 277.554 214.832 277.834 214.832C278.057 214.832 278.336 214.831 278.56 214.887C278.783 214.887 279.062 214.999 279.286 215.111C279.509 215.223 279.733 215.334 279.9 215.446C280.571 215.949 280.571 216.842 280.291 217.569C280.18 217.792 280.068 218.015 279.9 218.183C279.621 218.462 279.342 218.742 279.062 219.077C278.225 219.915 277.219 220.697 276.214 221.255C275.655 221.534 275.097 221.814 274.426 221.925C273.812 222.093 273.086 222.149 272.36 222.205C271.466 222.205 270.405 222.205 269.232 221.981C270.684 220.473 271.801 219.244 272.806 218.183H272.751ZM268.673 227.455C268.673 227.455 268.114 226.953 267.835 226.729C268.17 226.506 268.45 226.338 268.785 226.171C269.399 225.891 270.014 225.668 270.628 225.556C271.242 225.444 271.801 225.444 272.415 225.389C273.309 225.389 274.147 225.389 274.985 225.389C275.711 226.562 276.046 227.623 276.046 228.628C276.046 229.634 275.543 230.583 274.594 231.589C272.192 230.863 270.684 229.131 268.785 227.455H268.673ZM317.213 218.574C317.325 217.624 317.604 216.731 317.995 215.949C318.945 213.938 320.62 212.374 322.575 211.033C322.855 210.81 323.246 210.754 323.637 210.754C323.804 210.754 324.028 210.754 324.195 210.754C324.363 210.754 324.53 210.754 324.642 210.754C324.81 210.866 324.977 211.033 325.145 211.145C326.094 212.094 325.927 213.212 325.927 214.273C325.927 215.222 325.927 216.228 325.871 217.178C325.815 219.133 325.759 221.088 325.704 223.043C325.704 223.992 325.704 224.998 325.704 225.947C325.704 227.12 325.815 228.293 325.871 229.466C325.983 231.812 326.15 234.158 326.374 236.504C326.485 237.677 326.597 238.85 326.709 240.023C326.821 240.973 326.821 241.867 326.765 242.76C326.653 244.213 326.262 245.609 325.424 247.061C321.849 253.15 318.945 259.517 316.934 266.22C316.487 267.784 316.04 269.348 315.649 270.912C314.979 273.817 313.471 276.163 311.125 278.006C309.672 279.123 308.276 280.297 306.935 281.525C301.07 286.776 296.099 292.753 291.519 299.176C289.117 302.528 286.659 305.823 282.693 307.555C282.191 307.778 281.632 307.89 280.627 308.058C280.459 308.058 280.291 308.114 280.068 308.169C279.9 308.169 279.677 308.281 279.453 308.337C279.733 308.002 279.956 307.722 280.18 307.387C282.47 304.427 284.369 301.913 286.268 299.511C286.715 299.009 287.106 298.45 287.553 297.947C291.295 293.535 295.205 289.345 299.004 284.988C301.573 282.084 304.198 279.179 306.6 276.107C307.606 274.822 308.499 273.37 309.281 271.918C309.449 271.583 309.617 271.248 309.784 270.912C312.521 265.159 315.202 259.406 317.772 253.597C318.721 251.474 319.447 249.351 320.285 247.173C320.565 246.447 320.844 245.721 321.123 245.05C321.235 244.771 321.402 244.548 321.57 244.324C321.738 244.101 321.905 243.933 322.017 243.766C321.067 241.308 319.95 238.962 319.28 236.504C317.828 231.142 317.157 225.612 317.101 220.082C317.101 219.579 317.101 219.077 317.213 218.574ZM211.419 259.685C211.698 258.568 212.313 257.507 212.816 256.11C217.117 258.065 221.418 259.964 225.719 261.808C228.623 263.037 231.528 264.154 234.432 265.271C238.845 266.891 243.37 268.399 248.062 269.572C247.112 269.851 245.492 270.075 243.425 270.298C240.633 270.577 237.058 270.857 233.203 271.024C232.254 271.024 231.248 271.08 230.243 271.136C229.238 271.136 228.232 271.192 227.227 271.248C225.719 271.248 224.21 271.303 222.758 271.303C221.753 271.303 220.803 271.303 219.854 271.303C215.553 271.303 211.698 271.192 209.017 270.968C209.799 267.17 210.525 263.372 211.363 259.629L211.419 259.685ZM356.146 403.183C356.034 403.63 355.922 404.077 355.755 404.524C355.699 404.747 355.587 404.97 355.531 405.194C355.42 405.641 355.252 406.087 355.14 406.534C352.962 416.7 350.448 426.755 347.655 436.753C346.929 439.267 346.259 441.725 345.477 444.238C344.025 449.209 342.461 454.181 340.841 459.096C340.059 461.554 339.221 464.012 338.383 466.469C333.077 482.054 328.161 497.75 323.469 513.501C318.777 529.253 314.309 545.061 309.84 560.924C308.444 565.784 307.047 570.588 305.651 575.447C304.254 580.307 302.802 585.111 301.35 589.915C300.959 591.311 300.512 592.707 300.065 594.048C298.724 598.181 297.104 602.203 294.703 605.778C292.636 608.85 290.402 611.531 287.888 613.822C284.369 617.005 280.291 619.296 275.711 620.636C274.37 621.027 273.03 621.306 271.578 621.53C270.181 621.753 268.673 621.865 267.165 621.921C266.159 621.921 265.154 621.921 264.093 621.921C261.076 621.865 258.116 621.53 255.155 620.915C254.206 620.748 253.2 620.524 252.251 620.245C250.352 619.742 248.397 619.128 246.553 618.458C245.604 618.122 244.654 617.732 243.761 617.341C242.755 616.894 241.806 616.447 240.856 615.944C234.265 612.369 229.461 607.063 226.165 600.025C221.027 589.188 217.005 578.017 215.999 565.952C215.664 561.874 215.273 557.74 214.994 553.663C214.715 549.585 214.491 545.452 214.491 541.318C214.38 519.925 214.603 498.532 214.771 477.138C214.826 470.044 214.882 462.95 214.771 455.857C214.771 445.188 214.547 434.575 214.156 423.906C214.044 420.387 213.877 416.812 213.709 413.293C213.374 406.199 212.983 399.105 212.48 392.011C211.642 380.17 210.693 368.328 209.799 356.486C209.52 352.52 209.185 348.61 208.905 344.644C208.85 343.527 208.738 342.41 208.682 341.237C208.57 338.388 208.459 335.595 208.291 332.747C208.291 332.188 208.235 331.63 208.179 331.071C208.124 330.345 208.068 329.674 208.012 328.948C207.956 328.222 207.9 327.552 207.844 326.826C207.453 322.636 206.95 318.447 205.331 314.314C205.051 313.643 204.828 312.973 204.604 312.303C204.381 311.633 204.213 310.962 203.99 310.236C203.264 307.499 202.761 304.594 202.37 301.746C202.147 300.293 201.979 298.897 201.756 297.445C201.197 293.591 201.476 289.736 202.37 285.994C202.649 284.765 203.04 283.48 203.487 282.251C203.711 281.693 203.934 281.079 204.158 280.576C205.945 276.889 208.85 274.543 213.318 274.264C215.832 274.096 218.345 273.873 220.859 273.817C221.194 273.817 221.585 273.817 221.92 273.817C228.623 273.761 235.27 273.649 241.973 273.649C248.676 273.649 255.323 273.538 262.026 273.538C262.417 273.538 262.808 273.538 263.199 273.538C264.763 273.482 266.215 273.258 267.668 272.812C268.729 272.476 269.846 272.085 270.907 271.527C274.538 269.628 278.392 268.008 282.135 266.22C282.693 265.941 283.196 265.718 283.755 265.438C285.877 264.377 287.944 263.316 290.011 262.199C292.077 261.081 294.2 259.964 296.322 258.847C296.546 259.015 296.713 259.182 296.937 259.35C297.272 259.629 297.663 259.964 298.054 260.299C298.501 260.635 298.948 261.026 299.506 261.528C299.395 260.914 299.227 260.411 299.115 259.908C299.004 259.406 298.892 258.959 298.78 258.512C298.668 258.065 298.557 257.618 298.501 257.227C298.389 256.78 298.277 256.389 298.222 255.943C298.668 254.825 299.227 253.764 299.841 252.759C301.35 250.189 303.193 247.732 304.869 245.218C305.204 244.715 305.539 244.213 305.874 243.71C305.986 243.71 306.042 243.766 306.153 243.822C306.88 244.101 307.55 244.38 308.164 244.659C308.388 244.771 308.611 244.827 308.835 244.939C308.946 244.492 309.226 243.989 309.058 243.822C306.321 240.414 305.651 236.504 305.818 232.259C305.818 231.03 305.818 229.801 305.818 228.572C305.818 227.344 305.818 226.115 305.93 224.886C306.042 223.489 306.209 222.205 306.433 221.088C306.544 220.529 306.712 219.97 306.88 219.412C307.773 216.675 309.393 214.273 312.018 211.257C312.8 211.312 313.08 211.704 313.247 212.15C313.359 212.597 313.359 213.1 313.359 213.547C313.918 218.909 314.476 224.271 315.091 229.634C315.258 231.421 315.482 233.209 315.649 234.996C315.649 235.443 315.761 235.89 315.873 236.337C316.04 237.23 316.264 238.124 316.543 239.018C316.655 239.465 316.822 239.911 316.934 240.358C317.995 243.71 317.716 246.782 316.04 249.854C315.202 251.362 314.42 252.926 313.638 254.49C312.856 256.054 312.13 257.618 311.348 259.182C310.287 261.417 309.058 263.595 308.276 265.885C307.271 269.013 305.762 271.862 303.863 274.487C303.528 274.934 303.193 275.325 302.858 275.772C302.523 276.163 302.187 276.61 301.796 277.001C299.674 279.403 297.495 281.749 295.317 284.151C294.032 285.603 292.748 286.999 291.463 288.452C287.832 292.641 284.201 296.886 280.794 301.243C276.828 306.326 271.801 310.236 266.718 314.09C266.271 314.425 265.768 314.761 265.21 315.04C264.651 315.319 264.093 315.543 263.534 315.766C262.361 316.213 261.132 316.548 259.959 316.827C257.222 317.498 254.373 317.889 251.636 318.28C251.245 318.335 250.854 318.391 250.463 318.447C250.128 319.397 250.128 320.067 250.408 320.514C250.575 320.737 250.743 320.849 251.022 320.961C251.301 321.072 251.636 321.072 252.027 321.072C252.53 321.072 253.033 321.017 253.536 320.961C255.044 320.793 256.608 320.57 258.116 320.458C258.674 320.458 259.233 320.402 259.736 320.458C260.462 320.458 261.132 320.57 261.635 320.737C263.311 321.24 264.149 322.413 264.595 324.647C264.595 324.871 264.707 325.15 264.707 325.429C264.707 325.709 264.763 325.988 264.819 326.267C264.931 327.273 264.986 328.334 265.098 329.339C265.377 332.411 265.657 335.484 265.88 338.556C266.159 341.684 266.439 344.812 266.718 347.94C267.556 357.324 268.394 366.708 269.176 376.036C269.623 381.343 269.79 386.705 270.125 392.067C270.181 393.073 270.293 394.134 270.349 395.14C270.572 398.212 270.851 401.284 271.075 404.356C272.36 419.047 273.086 433.793 274.873 448.427C275.097 450.494 275.376 452.617 275.711 454.683C277.443 466.805 280.682 478.367 285.319 489.65C286.994 493.784 288.67 497.973 290.29 502.107C290.848 503.503 291.351 504.899 291.91 506.296C293.585 510.597 294.758 515.01 295.652 519.422C295.931 520.931 296.211 522.383 296.434 523.891C297.328 529.868 297.775 535.9 297.942 541.989C298.222 549.976 298.501 558.02 297.216 566.008C297.16 566.454 297.104 566.957 297.16 567.404C297.16 567.572 297.216 567.683 297.272 567.851C297.328 568.018 297.495 568.186 297.607 568.353C297.831 568.577 298.054 568.744 298.333 568.856C298.389 568.856 298.445 568.912 298.501 568.968C298.501 568.968 298.557 568.968 298.613 568.968C298.724 568.968 298.892 568.968 299.004 568.856C299.227 568.744 299.395 568.577 299.45 568.465C299.674 567.795 299.897 567.125 300.121 566.398C300.344 565.728 300.456 565.002 300.512 564.332C300.679 562.097 300.791 559.807 300.903 557.573C301.014 555.339 301.07 553.049 301.07 550.814C301.07 538.693 301.014 526.516 300.679 514.395C300.623 512.105 300.512 509.759 300.344 507.469C300.065 503.615 299.73 499.761 299.227 495.962C299.115 495.124 299.004 494.342 298.892 493.504C297.942 487.807 296.211 482.333 293.585 477.138C292.077 474.178 290.625 471.273 289.173 468.313C288.447 466.86 287.72 465.352 286.994 463.9C286.268 462.448 285.486 460.94 284.76 459.487C284.034 458.035 283.308 456.527 282.582 455.074C280.068 449.768 278.225 444.35 277.107 438.764C276.437 435.413 275.99 431.949 275.879 428.375C275.823 426.14 275.655 423.962 275.543 421.783C275.152 416.254 274.65 410.78 274.203 405.25C274.091 404.133 274.035 403.071 273.924 401.954C273.812 400.222 273.7 398.491 273.588 396.704C273.253 391.453 272.974 386.258 272.527 381.007C271.689 371.344 270.796 361.625 269.958 351.962C269.678 348.722 269.343 345.482 269.12 342.298C269.12 341.628 269.008 340.958 268.952 340.287C268.617 335.651 268.338 330.903 268.003 325.82C268.673 325.932 269.232 326.044 269.678 326.155C270.181 326.267 270.628 326.323 271.019 326.491C280.012 329.451 288.949 332.412 297.942 335.428C299.562 335.986 301.126 336.545 302.746 337.159C309.617 339.729 316.264 342.801 322.408 346.99C324.866 348.666 327.156 350.453 329.334 352.408C330.06 353.079 330.787 353.693 331.457 354.419C333.524 356.43 335.534 358.609 337.322 360.955C337.936 361.737 338.551 362.519 339.109 363.301C341.735 366.931 344.081 370.674 346.259 374.472C348.438 378.271 350.448 382.236 352.403 386.202C353.13 387.655 353.632 389.219 354.023 390.727C354.917 394.134 355.252 397.653 355.867 401.116C355.922 401.563 355.922 401.954 355.867 402.401C355.867 402.624 355.811 402.848 355.755 403.071L356.146 403.183Z" fill="#131039"/>
<path d="M155.227 535.119C150.925 539.253 146.736 543.442 142.268 547.464C122.159 565.617 98.4753 573.661 71.4962 571.482C53.5659 570.03 39.1547 561.596 27.5922 548.022C19.046 538.024 13.2927 526.461 9.94121 513.781C5.52847 497.024 3.46174 479.932 4.57889 462.504C4.74647 460.27 4.85817 457.98 4.91403 455.745C4.91403 455.187 5.19333 454.126 3.68517 454.126C2.84731 458.203 2.56801 462.225 2.51215 466.303C2.23286 477.027 3.2383 487.64 4.80231 498.253C7.31589 514.954 12.5107 530.594 22.5091 544.391C23.9056 546.346 24.4642 548.357 24.52 550.703C24.6876 561.372 25.1344 572.097 25.0227 582.766C24.7434 599.802 22.7326 616.727 20.1073 633.54H21.8947C22.0623 633.149 22.1181 632.702 22.174 632.311C23.5146 620.469 24.9669 608.627 26.0282 596.786C26.6985 589.357 27.4805 582.095 30.385 575.169C32.5635 569.974 35.4122 565.338 40.607 563.159C45.8576 565.561 50.5496 568.187 55.5209 569.918C67.5861 574.052 79.9306 574.945 92.6103 572.879C107.636 570.421 121.6 565.45 134.112 556.624C142.435 550.759 149.25 543.386 156.4 536.292C156.567 536.124 156.4 535.566 156.288 534.784C155.673 535.063 155.45 535.119 155.338 535.231L155.227 535.119Z" fill="#131039"/>
<path d="M269.567 127.023C269.567 127.023 269.79 127.023 269.958 127.023C270.851 126.967 271.969 126.632 272.304 126.018C272.583 125.515 272.862 125.068 273.142 124.566C273.924 123.057 274.594 121.493 274.985 119.929C275.32 118.589 275.488 117.192 275.152 115.908C275.097 115.628 274.985 115.405 274.873 115.182C274.65 114.679 274.37 114.232 273.924 113.841C268.785 113.171 263.925 112.668 259.066 111.774C256.329 111.271 253.592 110.992 250.91 110.936C250.24 110.936 249.57 110.936 248.899 110.936C247.559 110.936 246.218 110.936 244.878 111.048C244.207 111.048 243.537 111.16 242.867 111.216C237.505 111.718 232.254 112.891 227.003 114.623C226.389 114.846 225.774 115.07 225.16 115.349C224.546 115.628 223.931 115.908 223.373 116.187C222.2 116.801 221.027 117.416 219.854 118.086C219.518 118.254 219.295 118.533 219.016 118.868C218.736 119.203 218.401 119.65 218.01 120.153C218.345 120.32 218.625 120.432 218.792 120.544C218.848 120.544 218.904 120.6 218.96 120.6C219.127 120.711 219.239 120.711 219.351 120.767C219.686 120.767 220.021 120.823 220.3 120.823C220.803 120.823 221.25 120.879 221.753 120.823C223.652 120.711 225.495 120.656 227.394 120.6C230.69 120.6 233.93 120.6 237.169 120.879C246.944 121.549 256.496 123.337 265.992 126.241C266.159 126.241 266.271 126.353 266.439 126.353C267.165 126.576 267.947 126.8 268.673 126.912C268.952 126.912 269.287 126.967 269.567 126.967V127.023ZM224.099 118.533C226.221 116.466 228.679 115.572 232.421 115.517C230.355 120.711 226.724 117.863 224.099 118.533ZM244.543 119.371C241.135 119.818 237.784 119.427 234.153 118.589C233.986 115.964 234.544 114.455 236.778 113.953C239.515 113.338 242.308 112.836 245.213 113.45C246.162 115.628 246.107 117.472 244.598 119.371H244.543ZM253.536 120.935C251.636 120.767 249.681 120.544 247.335 120.32C247.559 117.863 247.782 115.74 247.95 113.562C250.519 112.389 252.754 113.059 254.988 113.506C255.937 116.466 255.267 118.645 253.48 120.935H253.536ZM264.986 123.951C262.194 123.225 259.457 122.499 256.384 121.661C256.831 118.98 257.278 116.466 257.781 113.617C260.909 113.785 263.813 114.232 266.606 115.405C267.109 118.533 267.165 121.326 264.986 123.951ZM269.455 115.852C271.466 115.181 272.751 115.293 273.03 117.192C273.365 119.874 272.918 122.443 271.019 124.51C270.572 124.957 269.455 125.292 268.952 125.012C268.45 124.789 267.947 123.728 268.059 123.113C268.394 120.767 268.952 118.421 269.455 115.852Z" fill="#131039"/>
<path d="M195.891 349.559C195.891 349.559 195.388 349.559 195.165 349.559C195.165 349.559 195.053 349.559 194.997 349.559C194.885 349.559 194.83 349.559 194.774 349.615C190.361 352.352 185.948 355.089 181.535 357.882C179.357 359.278 177.123 360.619 174.944 362.015C174.665 362.183 174.33 362.406 174.051 362.63C173.771 362.853 173.436 363.077 173.157 363.3C172.598 363.747 172.096 364.25 171.705 364.808C171.425 365.255 171.09 365.59 170.755 365.925C169.75 366.875 168.521 367.378 167.18 367.713C166.007 367.992 164.778 368.327 163.605 368.607C161.594 369.109 159.583 369.5 157.573 369.556C157.182 369.556 156.791 369.556 156.4 369.556C156.009 369.556 155.618 369.556 155.227 369.556C154.445 369.556 153.718 369.444 152.992 369.277C150.088 368.774 147.462 367.601 145.284 365.59C144.725 365.088 144.223 364.529 143.776 363.914C143.329 363.3 142.882 362.63 142.435 361.904C141.821 360.731 140.983 359.837 140.089 359.055C139.195 358.273 138.19 357.659 137.073 357.044C135.397 356.039 133.721 355.089 131.99 354.139C126.907 351.235 121.824 348.33 116.964 345.09C111.825 341.683 106.631 338.332 101.38 335.148C92.6104 329.786 83.6732 324.758 74.5126 320.066C74.345 320.011 74.2333 319.899 74.0657 319.787C73.3395 319.34 72.6134 318.726 71.6638 318.67C71.2728 318.67 70.8818 318.726 70.4349 319.005C70.6584 319.508 70.9935 319.955 71.3845 320.29C72.4458 321.351 73.954 321.742 75.2387 322.412C78.4784 324.088 81.6623 325.82 84.8462 327.607C94.3978 332.914 103.782 338.555 112.887 344.588C118.64 348.386 124.617 351.905 130.593 355.424C132.604 356.597 134.559 357.77 136.57 358.943C136.794 359.055 137.017 359.223 137.24 359.334C137.464 359.446 137.687 359.613 137.855 359.781C138.693 360.34 139.419 361.01 140.033 361.792C140.313 362.183 140.592 362.63 140.871 363.133C142.715 366.819 146.01 368.942 149.808 370.282C150.758 370.617 151.708 370.897 152.657 371.064C154.109 371.343 155.506 371.511 156.902 371.567C162.041 371.679 166.957 370.115 171.76 367.657C171.872 367.657 171.928 367.545 172.04 367.489C172.487 367.21 172.933 366.875 173.157 366.484C173.66 365.702 174.218 365.032 174.833 364.417C175.168 364.138 175.447 363.803 175.782 363.524C177.123 362.406 178.575 361.513 180.083 360.619C180.474 360.395 180.809 360.172 181.2 359.949C185.557 357.212 189.97 354.586 194.327 351.905C195.109 351.458 196.226 351.123 195.779 349.727L195.891 349.559Z" fill="#131039"/>
<path d="M260.853 131.381C260.239 131.157 259.736 131.101 259.289 131.101C258.842 131.101 258.395 131.157 258.06 131.269C257.669 131.381 257.334 131.548 257.055 131.716C256.72 131.883 256.44 132.051 256.161 132.163C253.815 133.28 251.469 134.453 249.123 135.57C245.213 137.413 241.191 139.145 236.834 139.983C236.667 139.983 236.499 140.094 236.332 140.206C235.996 140.43 235.717 140.709 235.382 141.044C235.214 141.212 235.047 141.379 234.823 141.547C235.717 142.943 236.499 144.34 237.337 145.736C237.616 146.183 237.84 146.686 238.119 147.132C239.404 149.478 240.688 151.88 242.085 154.17C244.04 157.354 246.33 160.371 249.291 162.94C249.57 162.27 249.57 161.655 249.626 161.097C249.626 160.091 249.626 159.198 250.519 158.248C251.469 157.187 252.307 156.125 252.977 155.008C253.424 154.282 253.815 153.5 254.15 152.718C254.318 152.327 254.485 151.936 254.597 151.545C254.876 150.763 255.1 149.925 255.267 149.143C255.379 148.752 255.435 148.305 255.491 147.914C255.602 147.077 255.714 146.239 255.714 145.345C255.714 144.06 255.714 142.72 255.547 141.435C255.435 140.541 255.323 139.648 255.1 138.754C254.988 138.195 254.876 137.581 254.82 137.022C254.709 136.464 254.653 135.905 254.541 135.402C255.1 135.067 255.602 134.732 256.105 134.453C257.613 133.503 259.121 132.61 260.909 131.492L260.853 131.381ZM247.782 157.857C243.425 154.506 241.024 149.981 240.186 144.619C240.018 143.334 240.521 142.161 241.694 141.491C244.822 139.592 248.118 137.972 251.916 136.352C255.379 145.289 253.983 152.215 247.782 157.857Z" fill="#131039"/>
<path d="M164.331 431.055C164.331 431.055 163.772 430.72 163.381 430.608C163.381 431.223 163.381 431.837 163.381 432.396C163.381 433.01 163.381 433.569 163.381 434.127C163.661 437.814 164.275 441.445 164.331 445.131C164.443 454.515 164.219 463.955 164.219 473.34C164.219 474.233 164.387 475.127 164.554 476.747C164.554 476.97 164.554 477.249 164.61 477.473C164.778 476.914 164.89 476.3 165.057 475.685C167.068 466.078 167.068 446.863 165.225 433.122C165.113 432.396 165.113 431.558 164.387 431.055H164.331Z" fill="#131039"/>
<path d="M217.34 148.473C217.396 148.864 217.452 149.255 217.508 149.646C217.787 151.992 218.122 154.506 220.021 156.963C220.356 157.354 220.692 157.801 221.083 158.192C221.027 157.913 220.971 157.634 220.915 157.354C220.301 154.226 219.63 151.545 219.183 148.976C219.016 148.138 218.904 147.3 218.848 146.462C218.681 144.73 218.681 142.999 218.737 141.156C218.737 140.206 218.792 139.256 218.848 138.251C218.848 137.246 218.904 136.184 218.96 135.067C216.949 139.48 216.502 142.72 217.34 148.417V148.473Z" fill="#131039"/>
<path d="M278.672 195.951C279.454 196.063 280.236 195.895 280.906 195.504C281.744 195.058 282.414 194.276 282.582 193.382C282.582 193.326 282.582 193.27 282.638 193.158C282.582 193.047 282.526 192.935 282.47 192.767C282.358 192.6 282.302 192.376 282.191 192.265C282.191 192.265 282.135 192.153 282.079 192.153C281.576 191.93 281.073 191.762 280.515 191.762C278.951 191.762 277.499 192.656 277.163 194.22C277.163 194.443 277.163 194.778 277.331 195.058C277.499 195.337 277.666 195.616 277.89 195.672C278.169 195.784 278.392 195.84 278.672 195.895V195.951Z" fill="#131039"/>
<path d="M266.16 188.523C266.495 187.909 267.221 187.406 267.388 186.68C267.388 186.624 267.388 186.512 267.388 186.456C267.388 186.177 267.333 185.898 267.165 185.562C266.383 186.177 265.713 186.736 265.266 187.238C264.819 187.741 264.484 188.244 264.372 188.691C264.372 188.802 264.316 188.97 264.316 189.082C264.204 190.199 264.931 191.428 266.551 193.215C266.383 191.874 266.271 190.478 266.104 189.137C266.104 189.082 266.104 188.97 266.104 188.914C266.104 188.746 266.16 188.635 266.215 188.467L266.16 188.523Z" fill="#131039"/>
<path d="M148.747 152.886C145.563 155.679 148.244 159.421 146.401 162.773C144.893 161.655 143.72 160.538 142.323 159.756C140.703 158.918 138.86 158.472 137.184 157.745C131.431 155.288 128.247 150.372 128.359 144.228C128.471 139.648 130.984 137.413 135.453 137.972C136.849 138.139 138.19 138.698 139.586 138.977C139.866 138.977 140.368 138.642 140.536 138.363C140.703 138.028 140.648 137.525 140.536 137.19C140.257 136.687 139.81 136.129 139.307 135.905C135.732 134.174 132.101 134.174 128.806 136.464C125.566 138.698 125.007 142.161 125.398 145.792C126.18 152.886 129.644 158.304 136.57 160.65C140.592 161.991 143.664 163.778 144.669 168.135C144.669 168.302 144.837 168.526 144.949 168.693C145.507 169.587 146.177 170.537 147.35 170.146C148.021 169.922 148.803 169.196 149.026 168.582C150.367 164.225 150.869 159.756 150.255 155.176C150.143 154.45 149.473 153.835 148.914 152.886H148.747Z" fill="#131039"/>
<path d="M140.369 128.029C145.228 131.772 146.625 136.855 146.178 142.72C146.066 143.948 146.122 145.177 146.289 146.35C146.345 146.797 147.016 147.412 147.518 147.468C147.909 147.468 148.747 146.965 148.803 146.63C149.138 145.066 149.25 143.39 149.417 141.77C149.529 135.737 147.798 130.431 143.161 126.409C142.435 125.795 141.43 125.404 140.48 125.013C140.257 124.901 139.698 125.236 139.475 125.515C139.251 125.795 139.084 126.297 139.196 126.577C139.419 127.135 139.81 127.638 140.313 127.973L140.369 128.029Z" fill="#131039"/>
</svg>
