<svg width="437" height="634" viewBox="0 0 437 634" fill="none" xmlns="http://www.w3.org/2000/svg">
<path d="M434.933 392.682C433.984 389.777 433.202 386.761 432.029 383.968C430.744 380.952 429.18 378.047 427.616 375.142C420.354 361.737 411.25 349.951 397.844 342.131C390.527 337.885 382.818 334.59 374.719 332.076C370.194 330.68 365.614 329.451 361.146 327.943C356.509 326.323 351.929 324.48 347.349 322.581C345.561 321.854 344.221 320.626 344.723 318C346.399 316.66 348.298 315.096 349.751 313.867C352.208 313.308 354.275 313.029 356.23 312.415C362.151 310.683 366.843 307.22 370.362 302.081C376.115 293.758 382.707 286.161 390.75 279.905C393.096 278.118 394.716 275.716 395.386 272.812C397.509 263.707 401.195 255.272 405.887 247.229C406.725 245.777 407.284 244.38 406.893 242.593C406.223 239.632 407.284 236.951 408.736 234.382C411.082 230.248 413.987 226.506 417.282 223.098C419.126 221.199 421.025 219.244 422.533 217.066C425.102 213.323 423.65 210.307 419.126 209.637C416.277 209.19 413.372 209.246 410.635 210.419C409.351 210.977 408.066 211.48 406.893 211.927C403.653 206.844 401.866 206.341 397.229 208.855C396.224 209.413 395.274 210.195 394.213 210.922C393.71 210.028 393.319 209.581 393.096 209.022C392.426 207.403 391.141 206.9 389.633 207.402C388.516 207.793 387.287 208.408 386.617 209.246C383.656 212.988 381.31 217.01 380.528 221.87C379.634 227.232 379.634 232.538 380.416 237.845C380.807 240.414 380.305 242.649 378.796 244.827C376.897 247.508 375.166 250.301 373.434 253.094C371.87 255.608 369.915 257.674 367.29 258.959C359.749 262.701 352.152 266.332 344.556 269.963C343.383 270.521 341.931 271.024 340.702 269.684C345.785 263.763 346.12 262.813 346.176 254.602C346.176 253.597 346.176 252.535 346.176 251.53C346.176 246.67 347.628 242.202 349.639 237.901C350.197 236.672 351.259 235.275 352.376 234.773C355.671 233.376 356.286 230.807 356.118 227.735C356.062 226.506 355.951 225.277 355.895 223.992C360.531 220.306 361.983 215.334 361.983 209.748C361.983 208.129 362.151 206.453 362.095 204.833C361.928 200.644 363.715 197.795 367.625 196.119C369.692 195.226 371.758 194.276 373.713 193.159C378.126 190.645 379.523 187.07 377.959 182.211C377.456 180.647 376.674 179.194 375.724 177.854C374.44 176.011 372.987 174.279 371.423 172.603C366.173 166.794 361.648 160.426 357.403 153.835C354.107 148.752 352.432 143.501 354.889 137.581C355.336 136.463 355.616 135.235 355.895 134.006C357.291 127.582 358.744 121.158 358.576 114.511C358.409 107.027 356.9 99.821 355.001 92.6712C353.772 88.0909 352.041 83.6781 349.639 79.6005C347.572 76.0815 345.505 72.5625 343.383 68.8759C344.053 67.5912 344.556 66.2506 345.338 65.0776C348.354 60.8325 348.131 56.1404 347.014 51.4484C345.896 46.8122 343.662 42.6229 340.534 38.9363C333.328 30.6135 324.95 24.3017 313.555 23.1845C313.332 23.1845 313.164 23.1286 312.941 23.0728C303.333 21.5088 294.117 18.7159 285.459 14.2473C283.448 13.186 281.325 12.3481 279.314 11.3427C263.06 3.41091 245.632 0.673957 227.87 0.0595252C210.33 -0.554907 193.629 3.63441 177.542 10.449C169.722 13.7446 162.628 18.2132 155.981 23.5196C141.626 35.0821 130.957 49.6051 122.802 65.9714C115.764 80.0474 111.127 94.9055 109.675 110.657C107.944 129.37 111.742 147.076 119.227 164.113C122.578 171.71 126.768 178.748 132.577 184.724C134.643 186.847 135.425 189.137 134.643 191.986C134.476 192.6 134.42 193.215 134.252 193.773C131.292 205.727 128.723 217.848 125.315 229.69C122.802 238.348 119.618 246.838 114.926 254.714C103.475 273.929 89.2872 290.965 72.8651 306.103C65.1567 313.197 57.3367 320.179 49.5725 327.217C48.0644 328.613 46.5562 330.065 45.2715 331.629C43.4282 333.92 41.3615 335.707 38.6803 337.104C31.3071 340.902 25.8889 346.711 21.9789 353.917C18.2365 360.787 14.9967 367.881 12.6507 375.366C7.56769 391.565 5.33338 408.266 4.60724 425.135C4.10452 435.804 4.32794 446.528 3.88108 457.197C2.76393 483.115 1.3675 508.977 0.306209 534.839C-0.252366 549.027 -0.196507 563.215 1.7585 577.347C2.54051 583.044 3.65766 588.686 4.10452 594.439C4.60724 600.807 4.88653 619.407 5.16581 633.372H8.23797C7.84697 613.933 7.06496 586.619 4.49552 574.386C3.43423 569.191 3.43423 563.773 3.2108 558.411C2.48465 539.475 3.76938 520.595 4.71896 501.66C5.55682 484.4 6.33882 467.14 6.89739 449.88C7.51183 432.62 7.51182 415.304 10.4164 398.212C12.7624 384.582 16.5049 371.4 22.6492 358.888C27.6764 348.61 35.1613 341.293 45.6625 336.768C53.4267 333.417 61.2467 330.401 69.346 327.999C75.0435 326.323 80.9086 325.318 86.4384 323.027C94.5936 319.62 102.972 316.716 111.016 313.141C119.059 309.566 127.494 306.941 134.979 302.137C135.314 301.913 135.761 301.802 136.152 301.802C138.665 302.137 139.894 300.405 141.067 298.729C143.134 295.937 145.033 292.976 147.211 290.239C155.311 279.905 165.086 272.141 178.324 269.404C181.564 268.734 184.748 268.064 187.931 267.282C192.512 266.165 197.204 265.271 201.617 263.595C210.386 260.299 218.374 255.775 223.904 247.787C224.183 247.396 224.797 247.285 225.524 246.95C226.641 258.065 227.646 268.902 228.819 279.682C231.277 301.746 232.226 306.549 235.299 312.135C235.243 310.404 235.299 309.454 235.131 308.56C234.796 306.549 234.237 304.539 233.902 302.528C232.338 291.356 230.551 280.185 229.322 268.902C228.428 261.137 228.205 253.317 227.758 245.497C227.59 243.04 227.925 240.694 229.154 238.348C233.176 230.639 235.466 222.316 236.863 213.714C237.086 212.206 237.03 210.531 238.315 209.022C239.32 209.972 240.158 211.201 241.834 210.028C242.002 206.9 240.661 204.386 237.868 202.599C237.98 192.544 237.198 182.658 238.929 172.883C240.27 165.174 241.778 157.522 243.566 149.925C245.074 143.334 246.805 136.743 248.872 130.319C252.112 120.209 258.2 112.165 266.97 106.021C274.12 101.05 281.66 96.9164 289.648 93.6766C300.484 89.2639 311.432 85.0746 322.325 80.8294C327.91 78.6509 333.328 76.2491 338.132 72.6183C338.914 72.0598 339.808 71.7246 340.925 71.1661C345.282 76.8077 348.633 82.7286 350.812 89.1522C355.783 103.396 357.403 117.975 353.102 132.777C352.655 134.341 352.432 136.017 351.817 137.525C349.527 143.222 350.812 148.417 353.828 153.388C354.666 154.785 355.504 156.181 356.398 157.578C360.531 163.945 365.223 169.922 370.306 175.675C372.149 177.798 373.825 180.256 374.998 182.825C376.506 186.065 375.613 188.299 372.54 190.087C370.585 191.26 368.575 192.265 366.452 193.103C361.425 195.114 359.246 198.912 358.967 204.107C358.911 205.336 358.967 206.565 358.855 207.794C358.744 208.967 358.576 210.14 358.409 211.201C351.985 211.871 352.599 210.866 347.405 216.228C345.952 217.68 344.332 218.965 342.824 220.361C341.819 221.311 340.981 222.484 340.255 223.322C340.59 225.891 341.484 227.623 343.104 229.075C344.723 230.583 346.958 231.533 347.684 233.767C343.997 243.877 343.159 244.436 342.88 257.227C342.88 258.233 342.824 259.294 342.657 260.299C342.042 264.154 339.585 266.667 335.73 267.058C333.719 267.282 331.597 267.058 329.586 266.723C315.566 264.545 302.719 259.071 290.542 252.144C278.365 245.162 267.473 236.393 257.921 226.003C257.362 225.389 256.748 224.83 256.022 224.495C255.575 224.327 254.905 224.551 254.402 224.83C254.178 224.942 254.011 225.668 254.178 225.891C254.681 226.785 255.184 227.735 255.91 228.405C259.597 231.812 261.943 236.169 264.121 240.638C268.981 250.413 274.678 259.741 280.767 268.734C281.66 270.075 282.498 271.471 283.392 272.867C277.415 278.788 275.795 285.994 275.739 293.87C275.739 302.248 277.639 310.18 280.32 318C281.269 320.793 281.772 323.53 281.995 326.379C282.666 336.657 283.336 346.879 284.062 357.156C285.068 371.121 286.241 385.029 287.023 398.994C287.749 411.338 288.028 423.627 288.531 435.971C289.257 453.231 289.089 470.547 288.698 487.807C288.196 507.972 287.693 528.136 288.587 548.301C288.587 549.25 288.419 550.2 288.307 551.205C284.006 550.591 282.777 550.088 279.817 547.63C275.907 544.446 273.058 540.481 270.88 535.956C270.489 535.174 270.154 534.001 268.59 534.783C269.707 537.967 271.159 540.927 273.282 543.385C275.46 545.843 277.75 548.301 280.376 550.2C283.001 552.043 286.073 553.216 288.754 554.557C289.592 560.98 290.262 567.125 291.156 573.213C292.553 583.1 296.407 592.149 300.54 601.142C304.674 610.191 311.321 616.558 320.425 620.357C325.173 622.368 330.089 623.82 335.284 624.323C339.138 624.714 342.992 624.993 346.902 625.384C347.851 627.897 347.181 630.467 347.405 633.26H350.086C350.588 630.076 349.751 626.78 351.706 624.323C352.599 623.988 353.549 623.597 354.554 623.261C363.938 619.687 371.479 613.877 375.892 604.717C378.126 600.136 380.081 595.277 381.534 590.417C389.13 564.611 396.503 538.693 404.044 512.831C406.278 505.123 408.624 497.47 411.138 489.874C421.081 459.822 431.079 429.827 437 399.161C436.274 396.703 435.659 394.581 434.989 392.458L434.933 392.682ZM405.887 218.965C405.999 218.295 406.223 217.569 406.558 217.01C406.558 216.954 406.669 216.842 406.725 216.787C408.68 214.217 412.367 212.653 415.942 212.597C416.556 212.597 417.115 212.597 417.729 212.709C418.288 212.765 418.902 212.932 419.405 213.1C419.405 213.1 419.405 213.1 419.461 213.1C419.684 213.212 419.852 213.435 420.075 213.714C420.131 213.826 420.243 213.938 420.354 214.05C419.74 216.284 418.176 217.96 416.612 219.524C415.662 220.473 414.657 221.423 413.763 222.428C412.758 223.601 411.808 224.83 410.803 226.003C409.462 227.623 408.178 229.187 406.837 230.807C406.39 229.466 406.111 228.237 405.887 226.953C405.441 224.216 405.496 221.59 405.887 218.965ZM322.883 30.3901C324.894 30.3901 326.681 30.7812 328.357 31.8424C328.804 32.1217 329.251 32.4568 329.698 32.8478C332.1 35.0263 334.613 37.0372 337.183 40.0535C336.959 40.0535 336.736 40.1652 336.512 40.1652C336.065 40.2769 335.674 40.3327 335.339 40.4445C335.172 40.4445 335.004 40.5003 334.837 40.5562C334.501 40.6121 334.166 40.6679 333.887 40.7238C333.608 40.7238 333.328 40.8355 332.993 40.8355C331.541 40.9472 330.145 41.1147 328.692 41.2265C327.966 41.2823 327.24 41.3382 326.514 41.3382C325.788 41.3382 325.062 41.3382 324.391 41.3382C315.733 41.0031 307.131 40.3327 298.529 39.9976C290.374 39.7183 282.163 39.3273 274.008 39.2714C271.271 39.2714 268.59 39.2714 265.853 39.3832C260.602 39.5507 255.351 39.9417 250.157 40.612C246.694 41.0589 243.23 41.6175 239.823 42.2878C234.684 43.2932 229.601 44.5779 224.574 46.086C199.047 53.8502 179.609 69.4903 165.7 92.1126C164.583 93.9001 163.522 95.7434 162.516 97.6425C160.505 101.385 158.718 105.183 157.042 109.037C156.204 110.992 155.478 112.947 154.752 114.902C154.361 116.02 153.914 117.137 153.523 118.31C152.909 120.153 152.294 121.941 151.736 123.784C150.619 127.47 149.613 131.213 148.72 134.955C147.044 141.993 145.592 149.087 144.027 156.181C143.525 158.527 143.022 160.873 142.463 163.275C142.017 165.286 141.458 167.241 140.788 169.419C140.397 170.76 140.006 172.156 139.559 173.72C138.665 171.933 137.995 171.039 137.771 170.034C136.487 163.722 135.37 157.466 134.476 151.098C134.197 148.976 133.917 146.853 133.694 144.786C132.968 138.419 132.577 132.051 132.521 125.627C132.521 123.505 132.521 121.326 132.577 119.204C132.912 108.311 134.364 97.6425 137.101 87.2531C138.777 81.0529 140.899 74.9085 143.525 68.8759C150.339 53.2358 160.617 40.4445 174.637 30.6136C184.357 23.8548 195.137 20.0006 206.7 18.4366C207.482 18.3249 208.264 18.2132 209.046 18.1573C214.966 17.5429 220.943 17.096 226.92 16.9843C229.88 16.9843 232.897 16.9843 235.857 17.1519C238.818 17.3195 241.834 17.5987 244.794 17.9897C246.247 18.2132 247.755 18.4366 249.207 18.6601C252.112 19.1628 255.072 19.7213 257.977 20.3357C259.429 20.6709 260.881 20.9502 262.334 21.2854C272.332 23.5197 282.331 26.0332 292.329 28.3234C299.591 29.9991 306.964 30.7811 314.337 30.6694C315.566 30.6694 316.795 30.6135 318.024 30.5577C319.252 30.5018 320.481 30.3902 321.71 30.2784C322.101 30.2784 322.492 30.2784 322.827 30.2225L322.883 30.3901ZM134.811 182.378C131.683 179.865 129.672 176.793 127.717 173.665C124.533 168.693 121.964 163.443 119.841 158.024C119.562 157.242 119.227 156.46 118.947 155.678C117.607 151.936 116.434 148.082 115.428 144.172C111.574 128.923 111.407 113.841 114.423 98.9272C114.926 96.4137 115.54 93.9559 116.21 91.4982C116.881 89.0405 117.663 86.5269 118.501 84.0691C119.674 80.6618 120.958 77.2545 122.411 73.9589C123.137 72.2832 123.863 70.6633 124.645 69.0435C127.773 62.564 131.348 56.3638 135.425 50.4429C136.431 48.9348 137.492 47.4825 138.553 46.0302C139.447 44.8013 140.397 43.6283 141.346 42.4553C143.245 40.1093 145.201 37.875 147.211 35.7524C151.233 31.5073 155.59 27.6531 160.17 24.1899C169.387 17.3194 179.72 12.0689 191.227 8.49397C192.679 8.04711 194.132 7.60028 195.584 7.20928C196.645 6.92999 197.762 6.65065 198.824 6.37136C201.002 5.86864 203.181 5.42184 205.359 5.03084C207.537 4.63983 209.716 4.30465 211.894 4.02536C216.251 3.46678 220.608 3.18753 225.021 3.18753C232.673 3.13167 240.382 3.74608 248.09 5.08666C249.542 5.31009 250.995 5.58938 252.447 5.86867C256.748 6.70653 261.049 7.76786 265.182 9.05258C269.316 10.3373 273.449 11.8454 277.471 13.7446C278.812 14.359 280.152 15.0293 281.437 15.6996C282.275 16.1465 283.113 16.5375 283.95 16.8726C284.565 17.1519 285.235 17.4312 285.85 17.7663C286.073 17.878 286.241 17.9339 286.464 18.0456C288.307 18.9952 290.207 19.833 292.106 20.615C294.005 21.397 295.96 22.0674 297.915 22.6818C299.87 23.2963 301.825 23.8548 303.836 24.3017C304.841 24.5251 305.847 24.7485 306.852 24.9719C307.857 25.1953 308.863 25.3629 309.868 25.5305C311.712 25.8657 313.611 26.2008 315.398 26.6477C316.46 26.9269 317.577 27.2062 318.582 27.5414C318.582 27.9324 318.582 28.2117 318.47 28.4351C318.303 28.7703 318.079 28.882 317.8 28.9378C317.521 28.9937 317.186 28.9378 316.962 28.9937C316.124 28.9937 315.287 29.1054 314.505 29.1054C313.667 29.1054 312.885 29.1054 312.047 29.1054C311.209 29.1054 310.427 29.0495 309.589 28.9937C305.511 28.7702 301.434 28.1559 297.356 27.4856C293.223 26.8153 289.145 26.0332 285.068 25.1395C278.309 23.6313 271.606 21.8998 264.903 20.0565C261.607 19.1069 258.312 18.3808 254.96 17.7105C248.984 16.5375 242.895 15.8113 236.751 15.5879C235.41 15.5879 234.014 15.532 232.617 15.532C222.005 15.532 211.392 15.6438 200.946 17.7105C200.276 17.8222 199.55 17.9898 198.88 18.1015C190.333 20.0006 182.457 23.3521 175.196 28.1558C171.286 30.7253 167.711 33.5181 164.36 36.5903C162.684 38.0984 161.064 39.6624 159.556 41.2823C158.606 42.2877 157.657 43.3491 156.763 44.4104C155.199 46.2537 153.635 48.1528 152.239 50.1637C147.938 56.0846 144.307 62.564 141.346 69.6021C138.33 76.7518 135.984 84.0692 134.364 91.4424C132.968 97.5867 132.074 103.843 131.515 110.155C130.957 116.466 130.845 122.834 130.957 129.314C131.18 139.089 132.297 148.696 133.861 158.304C134.364 161.488 134.979 164.671 135.593 167.855C135.816 168.973 136.04 170.09 136.263 171.263C136.598 172.938 136.878 174.67 137.213 176.346C137.604 178.524 137.213 180.423 134.867 182.378H134.811ZM84.651 319.899C83.8131 320.514 82.8077 320.961 81.8023 321.352C81.4671 321.463 81.132 321.631 80.7968 321.743C72.9768 324.089 65.1567 326.546 57.3367 328.948C55.7727 329.451 54.2087 329.898 52.6447 330.401H52.533C52.4212 330.401 52.2537 330.345 52.0302 330.233C51.9185 330.233 51.7509 330.177 51.5834 330.121C52.1978 329.339 52.6447 328.557 53.2591 327.999C57.1133 324.48 61.0233 320.961 64.8774 317.498C68.7875 313.979 72.6416 310.46 76.4399 306.885C89.1755 294.875 100.626 281.805 110.457 267.282C111.016 266.5 111.63 265.718 112.412 264.712C112.58 264.489 112.747 264.321 112.915 264.098C113.25 263.651 113.641 263.148 114.088 262.59C113.976 263.93 113.92 264.936 113.864 265.829C113.864 266.276 113.809 266.667 113.753 267.002C113.753 267.338 113.641 267.673 113.585 268.008C113.418 268.79 113.194 269.628 113.027 270.41C111.798 275.158 110.345 279.905 108.39 284.374C108.055 285.1 107.72 285.882 107.385 286.608C104.089 293.479 100.403 300.07 96.1018 306.27C93.5323 310.013 90.7395 313.588 87.7232 317.051C86.7736 318.168 85.7123 319.117 84.5393 319.899H84.651ZM202.063 259.126C201.393 259.797 200.723 260.467 199.997 260.97C199.271 261.472 198.433 261.863 197.539 262.031C193.182 262.981 188.881 263.818 184.524 264.712C183.463 264.936 182.346 265.159 181.284 265.383C181.005 265.383 180.614 265.047 180 264.712C180.279 264.209 180.502 263.651 180.782 263.148C180.893 262.981 180.949 262.813 181.061 262.646C183.798 257.898 185.865 252.926 187.485 247.787C187.931 246.335 188.378 244.883 188.769 243.375C190.166 238.18 191.115 232.874 191.953 227.511C192.232 225.556 192.456 223.545 192.679 221.59C193.964 207.738 192.847 193.941 191.45 180.144C191.059 176.29 190.724 172.492 190.445 168.637C190.277 166.347 190.054 164.001 189.886 161.711C189.886 161.208 190.166 160.65 190.333 160.035C195.193 163.387 199.606 168.414 201.114 173.05C201.672 174.838 202.343 176.569 203.125 178.245C203.516 179.083 203.907 179.921 204.354 180.703C206.476 184.724 209.213 188.411 212.62 191.595C212.788 192.768 213.011 193.829 213.179 194.89C213.738 198.074 214.184 200.979 214.631 203.883C215.078 206.565 215.413 209.19 215.581 211.871C216.251 219.859 215.86 227.846 213.961 235.722C213.682 236.784 213.402 237.901 213.123 238.962C211.615 244.268 209.492 249.351 206.364 253.876C205.136 255.719 203.683 257.451 202.119 259.071L202.063 259.126ZM228.819 127.079C229.266 133.559 232.171 177.184 232.506 190.087C229.992 191.148 227.311 191.707 224.742 191.707C221.39 191.707 218.095 190.813 215.302 189.193C213.458 188.132 211.838 186.679 210.554 185.004C208.04 181.708 205.973 178.133 204.8 174.167C203.404 169.531 200.835 165.733 197.483 162.214C195.249 159.868 193.126 157.242 191.45 154.505C191.115 154.003 190.836 153.5 190.557 152.941C189.44 150.875 188.658 148.808 188.155 146.685C188.043 146.183 187.931 145.624 187.82 145.121C187.54 143.557 187.485 141.937 187.54 140.373C187.596 138.809 187.82 137.19 188.211 135.626C188.322 135.067 188.49 134.564 188.658 134.006C188.993 132.944 189.384 131.883 189.831 130.822C190.054 130.319 190.277 129.761 190.557 129.258C190.836 128.643 191.171 128.085 191.506 127.526C194.132 123.169 197.93 120.153 202.343 118.757C203.46 118.422 204.577 118.142 205.75 118.03C206.309 117.975 206.923 117.919 207.537 117.919C209.325 117.919 211.168 118.031 213.067 118.477C213.682 118.645 214.296 118.812 214.967 118.98C219.156 120.321 223.178 121.996 226.473 124.733C227.143 125.292 227.758 125.851 228.372 126.521C228.54 126.688 228.707 126.912 228.875 127.135L228.819 127.079ZM234.74 203.492C234.293 213.77 232.171 223.713 228.205 233.209C227.925 233.823 227.702 234.438 227.423 234.996C225.468 239.185 222.898 243.151 220.441 247.061C217.927 251.083 214.24 253.988 209.66 255.663C211.894 250.413 214.296 245.386 215.916 240.079C216.139 239.297 216.363 238.571 216.531 237.789C217.313 234.773 217.871 231.7 218.262 228.684C218.541 226.394 218.765 224.104 218.821 221.814C219.1 214.943 218.486 208.073 217.201 201.202C217.145 200.755 217.033 200.309 216.922 199.862C216.922 199.694 216.866 199.527 216.81 199.359C216.586 198.186 216.419 196.957 217.033 195.617C217.759 195.896 218.43 196.175 219.156 196.343C220.552 196.734 221.949 197.013 223.401 197.069C224.127 197.069 224.797 197.125 225.524 197.125C228.372 197.125 231.277 196.622 234.237 195.952C234.405 196.79 234.684 197.572 234.796 198.242C234.796 198.465 234.852 198.689 234.852 198.912C234.852 200.364 234.852 201.873 234.74 203.325V203.492ZM255.463 111.998C255.463 111.998 255.296 112.445 255.128 112.612C254.905 112.892 254.625 113.171 254.458 113.394C252.447 115.908 250.715 118.533 249.263 121.326C248.76 122.276 248.313 123.169 247.867 124.119C246.135 127.917 244.794 131.883 243.677 136.017C240.382 147.97 237.868 160.091 235.801 172.268C234.852 155.623 233.455 134.397 233.008 127.917C233.008 127.694 233.008 127.47 233.008 127.247C233.232 126.13 233.567 125.124 234.07 124.175C234.963 122.499 236.192 121.047 237.533 119.594C238.538 118.533 239.488 117.584 240.493 116.69C241.164 116.131 241.778 115.629 242.448 115.126C244.068 113.953 245.744 113.059 247.587 112.389C247.978 112.277 248.313 112.11 248.704 111.998C250.604 111.383 252.726 110.992 255.184 110.769C255.519 111.216 255.519 111.551 255.463 111.886V111.998ZM266.802 101.944C266.802 101.944 266.467 102.223 266.244 102.335C265.35 102.781 264.456 103.172 263.562 103.619C261.496 104.569 259.429 105.518 257.306 106.412C255.631 107.082 253.787 107.641 252 107.976C246.638 109.037 242.169 111.328 238.315 114.567C236.807 115.852 235.354 117.36 234.07 118.98C233.399 119.762 232.785 120.656 232.171 121.494C232.171 121.549 232.059 121.605 232.003 121.717C231.835 121.996 231.668 122.276 231.444 122.499C231.165 122.834 230.886 123.113 230.495 123.504C227.367 121.661 224.351 119.65 221.055 118.086C220.273 117.695 219.491 117.36 218.709 117.081C217.089 116.466 215.413 115.908 213.682 115.293C212.844 115.014 211.95 114.679 211.056 114.344C211.168 114.065 211.336 113.841 211.503 113.618C212.341 112.501 213.402 111.942 214.52 111.439C214.966 111.272 215.413 111.104 215.86 110.937C221.614 108.702 227.311 106.412 233.288 104.792C235.243 104.29 237.254 103.843 239.32 103.452C240.996 103.172 242.672 102.893 244.348 102.67C247.699 102.223 251.05 101.776 254.458 101.385C256.133 101.162 257.809 100.994 259.485 100.771C261.943 100.435 264.456 100.212 267.528 99.8768C267.975 99.8768 268.422 99.7651 268.869 99.7092C267.975 100.659 267.473 101.441 266.914 101.888L266.802 101.944ZM334.055 71.8363C333.552 72.1156 333.105 72.3949 332.602 72.6183C329.474 74.2382 326.29 75.8581 323.051 77.2545C321.989 77.7014 320.872 78.1483 319.755 78.5393C315.119 80.1592 310.483 81.9466 305.902 83.734C298.25 86.8062 290.709 90.0459 283.168 93.2857C278.7 95.1848 274.008 95.9668 269.26 96.5253C267.696 96.7488 266.132 96.9163 264.512 97.1398C257.586 98.0893 250.604 98.7038 243.677 99.5417C241.778 99.7651 239.935 100.1 238.091 100.491C236.248 100.882 234.405 101.273 232.617 101.776C230.216 102.446 227.814 103.228 225.412 104.01C221.837 105.239 218.318 106.58 214.799 107.92C214.24 108.144 213.626 108.367 213.123 108.646C210.386 110.434 207.593 112.11 204.745 113.729C203.348 114.567 201.896 115.349 200.499 116.131C199.047 116.913 197.651 117.695 196.198 118.477C187.429 123.281 182.904 135.346 184.859 145.903C184.915 146.35 185.027 146.797 185.139 147.244C185.25 147.914 185.474 148.585 185.641 149.255C185.865 149.925 186.088 150.595 186.367 151.154C186.758 151.88 187.038 152.606 187.261 153.332C187.373 153.723 187.485 154.059 187.54 154.45C187.931 156.293 187.987 158.192 188.099 160.147C188.099 161.097 188.211 162.046 188.267 162.996C188.546 167.744 188.881 172.492 189.272 177.239C189.44 179.139 189.551 181.038 189.719 182.937C190.11 188.467 190.724 193.997 191.115 199.527C191.227 201.37 191.339 203.213 191.395 205.056C191.395 206.062 191.395 207.011 191.395 208.017C191.395 209.022 191.395 209.972 191.395 210.977C191.171 224.662 189.049 238.124 184.301 251.139C183.239 253.988 181.843 256.78 180.447 259.517C180 260.411 179.497 261.361 179.05 262.255C177.654 265.159 175.475 267.17 172.236 268.008C171.956 268.064 171.733 268.175 171.454 268.231C170.727 268.455 170.057 268.734 169.331 269.013C168.772 269.237 168.214 269.46 167.599 269.684C166.594 270.019 165.644 270.41 164.751 270.857C162.907 271.75 161.12 272.812 159.5 273.985C158.662 274.599 157.88 275.213 157.042 275.884C150.004 281.805 143.078 287.893 137.269 295.155C136.431 296.216 135.425 297.11 134.308 297.947C133.191 298.785 131.962 299.623 130.622 300.461C130.175 300.74 129.728 301.076 129.337 301.355C128.89 301.69 128.443 301.969 127.996 302.304C128.052 301.243 127.996 300.684 128.108 300.349C128.108 300.293 128.108 300.238 128.164 300.182C128.946 299.232 129.616 298.283 130.342 297.333C131.013 296.383 131.683 295.378 132.297 294.373C136.04 288.34 138.721 281.805 141.179 275.158C143.413 268.957 145.312 262.646 146.932 256.278C147.323 254.714 147.714 253.094 148.105 251.474C149.222 246.67 150.228 241.867 151.121 237.007C153.467 224.886 155.031 212.597 156.484 200.364C156.819 197.516 157.154 194.723 157.489 191.874C158.383 184.557 159.165 177.184 160.282 169.866C160.561 168.023 160.841 166.236 161.176 164.392C161.79 160.761 162.516 157.131 163.41 153.5C163.857 151.713 164.304 149.925 164.806 148.138C167.599 138.027 171.398 128.532 176.313 119.65C178.771 115.238 181.508 110.937 184.58 106.803C187.652 102.67 191.004 98.7596 194.69 94.9613C197.595 92.0009 200.667 89.2639 203.851 86.8062C207.035 84.3484 210.386 82.1142 213.849 80.1033C215.581 79.0979 217.368 78.1483 219.156 77.1987C222.731 75.3554 226.417 73.6797 230.216 72.1715C232.115 71.3895 234.014 70.6633 235.969 69.993C236.918 69.6579 237.868 69.3228 238.873 68.9876C245.632 66.7533 252.447 65.301 259.317 64.4632C260.434 64.3515 261.552 64.1839 262.669 64.0721C264.903 63.8487 267.193 63.737 269.428 63.6253C270.545 63.6253 271.718 63.5695 272.835 63.5136C275.125 63.5136 277.415 63.5136 279.705 63.6253C280.822 63.6253 281.995 63.7371 283.113 63.7929C285.403 63.9046 287.693 64.128 289.983 64.3514C292.944 64.6307 295.904 64.9659 298.809 65.301C300.764 65.5244 302.774 65.7479 304.729 65.9155C313.611 66.865 322.66 67.5912 332.044 67.5354C334.111 67.5354 336.233 67.4795 338.356 67.3678C336.959 69.6021 335.451 70.8309 333.999 71.6688L334.055 71.8363ZM339.808 65.3569C339.249 65.5245 338.635 65.6921 337.909 65.6921C333.999 65.8596 330.089 66.2506 326.235 65.9714C323.553 65.7479 320.928 65.5803 318.247 65.301C312.047 64.7424 305.847 64.1839 299.646 63.5694C297.859 63.4019 296.127 63.2343 294.34 63.0667C291.38 62.7875 288.419 62.5081 285.403 62.3406C282.442 62.1171 279.426 62.0054 276.466 61.8937C274.957 61.8937 273.505 61.8937 271.997 61.8937C267.528 61.8937 263.06 62.173 258.591 62.7874C257.083 63.0109 255.575 63.2343 254.067 63.4577C252.559 63.737 251.106 64.0163 249.598 64.3514C243.677 65.6362 237.924 67.4237 232.226 69.5462C229.378 70.6075 226.585 71.7805 223.792 73.0094C203.683 81.9466 188.769 95.7992 177.877 113.394C176.983 114.847 176.09 116.355 175.252 117.863C172.682 122.443 170.392 127.191 168.27 132.162C165.086 139.815 162.684 147.635 160.952 155.678C160.617 157.298 160.282 158.918 160.003 160.482C159.388 163.722 158.886 166.962 158.495 170.257C157.992 174.335 157.433 178.412 156.931 182.49C156.428 186.568 155.925 190.645 155.422 194.723C154.417 202.878 153.412 211.033 152.239 219.188C151.624 223.713 150.898 228.237 150.116 232.762C149.725 234.996 149.334 237.286 148.887 239.521C147.602 246.223 146.038 252.926 144.251 259.517C143.022 263.93 141.681 268.287 140.173 272.644C138.944 276.107 137.548 279.57 136.207 282.978C133.135 290.854 128.499 297.556 122.411 303.254C121.573 304.092 120.679 304.874 119.729 305.656C119.338 305.991 118.947 306.27 118.501 306.549C118.054 306.829 117.607 307.052 117.104 307.22C109.172 310.627 101.241 313.979 93.2531 317.274C92.9179 317.386 92.5827 317.498 92.1917 317.609C92.08 317.609 91.9125 317.665 91.7449 317.721C91.4656 317.777 91.1305 317.889 90.7395 318C90.3485 318.112 89.9575 318.224 89.4547 318.335C90.0692 317.553 90.5719 316.827 90.9629 316.213C91.5773 315.375 92.0242 314.761 92.5269 314.09C92.6386 313.923 92.7503 313.755 92.8621 313.643C93.2531 313.141 93.644 312.582 94.0909 312.023C100.124 303.98 105.318 295.434 109.452 286.273C110.401 284.206 111.239 282.084 112.021 279.961C112.412 278.9 112.747 277.839 113.082 276.777C114.814 271.415 115.987 265.885 116.601 260.244C116.769 258.624 117.104 256.948 117.886 255.552C124.813 242.76 128.946 229.075 132.409 215.055C132.688 213.882 133.024 212.653 133.303 211.48C133.582 210.307 133.917 209.078 134.197 207.905C134.811 205.503 135.37 203.101 135.872 200.7C136.71 196.678 137.492 192.6 137.604 188.523C137.604 187.741 137.66 186.959 137.716 186.177C137.939 183.886 138.442 181.708 139.28 179.585C139.782 178.357 140.229 177.128 140.676 175.899C142.854 169.699 144.418 163.331 145.759 156.963C146.318 154.394 146.82 151.824 147.323 149.255C148.72 142.217 150.284 135.179 152.239 128.252C152.63 126.856 153.021 125.515 153.467 124.119C154.305 121.382 155.255 118.645 156.204 115.964C162.963 97.7542 172.738 81.6114 187.485 68.5966C189.998 66.3623 192.624 64.2956 195.249 62.3965C197.036 61.1118 198.824 59.8829 200.667 58.7657C204.354 56.4755 208.152 54.4089 212.062 52.6214C214.017 51.7277 216.028 50.8898 218.039 50.1078C223.122 48.1528 228.372 46.6446 233.79 45.4158C238.147 44.4662 242.504 43.6283 246.861 42.958C253.396 41.9526 259.988 41.2824 266.579 41.0031C268.757 40.8914 270.992 40.8355 273.17 40.8355C277.583 40.8355 281.995 40.8913 286.464 41.1706C297.747 41.8409 309.03 42.4554 320.37 42.8464C321.878 42.8464 323.33 42.9022 324.838 42.8464C327.072 42.8464 329.363 42.7904 331.764 42.6787C334.11 42.6229 336.568 42.5112 339.138 42.4553C342.098 45.9185 343.718 50.3312 344.444 55.0233C344.5 55.4701 344.556 55.917 344.556 56.3639C344.556 57.2576 344.444 58.2071 344.277 59.1008C344.165 59.5477 344.053 59.9946 343.941 60.4414C343.718 61.1676 343.439 61.8937 343.104 62.5081C342.322 63.8487 341.204 64.7983 339.752 65.301L339.808 65.3569ZM349.751 218.183C350.142 217.736 350.533 217.345 350.979 216.954C351.203 216.787 351.37 216.563 351.594 216.396C351.706 216.284 351.761 216.228 351.873 216.172C352.376 215.781 352.879 215.334 353.437 215.111C353.661 214.999 353.884 214.943 354.107 214.887C354.331 214.887 354.554 214.832 354.834 214.832C355.057 214.832 355.336 214.831 355.56 214.887C355.783 214.887 356.062 214.999 356.286 215.111C356.509 215.223 356.733 215.334 356.9 215.446C357.571 215.949 357.571 216.842 357.291 217.569C357.18 217.792 357.068 218.015 356.9 218.183C356.621 218.462 356.342 218.742 356.062 219.077C355.225 219.915 354.219 220.697 353.214 221.255C352.655 221.534 352.097 221.814 351.426 221.925C350.812 222.093 350.086 222.149 349.36 222.205C348.466 222.205 347.405 222.205 346.232 221.981C347.684 220.473 348.801 219.244 349.806 218.183H349.751ZM345.673 227.455C345.673 227.455 345.114 226.953 344.835 226.729C345.17 226.506 345.45 226.338 345.785 226.171C346.399 225.891 347.014 225.668 347.628 225.556C348.242 225.444 348.801 225.444 349.415 225.389C350.309 225.389 351.147 225.389 351.985 225.389C352.711 226.562 353.046 227.623 353.046 228.628C353.046 229.634 352.543 230.583 351.594 231.589C349.192 230.863 347.684 229.131 345.785 227.455H345.673ZM394.213 218.574C394.325 217.624 394.604 216.731 394.995 215.949C395.945 213.938 397.62 212.374 399.575 211.033C399.855 210.81 400.246 210.754 400.637 210.754C400.804 210.754 401.028 210.754 401.195 210.754C401.363 210.754 401.53 210.754 401.642 210.754C401.81 210.866 401.977 211.033 402.145 211.145C403.094 212.094 402.927 213.212 402.927 214.273C402.927 215.222 402.927 216.228 402.871 217.178C402.815 219.133 402.759 221.088 402.704 223.043C402.704 223.992 402.704 224.998 402.704 225.947C402.704 227.12 402.815 228.293 402.871 229.466C402.983 231.812 403.15 234.158 403.374 236.504C403.485 237.677 403.597 238.85 403.709 240.023C403.821 240.973 403.821 241.867 403.765 242.76C403.653 244.213 403.262 245.609 402.424 247.061C398.849 253.15 395.945 259.517 393.934 266.22C393.487 267.784 393.04 269.348 392.649 270.912C391.979 273.817 390.471 276.163 388.125 278.006C386.672 279.123 385.276 280.297 383.935 281.525C378.07 286.776 373.099 292.753 368.519 299.176C366.117 302.528 363.659 305.823 359.693 307.555C359.191 307.778 358.632 307.89 357.627 308.058C357.459 308.058 357.291 308.114 357.068 308.169C356.9 308.169 356.677 308.281 356.453 308.337C356.733 308.002 356.956 307.722 357.18 307.387C359.47 304.427 361.369 301.913 363.268 299.511C363.715 299.009 364.106 298.45 364.553 297.947C368.295 293.535 372.205 289.345 376.004 284.988C378.573 282.084 381.198 279.179 383.6 276.107C384.606 274.822 385.499 273.37 386.281 271.918C386.449 271.583 386.617 271.248 386.784 270.912C389.521 265.159 392.202 259.406 394.772 253.597C395.721 251.474 396.447 249.351 397.285 247.173C397.565 246.447 397.844 245.721 398.123 245.05C398.235 244.771 398.402 244.548 398.57 244.324C398.738 244.101 398.905 243.933 399.017 243.766C398.067 241.308 396.95 238.962 396.28 236.504C394.828 231.142 394.157 225.612 394.101 220.082C394.101 219.579 394.101 219.077 394.213 218.574ZM288.419 259.685C288.698 258.568 289.313 257.507 289.816 256.11C294.117 258.065 298.418 259.964 302.719 261.808C305.623 263.037 308.528 264.154 311.432 265.271C315.845 266.891 320.37 268.399 325.062 269.572C324.112 269.851 322.492 270.075 320.425 270.298C317.633 270.577 314.058 270.857 310.203 271.024C309.254 271.024 308.248 271.08 307.243 271.136C306.238 271.136 305.232 271.192 304.227 271.248C302.719 271.248 301.21 271.303 299.758 271.303C298.753 271.303 297.803 271.303 296.854 271.303C292.553 271.303 288.698 271.192 286.017 270.968C286.799 267.17 287.525 263.372 288.363 259.629L288.419 259.685ZM433.146 403.183C433.034 403.63 432.922 404.077 432.755 404.524C432.699 404.747 432.587 404.97 432.531 405.194C432.42 405.641 432.252 406.087 432.14 406.534C429.962 416.7 427.448 426.755 424.655 436.753C423.929 439.267 423.259 441.725 422.477 444.238C421.025 449.209 419.461 454.181 417.841 459.096C417.059 461.554 416.221 464.012 415.383 466.469C410.077 482.054 405.161 497.75 400.469 513.501C395.777 529.253 391.309 545.061 386.84 560.924C385.444 565.784 384.047 570.588 382.651 575.447C381.254 580.307 379.802 585.111 378.35 589.915C377.959 591.311 377.512 592.707 377.065 594.048C375.724 598.181 374.104 602.203 371.703 605.778C369.636 608.85 367.402 611.531 364.888 613.822C361.369 617.005 357.291 619.296 352.711 620.636C351.37 621.027 350.03 621.306 348.578 621.53C347.181 621.753 345.673 621.865 344.165 621.921C343.159 621.921 342.154 621.921 341.093 621.921C338.076 621.865 335.116 621.53 332.155 620.915C331.206 620.748 330.2 620.524 329.251 620.245C327.352 619.742 325.397 619.128 323.553 618.458C322.604 618.122 321.654 617.732 320.761 617.341C319.755 616.894 318.806 616.447 317.856 615.944C311.265 612.369 306.461 607.063 303.165 600.025C298.027 589.188 294.005 578.017 292.999 565.952C292.664 561.874 292.273 557.74 291.994 553.663C291.715 549.585 291.491 545.452 291.491 541.318C291.38 519.925 291.603 498.532 291.771 477.138C291.826 470.044 291.882 462.95 291.771 455.857C291.771 445.188 291.547 434.575 291.156 423.906C291.044 420.387 290.877 416.812 290.709 413.293C290.374 406.199 289.983 399.105 289.48 392.011C288.642 380.17 287.693 368.328 286.799 356.486C286.52 352.52 286.185 348.61 285.905 344.644C285.85 343.527 285.738 342.41 285.682 341.237C285.57 338.388 285.459 335.595 285.291 332.747C285.291 332.188 285.235 331.63 285.179 331.071C285.124 330.345 285.068 329.674 285.012 328.948C284.956 328.222 284.9 327.552 284.844 326.826C284.453 322.636 283.95 318.447 282.331 314.314C282.051 313.643 281.828 312.973 281.604 312.303C281.381 311.633 281.213 310.962 280.99 310.236C280.264 307.499 279.761 304.594 279.37 301.746C279.147 300.293 278.979 298.897 278.756 297.445C278.197 293.591 278.476 289.736 279.37 285.994C279.649 284.765 280.04 283.48 280.487 282.251C280.711 281.693 280.934 281.079 281.158 280.576C282.945 276.889 285.85 274.543 290.318 274.264C292.832 274.096 295.345 273.873 297.859 273.817C298.194 273.817 298.585 273.817 298.92 273.817C305.623 273.761 312.27 273.649 318.973 273.649C325.676 273.649 332.323 273.538 339.026 273.538C339.417 273.538 339.808 273.538 340.199 273.538C341.763 273.482 343.215 273.258 344.668 272.812C345.729 272.476 346.846 272.085 347.907 271.527C351.538 269.628 355.392 268.008 359.135 266.22C359.693 265.941 360.196 265.718 360.755 265.438C362.877 264.377 364.944 263.316 367.011 262.199C369.077 261.081 371.2 259.964 373.322 258.847C373.546 259.015 373.713 259.182 373.937 259.35C374.272 259.629 374.663 259.964 375.054 260.299C375.501 260.635 375.948 261.026 376.506 261.528C376.395 260.914 376.227 260.411 376.115 259.908C376.004 259.406 375.892 258.959 375.78 258.512C375.668 258.065 375.557 257.618 375.501 257.227C375.389 256.78 375.277 256.389 375.222 255.943C375.668 254.825 376.227 253.764 376.841 252.759C378.35 250.189 380.193 247.732 381.869 245.218C382.204 244.715 382.539 244.213 382.874 243.71C382.986 243.71 383.042 243.766 383.153 243.822C383.88 244.101 384.55 244.38 385.164 244.659C385.388 244.771 385.611 244.827 385.835 244.939C385.946 244.492 386.226 243.989 386.058 243.822C383.321 240.414 382.651 236.504 382.818 232.259C382.818 231.03 382.818 229.801 382.818 228.572C382.818 227.344 382.818 226.115 382.93 224.886C383.042 223.489 383.209 222.205 383.433 221.088C383.544 220.529 383.712 219.97 383.88 219.412C384.773 216.675 386.393 214.273 389.018 211.257C389.8 211.312 390.08 211.704 390.247 212.15C390.359 212.597 390.359 213.1 390.359 213.547C390.918 218.909 391.476 224.271 392.091 229.634C392.258 231.421 392.482 233.209 392.649 234.996C392.649 235.443 392.761 235.89 392.873 236.337C393.04 237.23 393.264 238.124 393.543 239.018C393.655 239.465 393.822 239.911 393.934 240.358C394.995 243.71 394.716 246.782 393.04 249.854C392.202 251.362 391.42 252.926 390.638 254.49C389.856 256.054 389.13 257.618 388.348 259.182C387.287 261.417 386.058 263.595 385.276 265.885C384.271 269.013 382.762 271.862 380.863 274.487C380.528 274.934 380.193 275.325 379.858 275.772C379.523 276.163 379.187 276.61 378.796 277.001C376.674 279.403 374.495 281.749 372.317 284.151C371.032 285.603 369.748 286.999 368.463 288.452C364.832 292.641 361.201 296.886 357.794 301.243C353.828 306.326 348.801 310.236 343.718 314.09C343.271 314.425 342.768 314.761 342.21 315.04C341.651 315.319 341.093 315.543 340.534 315.766C339.361 316.213 338.132 316.548 336.959 316.827C334.222 317.498 331.373 317.889 328.636 318.28C328.245 318.335 327.854 318.391 327.463 318.447C327.128 319.397 327.128 320.067 327.408 320.514C327.575 320.737 327.743 320.849 328.022 320.961C328.301 321.072 328.636 321.072 329.027 321.072C329.53 321.072 330.033 321.017 330.536 320.961C332.044 320.793 333.608 320.57 335.116 320.458C335.674 320.458 336.233 320.402 336.736 320.458C337.462 320.458 338.132 320.57 338.635 320.737C340.311 321.24 341.149 322.413 341.595 324.647C341.595 324.871 341.707 325.15 341.707 325.429C341.707 325.709 341.763 325.988 341.819 326.267C341.931 327.273 341.986 328.334 342.098 329.339C342.377 332.411 342.657 335.484 342.88 338.556C343.159 341.684 343.439 344.812 343.718 347.94C344.556 357.324 345.394 366.708 346.176 376.036C346.623 381.343 346.79 386.705 347.125 392.067C347.181 393.073 347.293 394.134 347.349 395.14C347.572 398.212 347.851 401.284 348.075 404.356C349.36 419.047 350.086 433.793 351.873 448.427C352.097 450.494 352.376 452.617 352.711 454.683C354.443 466.805 357.682 478.367 362.319 489.65C363.994 493.784 365.67 497.973 367.29 502.107C367.848 503.503 368.351 504.899 368.91 506.296C370.585 510.597 371.758 515.01 372.652 519.422C372.931 520.931 373.211 522.383 373.434 523.891C374.328 529.868 374.775 535.9 374.942 541.989C375.222 549.976 375.501 558.02 374.216 566.008C374.16 566.454 374.104 566.957 374.16 567.404C374.16 567.572 374.216 567.683 374.272 567.851C374.328 568.018 374.495 568.186 374.607 568.353C374.831 568.577 375.054 568.744 375.333 568.856C375.389 568.856 375.445 568.912 375.501 568.968C375.501 568.968 375.557 568.968 375.613 568.968C375.724 568.968 375.892 568.968 376.004 568.856C376.227 568.744 376.395 568.577 376.45 568.465C376.674 567.795 376.897 567.125 377.121 566.398C377.344 565.728 377.456 565.002 377.512 564.332C377.679 562.097 377.791 559.807 377.903 557.573C378.014 555.339 378.07 553.049 378.07 550.814C378.07 538.693 378.014 526.516 377.679 514.395C377.623 512.105 377.512 509.759 377.344 507.469C377.065 503.615 376.73 499.761 376.227 495.962C376.115 495.124 376.004 494.342 375.892 493.504C374.942 487.807 373.211 482.333 370.585 477.138C369.077 474.178 367.625 471.273 366.173 468.313C365.447 466.86 364.72 465.352 363.994 463.9C363.268 462.448 362.486 460.94 361.76 459.487C361.034 458.035 360.308 456.527 359.582 455.074C357.068 449.768 355.225 444.35 354.107 438.764C353.437 435.413 352.99 431.949 352.879 428.375C352.823 426.14 352.655 423.962 352.543 421.783C352.152 416.254 351.65 410.78 351.203 405.25C351.091 404.133 351.035 403.071 350.924 401.954C350.812 400.222 350.7 398.491 350.588 396.704C350.253 391.453 349.974 386.258 349.527 381.007C348.689 371.344 347.796 361.625 346.958 351.962C346.678 348.722 346.343 345.482 346.12 342.298C346.12 341.628 346.008 340.958 345.952 340.287C345.617 335.651 345.338 330.903 345.003 325.82C345.673 325.932 346.232 326.044 346.678 326.155C347.181 326.267 347.628 326.323 348.019 326.491C357.012 329.451 365.949 332.412 374.942 335.428C376.562 335.986 378.126 336.545 379.746 337.159C386.617 339.729 393.264 342.801 399.408 346.99C401.866 348.666 404.156 350.453 406.334 352.408C407.06 353.079 407.787 353.693 408.457 354.419C410.524 356.43 412.534 358.609 414.322 360.955C414.936 361.737 415.551 362.519 416.109 363.301C418.735 366.931 421.081 370.674 423.259 374.472C425.438 378.271 427.448 382.236 429.403 386.202C430.13 387.655 430.632 389.219 431.023 390.727C431.917 394.134 432.252 397.653 432.867 401.116C432.922 401.563 432.922 401.954 432.867 402.401C432.867 402.624 432.811 402.848 432.755 403.071L433.146 403.183Z" fill="#131039"/>
<path d="M232.227 535.119C227.926 539.252 223.736 543.442 219.268 547.463C199.159 565.617 175.475 573.66 148.496 571.482C130.566 570.03 116.155 561.595 104.592 548.022C96.046 538.023 90.2927 526.461 86.9413 513.781C82.5285 497.024 80.4618 479.932 81.579 462.504C81.7465 460.27 81.8582 457.98 81.9141 455.745C81.9141 455.187 82.1934 454.125 80.6852 454.125C79.8474 458.203 79.5681 462.225 79.5122 466.302C79.2329 477.027 80.2384 487.64 81.8024 498.253C84.316 514.954 89.5107 530.594 99.5092 544.391C100.906 546.346 101.464 548.357 101.52 550.703C101.688 561.372 102.135 572.096 102.023 582.765C101.744 599.802 99.7326 616.727 97.1073 633.54H98.8948C99.0623 633.149 99.1182 632.702 99.174 632.311C100.515 620.469 101.967 608.627 103.028 596.785C103.699 589.356 104.481 582.095 107.385 575.169C109.564 569.974 112.412 565.338 117.607 563.159C122.858 565.561 127.55 568.186 132.521 569.918C144.586 574.051 156.931 574.945 169.61 572.878C184.636 570.421 198.6 565.449 211.112 556.624C219.435 550.759 226.25 543.386 233.4 536.292C233.567 536.124 233.4 535.566 233.288 534.784C232.673 535.063 232.45 535.119 232.338 535.23L232.227 535.119Z" fill="#131039"/>
<path d="M346.567 127.024C346.567 127.024 346.79 127.024 346.958 127.024C347.851 126.968 348.969 126.633 349.304 126.018C349.583 125.515 349.862 125.068 350.142 124.566C350.924 123.058 351.594 121.494 351.985 119.93C352.32 118.589 352.488 117.193 352.152 115.908C352.097 115.629 351.985 115.405 351.873 115.182C351.65 114.679 351.37 114.232 350.924 113.841C345.785 113.171 340.925 112.668 336.066 111.774C333.329 111.272 330.592 110.992 327.91 110.937C327.24 110.937 326.57 110.937 325.899 110.937C324.559 110.937 323.218 110.937 321.878 111.048C321.207 111.048 320.537 111.16 319.867 111.216C314.505 111.719 309.254 112.892 304.003 114.623C303.389 114.847 302.774 115.07 302.16 115.349C301.546 115.629 300.931 115.908 300.373 116.187C299.2 116.802 298.027 117.416 296.854 118.086C296.518 118.254 296.295 118.533 296.016 118.868C295.736 119.203 295.401 119.65 295.01 120.153C295.345 120.321 295.625 120.432 295.792 120.544C295.848 120.544 295.904 120.6 295.96 120.6C296.127 120.712 296.239 120.712 296.351 120.767C296.686 120.767 297.021 120.823 297.3 120.823C297.803 120.823 298.25 120.879 298.753 120.823C300.652 120.712 302.495 120.656 304.394 120.6C307.69 120.6 310.93 120.6 314.169 120.879C323.944 121.549 333.496 123.337 342.992 126.242C343.159 126.242 343.271 126.353 343.439 126.353C344.165 126.577 344.947 126.8 345.673 126.912C345.952 126.912 346.287 126.968 346.567 126.968V127.024ZM301.099 118.533C303.221 116.466 305.679 115.573 309.421 115.517C307.355 120.712 303.724 117.863 301.099 118.533ZM321.543 119.371C318.135 119.818 314.784 119.427 311.153 118.589C310.986 115.964 311.544 114.456 313.778 113.953C316.515 113.338 319.308 112.836 322.213 113.45C323.162 115.629 323.107 117.472 321.598 119.371H321.543ZM330.536 120.935C328.636 120.767 326.681 120.544 324.335 120.321C324.559 117.863 324.782 115.74 324.95 113.562C327.519 112.389 329.754 113.059 331.988 113.506C332.937 116.466 332.267 118.645 330.48 120.935H330.536ZM341.986 123.951C339.194 123.225 336.457 122.499 333.384 121.661C333.831 118.98 334.278 116.466 334.781 113.618C337.909 113.785 340.813 114.232 343.606 115.405C344.109 118.533 344.165 121.326 341.986 123.951ZM346.455 115.852C348.466 115.182 349.751 115.293 350.03 117.193C350.365 119.874 349.918 122.443 348.019 124.51C347.572 124.957 346.455 125.292 345.952 125.013C345.45 124.789 344.947 123.728 345.059 123.113C345.394 120.767 345.952 118.421 346.455 115.852Z" fill="#131039"/>
<path d="M272.891 349.559C272.891 349.559 272.388 349.559 272.165 349.559C272.165 349.559 272.053 349.559 271.997 349.559C271.885 349.559 271.83 349.559 271.774 349.615C267.361 352.352 262.948 355.089 258.535 357.882C256.357 359.278 254.123 360.619 251.944 362.015C251.665 362.183 251.33 362.406 251.051 362.63C250.771 362.853 250.436 363.077 250.157 363.3C249.598 363.747 249.096 364.25 248.705 364.808C248.425 365.255 248.09 365.59 247.755 365.925C246.75 366.875 245.521 367.378 244.18 367.713C243.007 367.992 241.778 368.327 240.605 368.607C238.594 369.109 236.583 369.5 234.573 369.556C234.182 369.556 233.791 369.556 233.4 369.556C233.009 369.556 232.618 369.556 232.227 369.556C231.445 369.556 230.718 369.444 229.992 369.277C227.088 368.774 224.462 367.601 222.284 365.59C221.725 365.088 221.223 364.529 220.776 363.914C220.329 363.3 219.882 362.63 219.435 361.904C218.821 360.731 217.983 359.837 217.089 359.055C216.195 358.273 215.19 357.659 214.073 357.044C212.397 356.039 210.721 355.089 208.99 354.139C203.907 351.235 198.824 348.33 193.964 345.09C188.825 341.683 183.631 338.332 178.38 335.148C169.61 329.786 160.673 324.758 151.513 320.066C151.345 320.011 151.233 319.899 151.066 319.787C150.34 319.34 149.613 318.726 148.664 318.67C148.273 318.67 147.882 318.726 147.435 319.005C147.658 319.508 147.994 319.955 148.385 320.29C149.446 321.351 150.954 321.742 152.239 322.412C155.478 324.088 158.662 325.82 161.846 327.607C171.398 332.914 180.782 338.555 189.887 344.588C195.64 348.386 201.617 351.905 207.593 355.424C209.604 356.597 211.559 357.77 213.57 358.943C213.794 359.055 214.017 359.223 214.24 359.334C214.464 359.446 214.687 359.613 214.855 359.781C215.693 360.34 216.419 361.01 217.033 361.792C217.313 362.183 217.592 362.63 217.871 363.133C219.715 366.819 223.01 368.942 226.808 370.282C227.758 370.617 228.708 370.897 229.657 371.064C231.109 371.343 232.506 371.511 233.902 371.567C239.041 371.679 243.957 370.115 248.76 367.657C248.872 367.657 248.928 367.545 249.04 367.489C249.487 367.21 249.933 366.875 250.157 366.484C250.66 365.702 251.218 365.032 251.833 364.417C252.168 364.138 252.447 363.803 252.782 363.524C254.123 362.406 255.575 361.513 257.083 360.619C257.474 360.395 257.809 360.172 258.2 359.949C262.557 357.212 266.97 354.586 271.327 351.905C272.109 351.458 273.226 351.123 272.779 349.727L272.891 349.559Z" fill="#131039"/>
<path d="M337.853 131.381C337.239 131.157 336.736 131.102 336.289 131.102C335.842 131.102 335.395 131.157 335.06 131.269C334.669 131.381 334.334 131.548 334.055 131.716C333.72 131.884 333.44 132.051 333.161 132.163C330.815 133.28 328.469 134.453 326.123 135.57C322.213 137.413 318.191 139.145 313.834 139.983C313.667 139.983 313.499 140.095 313.332 140.206C312.997 140.43 312.717 140.709 312.382 141.044C312.214 141.212 312.047 141.379 311.823 141.547C312.717 142.943 313.499 144.34 314.337 145.736C314.616 146.183 314.84 146.686 315.119 147.133C316.404 149.479 317.689 151.881 319.085 154.171C321.04 157.355 323.33 160.371 326.291 162.94C326.57 162.27 326.57 161.656 326.626 161.097C326.626 160.092 326.626 159.198 327.519 158.248C328.469 157.187 329.307 156.126 329.977 155.009C330.424 154.282 330.815 153.5 331.15 152.718C331.318 152.327 331.485 151.936 331.597 151.545C331.876 150.763 332.1 149.926 332.267 149.144C332.379 148.753 332.435 148.306 332.491 147.915C332.602 147.077 332.714 146.239 332.714 145.345C332.714 144.061 332.714 142.72 332.547 141.435C332.435 140.542 332.323 139.648 332.1 138.754C331.988 138.196 331.876 137.581 331.82 137.022C331.709 136.464 331.653 135.905 331.541 135.403C332.1 135.067 332.602 134.732 333.105 134.453C334.613 133.503 336.121 132.61 337.909 131.493L337.853 131.381ZM324.782 157.857C320.426 154.506 318.024 149.981 317.186 144.619C317.018 143.334 317.521 142.161 318.694 141.491C321.822 139.592 325.118 137.972 328.916 136.352C332.379 145.289 330.983 152.216 324.782 157.857Z" fill="#131039"/>
<path d="M241.331 431.055C241.331 431.055 240.772 430.72 240.381 430.608C240.381 431.223 240.381 431.837 240.381 432.396C240.381 433.01 240.381 433.569 240.381 434.127C240.661 437.814 241.275 441.445 241.331 445.131C241.443 454.515 241.219 463.955 241.219 473.34C241.219 474.233 241.387 475.127 241.554 476.747C241.554 476.97 241.554 477.249 241.61 477.473C241.778 476.914 241.89 476.3 242.057 475.685C244.068 466.078 244.068 446.863 242.225 433.122C242.113 432.396 242.113 431.558 241.387 431.055H241.331Z" fill="#131039"/>
<path d="M248.593 578.967C248.425 578.241 248.146 577.515 247.922 576.789C247.811 577.235 247.699 577.738 247.643 578.185C247.252 580.196 247.252 582.151 247.252 584.106C247.252 585.558 247.14 587.066 247.085 588.519C247.085 589.524 246.973 590.474 246.917 591.479C246.861 592.54 246.749 593.602 246.694 594.663C246.582 596.283 246.414 597.847 246.303 599.467C246.135 601.869 246.079 604.326 245.912 606.728C247.922 601.757 248.928 591.982 248.872 584.329C248.872 582.542 248.816 580.922 248.649 579.47C248.649 579.302 248.649 579.134 248.537 578.967H248.593Z" fill="#131039"/>
<path d="M142.855 528.695C143.246 528.918 143.692 529.086 144.195 529.198C144.363 529.198 144.53 529.198 144.698 529.198C145.368 529.198 146.094 528.919 146.653 528.472C147.1 528.137 147.435 527.69 147.658 527.187C147.714 527.019 147.77 526.852 147.826 526.684C147.938 526.349 147.938 526.07 147.938 525.735C147.938 525.176 147.826 524.562 147.602 524.059C147.156 522.942 146.262 521.936 145.145 521.378C144.586 521.098 143.916 520.875 143.246 520.875C142.855 521.266 142.017 521.713 141.682 522.383C141.682 522.495 141.626 522.551 141.57 522.662C141.291 524.003 141.346 525.511 141.57 526.852C141.57 527.019 141.626 527.187 141.682 527.299C141.905 527.857 142.296 528.36 142.799 528.639L142.855 528.695Z" fill="#131039"/>
<path d="M294.34 148.473C294.396 148.864 294.452 149.255 294.508 149.646C294.787 151.992 295.122 154.505 297.021 156.963C297.356 157.354 297.692 157.801 298.083 158.192C298.027 157.913 297.971 157.633 297.915 157.354C297.301 154.226 296.63 151.545 296.183 148.975C296.016 148.138 295.904 147.3 295.848 146.462C295.681 144.73 295.681 142.999 295.737 141.155C295.737 140.206 295.792 139.256 295.848 138.251C295.848 137.245 295.904 136.184 295.96 135.067C293.949 139.48 293.502 142.719 294.34 148.417V148.473Z" fill="#131039"/>
<path d="M355.672 195.951C356.454 196.063 357.236 195.895 357.906 195.504C358.744 195.057 359.414 194.275 359.582 193.382C359.582 193.326 359.582 193.27 359.638 193.158C359.582 193.046 359.526 192.935 359.47 192.767C359.358 192.6 359.302 192.376 359.191 192.265C359.191 192.265 359.135 192.153 359.079 192.153C358.576 191.929 358.073 191.762 357.515 191.762C355.951 191.762 354.499 192.655 354.163 194.219C354.163 194.443 354.163 194.778 354.331 195.057C354.499 195.337 354.666 195.616 354.89 195.672C355.169 195.783 355.392 195.839 355.672 195.895V195.951Z" fill="#131039"/>
<path d="M343.16 188.523C343.495 187.909 344.221 187.406 344.388 186.68C344.388 186.624 344.388 186.512 344.388 186.456C344.388 186.177 344.333 185.898 344.165 185.562C343.383 186.177 342.713 186.736 342.266 187.238C341.819 187.741 341.484 188.244 341.372 188.691C341.372 188.802 341.316 188.97 341.316 189.082C341.204 190.199 341.931 191.428 343.551 193.215C343.383 191.874 343.271 190.478 343.104 189.137C343.104 189.082 343.104 188.97 343.104 188.914C343.104 188.746 343.16 188.635 343.215 188.467L343.16 188.523Z" fill="#131039"/>
<path d="M225.747 152.886C222.563 155.679 225.244 159.421 223.401 162.773C221.893 161.655 220.72 160.538 219.323 159.756C217.703 158.918 215.86 158.472 214.184 157.745C208.431 155.288 205.247 150.372 205.359 144.228C205.471 139.648 207.984 137.413 212.453 137.972C213.849 138.139 215.19 138.698 216.586 138.977C216.866 138.977 217.368 138.642 217.536 138.363C217.703 138.028 217.648 137.525 217.536 137.19C217.257 136.687 216.81 136.129 216.307 135.905C212.732 134.174 209.101 134.174 205.806 136.464C202.566 138.698 202.007 142.161 202.398 145.792C203.18 152.886 206.644 158.304 213.57 160.65C217.592 161.991 220.664 163.778 221.669 168.135C221.669 168.302 221.837 168.526 221.949 168.693C222.507 169.587 223.177 170.537 224.35 170.146C225.021 169.922 225.803 169.196 226.026 168.582C227.367 164.225 227.869 159.756 227.255 155.176C227.143 154.45 226.473 153.835 225.914 152.886H225.747Z" fill="#131039"/>
<path d="M217.369 128.029C222.228 131.772 223.625 136.855 223.178 142.72C223.066 143.948 223.122 145.177 223.289 146.35C223.345 146.797 224.016 147.412 224.518 147.468C224.909 147.468 225.747 146.965 225.803 146.63C226.138 145.066 226.25 143.39 226.417 141.77C226.529 135.737 224.798 130.431 220.161 126.409C219.435 125.795 218.43 125.404 217.48 125.013C217.257 124.901 216.698 125.236 216.475 125.515C216.251 125.795 216.084 126.297 216.196 126.577C216.419 127.135 216.81 127.638 217.313 127.973L217.369 128.029Z" fill="#131039"/>
</svg>
