<svg width="19" height="19" viewBox="0 0 19 19" fill="none" xmlns="http://www.w3.org/2000/svg">
<path d="M8.8688 1.03377C9.4033 0.966552 9.94602 1.00426 10.4735 1.10632C11.8591 1.26618 13.2073 1.76502 14.3503 2.5643C15.6133 3.43327 16.6301 4.65393 17.2571 6.05042C17.8414 7.35182 18.0922 8.80202 17.9697 10.2227C17.827 12.0893 17.031 13.8978 15.754 15.2697C14.5152 16.6178 12.8249 17.5474 11.0179 17.8639C9.74168 18.0955 8.41243 18.0307 7.16458 17.6761C5.38593 17.1777 3.78819 16.0747 2.68589 14.5983C2.33806 14.1224 2.00996 13.6272 1.7793 13.0833C1.12845 11.668 0.871068 10.0735 1.06102 8.52739C1.17162 7.52972 1.47916 6.55828 1.92691 5.66062C2.1185 5.24622 2.37177 4.86461 2.64889 4.50268C3.33305 3.57714 4.20634 2.7922 5.20174 2.21139C6.13012 1.66664 7.16581 1.30676 8.2307 1.14485C8.4445 1.11493 8.65418 1.06124 8.8688 1.03377ZM7.87587 1.38997C7.05069 1.72362 6.33898 2.32862 5.87685 3.08732C6.60747 3.0865 7.33685 3.27956 7.97085 3.64109C8.55674 3.97392 9.05506 4.45021 9.43126 5.00684C9.52377 5.07078 9.5653 4.94372 9.61587 4.88879C10.372 3.79439 11.672 3.10946 13.0029 3.08405C12.482 2.25033 11.672 1.58344 10.7243 1.29569C10.1323 1.17027 9.52213 1.19855 8.92102 1.20921C8.57113 1.2547 8.20767 1.25552 7.87587 1.38997ZM11.147 1.35308C11.9672 1.70394 12.6621 2.32862 13.1156 3.09306C14.0674 3.0779 15.0127 3.42179 15.7544 4.01163C14.5678 2.6512 12.9162 1.71378 11.147 1.35308ZM3.28124 3.96654C3.97445 3.4095 4.86994 3.09921 5.75926 3.09675C6.19755 2.37084 6.84141 1.75354 7.62301 1.40923C5.95538 1.78223 4.42014 2.69834 3.28124 3.96654ZM5.80407 3.1857C5.65565 3.49721 5.50393 3.80955 5.42006 4.14607C5.14993 5.11095 5.25354 6.17011 5.69347 7.06982C6.46151 5.84138 7.87012 5.02734 9.32724 5.02119C9.08795 4.6695 8.79233 4.35921 8.46505 4.08787C7.71799 3.49476 6.76124 3.15455 5.80407 3.1857ZM10.52 4.06614C10.1853 4.3461 9.87448 4.6572 9.63231 5.0216C11.0611 5.07611 12.4232 5.8922 13.1658 7.10589C13.787 5.88565 13.7422 4.36618 13.0593 3.18037C12.144 3.18365 11.2407 3.50623 10.52 4.06614ZM13.1571 3.19677C13.3269 3.42794 13.412 3.70749 13.5074 3.97515C13.8318 5.02898 13.7438 6.2152 13.2221 7.19197C13.2509 7.24771 13.2809 7.30264 13.3121 7.35756C14.3084 7.39527 15.2836 7.81213 16.0068 8.49501C16.2901 8.75037 16.5216 9.0541 16.7337 9.36848C17.4298 8.13226 17.4672 6.5095 16.6971 5.29745C16.4328 4.84452 16.1191 4.41168 15.7001 4.08787C15.0714 3.5878 14.2964 3.2685 13.4939 3.19963C13.3816 3.19103 13.2681 3.16971 13.1571 3.19677ZM3.2833 4.06655C3.12213 4.20428 2.95972 4.34446 2.83062 4.51456C2.49759 4.95151 2.20772 5.42165 1.96926 5.9168C1.82988 6.19675 1.76738 6.50581 1.72709 6.81364C1.62307 7.65432 1.77519 8.53231 2.181 9.27872C2.90216 8.13635 4.19236 7.37273 5.54793 7.31493C5.57712 7.2637 5.60631 7.21246 5.63509 7.16122C5.00603 5.93114 5.027 4.38668 5.7128 3.18406C4.83458 3.20742 3.97568 3.53001 3.2833 4.06655ZM7.77843 5.51224C6.96476 5.84753 6.26374 6.44966 5.80778 7.19975C5.75597 7.25099 5.81682 7.32354 5.87767 7.31329C6.78796 7.32026 7.68427 7.65063 8.40297 8.2044C8.67803 8.44049 8.96214 8.68274 9.15867 8.99016C9.11755 8.82292 9.04067 8.66716 8.99914 8.49993C8.6879 7.39814 8.83345 6.17093 9.41975 5.1835C8.85894 5.19088 8.29525 5.2909 7.77843 5.51224ZM9.54104 5.18801C9.90984 5.81719 10.1171 6.5427 10.1171 7.27272C10.1286 7.81992 10.0406 8.37737 9.82227 8.88112C10.5981 7.94493 11.7983 7.35018 13.0214 7.35961C13.0317 7.32518 13.0839 7.29157 13.0605 7.25468C12.3488 6.02214 10.9673 5.21302 9.54104 5.18801ZM9.47895 5.2663C9.0604 6.00902 8.8614 6.87881 8.95186 7.7281C9.00284 8.30564 9.18293 8.87006 9.46662 9.37545C9.52953 9.27052 9.5949 9.16723 9.65205 9.05902C10.2112 7.86419 10.1389 6.40744 9.47895 5.2663ZM17.2399 6.35661C17.4886 7.3756 17.3402 8.4905 16.8184 9.40292C16.788 9.44267 16.7909 9.49432 16.8213 9.53367C17.2025 10.1993 17.3817 10.9744 17.3525 11.7389C17.3583 12.0971 17.2699 12.4464 17.1983 12.7948C17.6041 11.7831 17.8611 10.7027 17.8541 9.6095C17.8821 8.49665 17.6416 7.39117 17.2399 6.35661ZM1.64486 6.67468C1.36938 7.43339 1.20657 8.23104 1.15353 9.03524C1.14695 9.35004 1.14654 9.66524 1.15312 9.98004C1.19094 10.7166 1.34102 11.4434 1.55851 12.1475C1.5137 11.8635 1.52891 11.5757 1.5285 11.2896C1.56139 10.6109 1.78506 9.9534 2.1185 9.36439C1.66213 8.55198 1.52439 7.59161 1.64486 6.67468ZM5.67415 7.43298C5.00808 8.67126 5.02905 10.2428 5.72226 11.4663C5.75104 11.4376 5.77694 11.4069 5.80079 11.3737C5.99526 11.0581 6.23784 10.7715 6.51126 10.5207C6.63995 10.4022 6.77316 10.2883 6.91789 10.1899C7.46924 9.79846 8.11311 9.53613 8.78411 9.44185C7.93672 9.30864 7.12182 8.9217 6.50961 8.31875H6.48988C6.23208 8.04782 5.98087 7.76663 5.7938 7.44077C5.78311 7.38257 5.69183 7.38297 5.67415 7.43298ZM5.87397 7.40429C6.11203 7.77237 6.39531 8.11299 6.72958 8.39827C7.44868 9.01721 8.38693 9.37627 9.33711 9.39554C8.62088 8.20276 7.27066 7.41864 5.87397 7.40429ZM2.24267 9.36111C2.24432 9.42095 2.28708 9.46768 2.31462 9.51768C3.00248 10.626 4.22895 11.3897 5.53888 11.4729C4.86007 10.2329 4.84527 8.66224 5.49818 7.40921C4.18126 7.48996 2.93218 8.24047 2.24267 9.36111ZM10.52 8.329C10.1611 8.6356 9.80829 8.96761 9.58832 9.39144C10.631 9.36438 11.6511 8.9172 12.3842 8.17939C12.6099 7.95723 12.8035 7.70638 12.9783 7.44364C12.0906 7.46659 11.2194 7.78508 10.52 8.329ZM13.0864 7.44446C12.4327 8.51427 11.2942 9.28241 10.0439 9.44677C11.3024 9.62672 12.4421 10.417 13.0827 11.5073C13.8104 10.2875 13.838 8.68397 13.1596 7.43749C13.1411 7.43954 13.1049 7.44282 13.0864 7.44446ZM13.3594 7.4502C13.9926 8.70077 13.9687 10.2534 13.2932 11.4827C14.0645 11.447 14.8272 11.1962 15.4608 10.7539C15.9509 10.4219 16.3555 9.97676 16.6737 9.48038C16.4981 9.14878 16.2515 8.86063 15.9817 8.60158C15.284 7.92034 14.3334 7.50799 13.3594 7.4502ZM1.75587 12.6259C1.87963 12.9948 2.06423 13.3403 2.25665 13.6773C2.44619 13.9974 2.64231 14.3224 2.92107 14.5741C3.65375 15.2742 4.65531 15.689 5.67086 15.7046C5.31028 15.0631 5.12156 14.3232 5.14459 13.5875C5.1339 12.9021 5.33372 12.2283 5.64372 11.6217C5.5471 11.543 5.41554 11.5671 5.30082 11.543C4.01145 11.386 2.82528 10.5908 2.17977 9.46891C1.61895 10.4055 1.46436 11.5753 1.75587 12.6259ZM7.86806 9.78042C7.02972 10.11 6.3028 10.7195 5.83779 11.4897C6.66379 11.4888 7.49309 11.2519 8.17684 10.7859C8.66898 10.4494 9.11796 10.0223 9.39672 9.49063C8.87456 9.49309 8.35404 9.58983 7.86806 9.78042ZM9.5324 9.50088C9.80294 9.90421 10.1204 10.2784 10.5011 10.5838C11.1955 11.1347 12.0684 11.461 12.9565 11.4823C12.2403 10.31 10.9168 9.51564 9.5324 9.50088ZM16.4591 9.94602C15.712 10.9027 14.5431 11.5216 13.3253 11.5733C13.2381 11.5552 13.2024 11.6294 13.1785 11.6975C13.8503 12.9448 13.8063 14.5343 13.0967 15.7574C13.5309 15.7394 13.9671 15.6894 14.3803 15.548C15.2939 15.2607 16.0932 14.636 16.6092 13.833C17.1075 13.0604 17.3377 12.1176 17.2448 11.2036C17.1942 10.6244 17.0096 10.0624 16.7313 9.55334C16.6466 9.6882 16.5532 9.81772 16.4591 9.94602ZM9.23555 10.0354C8.98023 10.6646 8.87949 11.3573 8.95556 12.032C9.0049 12.5738 9.18457 13.094 9.42304 13.5797C9.72935 13.0161 9.91642 12.3853 9.9415 11.7434C9.97892 11.006 9.80582 10.2616 9.4621 9.60827C9.37041 9.74149 9.29065 9.88331 9.23555 10.0354ZM9.88723 10.4223C10.1779 11.4843 10.048 12.6591 9.50486 13.6203C10.927 13.6043 12.3278 12.8148 13.035 11.5794C11.9011 11.5704 10.7827 11.081 10.0073 10.2563C9.90491 10.1424 9.78567 10.0382 9.72359 9.89478C9.75977 10.076 9.84488 10.2428 9.88723 10.4223ZM9.13688 10.051C8.32773 11.0269 7.06302 11.6167 5.7901 11.5749C6.51537 12.814 7.92028 13.6174 9.35931 13.6195C8.92267 12.8722 8.78 11.9778 8.86305 11.1232C8.91362 10.758 8.9794 10.3871 9.13688 10.051ZM5.25395 13.2169C5.15651 14.0757 5.35468 14.9565 5.77447 15.7095C6.44999 15.705 7.12963 15.55 7.72539 15.2283C8.36391 14.8954 8.90499 14.3884 9.2964 13.7867C7.84627 13.767 6.45452 12.9534 5.68813 11.7327C5.46775 12.2012 5.29918 12.6993 5.25395 13.2169ZM9.55296 13.7863C9.80294 14.1794 10.1187 14.5282 10.476 14.8266C11.1861 15.3972 12.0877 15.739 13.0025 15.7423C13.4199 15.0041 13.6295 14.1425 13.5473 13.2952C13.5099 12.7652 13.352 12.2484 13.1209 11.7713C12.3562 12.969 10.9813 13.7613 9.55296 13.7863ZM7.28833 15.5279C6.82538 15.7079 6.32912 15.7894 5.83409 15.8058C6.09065 16.221 6.42245 16.5871 6.80112 16.8949C7.48199 17.4392 8.33801 17.7585 9.20924 17.7958C9.86585 17.8258 10.5286 17.6962 11.1277 17.4273C11.8608 17.0855 12.512 16.5383 12.9252 15.8407C11.6614 15.7984 10.439 15.1545 9.68741 14.1417C9.59408 14.0216 9.52171 13.8859 9.42139 13.7711C8.92102 14.5614 8.17149 15.2033 7.28833 15.5279ZM13.0391 15.8452C12.401 16.9072 11.2703 17.6827 10.0315 17.836C12.4615 17.7114 14.7836 16.4243 16.221 14.4745C15.4271 15.3656 14.2294 15.8607 13.0391 15.8452ZM2.9959 14.768C3.12542 14.8901 3.22985 15.0356 3.35278 15.1643C4.6915 16.6186 6.56471 17.5946 8.53947 17.7946C8.45025 17.7757 8.35939 17.7663 8.27099 17.7438C7.21515 17.4585 6.28101 16.7473 5.72966 15.8046C4.73384 15.7915 3.74379 15.4267 2.9959 14.768Z" fill="#BAA1C6" stroke="#BAA1C6" stroke-width="0.6"/>
</svg>
