<svg width="1440" height="647" viewBox="0 0 1440 647" fill="none" xmlns="http://www.w3.org/2000/svg">
<path d="M1423.21 1.80018C1427.68 0.513287 1432.39 -0.326008 1437.25 0.121607L1437.56 0.0096794C1438.51 0.0656312 1439.45 0.960823 1440 1.63224L1484.5 31.6784L1497.5 781H-40V4.31799L0 0.793002C1.33344 1.01677 2.66687 1.35241 4.00031 1.68806L4.00108 1.68825C24.3203 7.22748 42.6782 14.781 57.035 26.7547C62.2913 31.0629 67.7045 35.2593 72.8824 39.6236C80.8061 46.2259 90.9265 48.52 102.851 47.9604C113.678 47.4569 124.583 47.0652 135.409 47.1771C151.492 47.345 167.261 48.9116 182.716 52.2127C208.37 57.752 230.572 67.2079 248.93 81.2518C254.657 85.5601 260.462 89.8123 266.033 94.2325C272.623 99.4361 280.546 101.003 290.274 99.8837C304.474 98.2052 318.753 96.8063 333.031 95.7992C381.515 92.3861 423.016 103.521 458.477 126.964L459.117 127.392C463.775 130.5 468.531 133.673 473.932 137.204C491.819 136.029 510.098 139.218 527.986 143.694C547.912 148.674 567.369 154.549 585.177 162.83C591.297 165.683 597.416 166.354 604.241 164.34C609.89 162.662 615.539 161.207 621.266 159.696C646.841 152.87 673.358 150.8 700.503 152.534C705.21 152.87 709.839 154.381 714.546 154.381C719.174 154.325 723.881 152.758 728.589 152.478C756.047 150.8 782.878 152.982 808.689 160.144C813.474 161.487 818.417 162.55 823.045 164.004C830.42 166.354 837.245 165.963 843.835 162.55C845.404 161.766 847.13 161.095 848.778 160.424C871.058 151.303 894.516 144.142 919.542 139.777C931.31 137.707 943.235 136.029 953.826 137.26C960.024 133.287 965.28 129.986 970.458 126.573C1005.76 103.465 1047.03 92.3862 1095.12 95.7433C1109.08 96.7504 1122.97 98.3171 1136.93 99.604C1139.13 99.7718 1141.41 99.9956 1143.6 100.163C1149.33 100.611 1154.35 99.3242 1158.59 96.5825C1161.41 94.7921 1164.16 92.8338 1166.82 90.8755C1171.06 87.7422 1175.06 84.441 1179.22 81.3077C1205.19 61.6686 1237.27 51.0937 1274.54 48.0164C1290.15 46.7295 1305.84 46.5056 1321.45 47.7366C1336.83 48.9675 1349.15 45.8902 1358.72 37.1617C1362.01 34.0843 1365.86 31.3427 1369.31 28.3213C1383.59 15.6762 1402.42 7.73107 1423.21 1.80018Z" fill="#BAA1C6"/>
</svg>
