<svg width="360" height="153" viewBox="0 0 360 153" fill="none" xmlns="http://www.w3.org/2000/svg">
<g clip-path="url(#clip0_14526_6612)">
<g clip-path="url(#clip1_14526_6612)">
<path d="M-200.917 161.8C-203.322 162.622 -205.853 163.158 -208.468 162.872L-208.637 162.944C-209.143 162.908 -209.649 162.336 -209.944 161.908L-233.873 142.718L-240.863 -15.5L585.813 -15.4999L585.812 160.192L564.305 162.444C563.588 162.301 562.871 162.086 562.154 161.872L562.154 161.872C551.229 158.334 541.358 153.51 533.639 145.863C530.813 143.111 527.902 140.431 525.118 137.644C520.858 133.427 515.416 131.962 509.005 132.319C503.184 132.641 497.32 132.891 491.499 132.82C482.852 132.712 474.373 131.712 466.064 129.603C452.27 126.066 440.333 120.027 430.462 111.057C427.383 108.306 424.261 105.59 421.266 102.767C417.723 99.4434 413.463 98.4428 408.232 99.1575C400.597 100.23 392.92 101.123 385.243 101.766C359.175 103.946 336.86 96.8347 317.794 81.8619L317.447 81.5866C314.943 79.6023 312.387 77.5766 309.484 75.3225C299.867 76.0729 290.038 74.036 280.421 71.1772C269.707 67.9968 259.245 64.2447 249.67 58.956C246.38 57.1335 243.09 56.7047 239.42 57.9912C236.383 59.0632 233.346 59.9923 230.266 60.9571C216.515 65.3168 202.258 66.639 187.663 65.5312C185.132 65.3168 182.643 64.3519 180.112 64.3519C177.623 64.3877 175.092 65.3882 172.562 65.5669C157.798 66.6389 143.372 65.2453 129.494 60.6713C126.921 59.8136 124.263 59.1347 121.774 58.2056C117.809 56.7047 114.14 56.9548 110.596 59.1346C109.753 59.6349 108.825 60.0638 107.939 60.4926C95.9591 66.3173 83.3467 70.8914 69.8907 73.6787C63.5634 75.0008 57.1517 76.0729 51.4572 75.2867C48.1248 77.8239 45.2985 79.9322 42.5145 82.112C23.5327 96.8705 1.34522 103.946 -24.5123 101.802C-32.0207 101.159 -39.4871 100.158 -46.9954 99.3361C-48.1765 99.2289 -49.3997 99.086 -50.5807 98.9788C-53.66 98.6929 -56.3597 99.5148 -58.6375 101.266C-60.1561 102.409 -61.6325 103.66 -63.0667 104.911C-65.3445 106.912 -67.4957 109.02 -69.7314 111.021C-83.6936 123.564 -100.946 130.318 -120.982 132.283C-129.377 133.105 -137.813 133.248 -146.207 132.462C-154.475 131.676 -161.098 133.641 -166.244 139.216C-168.015 141.181 -170.082 142.932 -171.938 144.862C-179.615 152.938 -189.739 158.012 -200.917 161.8Z" fill="#BAA1C6"/>
</g>
</g>
<defs>
<clipPath id="clip0_14526_6612">
<rect width="360" height="153" fill="white"/>
</clipPath>
<clipPath id="clip1_14526_6612">
<rect width="774" height="153" fill="white" transform="translate(-207)"/>
</clipPath>
</defs>
</svg>
