<svg width="360" height="775" viewBox="0 0 360 775" fill="none" xmlns="http://www.w3.org/2000/svg">
<g clip-path="url(#clip0_14526_7773)">
<path d="M568.73 -58.8501C571.135 -59.672 573.666 -60.2081 576.281 -59.9222L576.45 -59.9937C576.956 -59.9579 577.462 -59.3862 577.757 -58.9574L601.686 -39.7678L608.676 784.001L-217.999 784.001L-217.999 -57.2422L-196.492 -59.4935C-195.775 -59.3506 -195.058 -59.1362 -194.341 -58.9219L-194.341 -58.9218C-183.416 -55.384 -173.545 -50.5599 -165.826 -42.9126C-163 -40.1611 -160.089 -37.481 -157.305 -34.6937C-153.045 -30.477 -147.603 -29.0118 -141.192 -29.3692C-135.371 -29.6908 -129.507 -29.9409 -123.686 -29.8695C-115.039 -29.7622 -106.56 -28.7617 -98.2505 -26.6534C-84.457 -23.1156 -72.5196 -17.0764 -62.649 -8.10705C-59.5697 -5.35548 -56.4482 -2.63967 -53.4533 0.18337C-49.91 3.50669 -45.6497 4.5073 -40.4191 3.79261C-32.7842 2.72057 -25.1071 1.82717 -17.4299 1.18394C8.63851 -0.995863 30.9528 6.11536 50.0191 21.0882L50.3654 21.3627C52.8695 23.3473 55.4258 25.3732 58.3289 27.6276C67.9464 26.8772 77.7748 28.9141 87.3923 31.7729C98.1065 34.9533 108.568 38.7054 118.143 43.9941C121.433 45.8166 124.723 46.2454 128.393 44.9589C131.43 43.8869 134.467 42.9578 137.547 41.993C151.298 37.6333 165.555 36.3112 180.15 37.4189C182.681 37.6333 185.17 38.5982 187.701 38.5982C190.19 38.5624 192.721 37.5619 195.252 37.3832C210.015 36.3112 224.441 37.7048 238.319 42.2789C240.892 43.1365 243.55 43.8155 246.039 44.7446C250.004 46.2454 253.674 45.9953 257.217 43.8155C258.06 43.3152 258.988 42.8864 259.874 42.4575C271.854 36.6328 284.466 32.0588 297.922 29.2715C304.25 27.9493 310.661 26.8772 316.356 27.6634C319.688 25.1262 322.515 23.0179 325.299 20.8381C344.28 6.07966 366.468 -0.99578 392.325 1.14831C399.834 1.79153 407.3 2.79212 414.808 3.61401C415.99 3.72122 417.213 3.86412 418.394 3.97133C421.473 4.25721 424.173 3.43531 426.451 1.68431C427.969 0.540804 429.446 -0.709871 430.88 -1.96058C433.158 -3.96172 435.309 -6.07009 437.544 -8.07123C451.507 -20.6141 468.759 -27.3679 488.795 -29.3333C497.19 -30.1552 505.626 -30.2982 514.02 -29.512C522.288 -28.7259 528.911 -30.6913 534.057 -36.2659C535.828 -38.2313 537.895 -39.9823 539.751 -41.9119C547.428 -49.988 557.552 -55.0623 568.73 -58.8501Z" fill="#BAA1C6"/>
</g>
<defs>
<clipPath id="clip0_14526_7773">
<rect width="360" height="775" fill="white" transform="translate(360 775) rotate(-180)"/>
</clipPath>
</defs>
</svg>
