<svg width="1440" height="212" viewBox="0 0 1440 212" fill="none" xmlns="http://www.w3.org/2000/svg">
<g clip-path="url(#clip0_14526_6587)">
<path d="M11.3168 209.861C6.84351 211.39 2.13477 212.387 -2.73083 211.855L-3.04468 211.988C-3.98645 211.922 -4.9281 210.858 -5.47742 210.06L-49.9958 174.359L-63 -120L1475 -120L1475 206.869L1434.99 211.058C1433.65 210.792 1432.32 210.393 1430.99 209.994L1430.98 209.994C1410.66 203.412 1392.29 194.437 1377.93 180.21C1372.68 175.09 1367.26 170.104 1362.08 164.918C1354.15 157.073 1344.03 154.348 1332.1 155.012C1321.27 155.611 1310.36 156.076 1299.53 155.943C1283.45 155.744 1267.67 153.882 1252.21 149.96C1226.55 143.378 1204.34 132.142 1185.98 115.455C1180.25 110.336 1174.44 105.283 1168.87 100.031C1162.28 93.848 1154.35 91.9865 1144.62 93.3161C1130.41 95.3106 1116.13 96.9727 1101.85 98.1694C1053.35 102.225 1011.83 88.9947 976.361 61.1383L975.729 60.6376C971.067 56.9421 966.307 53.17 960.901 48.9719C943.008 50.368 924.722 46.5785 906.829 41.2598C886.896 35.3428 867.434 28.3621 849.619 18.5226C843.498 15.132 837.376 14.3342 830.549 16.7276C824.898 18.7221 819.248 20.4507 813.519 22.2457C787.935 30.3567 761.41 32.8165 734.256 30.7556C729.548 30.3567 724.917 28.5616 720.209 28.5616C715.578 28.6281 710.87 30.4896 706.161 30.822C678.694 32.8165 651.854 30.2237 626.035 21.7138C621.248 20.1182 616.304 18.8551 611.674 17.1265C604.297 14.3342 597.469 14.7995 590.877 18.855C589.307 19.7858 587.581 20.5836 585.933 21.3814C563.645 32.2181 540.18 40.728 515.146 45.9137C503.374 48.3735 491.445 50.368 480.851 48.9054C474.651 53.6257 469.393 57.5482 464.213 61.6037C428.898 89.0612 387.619 102.225 339.512 98.2358C325.543 97.0391 311.652 95.1776 297.683 93.6485C295.486 93.449 293.21 93.1831 291.013 92.9837C285.284 92.4518 280.261 93.9809 276.023 97.2386C273.198 99.3661 270.451 101.693 267.783 104.02C263.545 107.743 259.543 111.665 255.384 115.388C229.407 138.724 197.31 151.289 160.033 154.946C144.416 156.475 128.72 156.741 113.103 155.278C97.7212 153.816 85.4 157.472 75.8257 167.844C72.5297 171.5 68.6842 174.758 65.2312 178.348C50.9482 193.373 32.1134 202.814 11.3168 209.861Z" fill="#BAA1C6"/>
</g>
<defs>
<clipPath id="clip0_14526_6587">
<rect width="1440" height="212" fill="white"/>
</clipPath>
</defs>
</svg>
