<svg width="64" height="52" viewBox="0 0 64 52" fill="none" xmlns="http://www.w3.org/2000/svg">
<path d="M59.1153 19.6843C60.5927 18.721 60.692 16.5581 59.3054 15.4856C59.0598 15.2956 58.9257 14.9968 58.947 14.6865C59.0051 13.8376 58.6851 13.0462 58.0689 12.5151C57.8329 12.3117 57.6755 12.1887 57.6688 12.1836C57.3366 11.9244 56.8705 11.9245 56.5385 12.1838C56.0176 12.5907 53.4185 14.7154 53.4185 16.5968C53.4186 19.5733 56.7204 21.2459 59.1153 19.6843ZM57.0501 14.156C57.1015 14.2757 57.1242 14.4141 57.1141 14.561C57.0509 15.4841 57.45 16.373 58.1814 16.9388C58.5652 17.2356 58.5372 17.8681 58.112 18.1453C56.8983 18.9367 55.2558 18.0708 55.2558 16.5967C55.2558 16.0675 56.1011 15.0191 57.0501 14.156Z" fill="#131039"/>
<path d="M4.88415 19.6841C7.28045 21.2467 10.581 19.5718 10.581 16.5967C10.581 14.7153 7.98201 12.5905 7.46098 12.1836C7.12882 11.9242 6.66291 11.9241 6.33063 12.1834C6.32401 12.1885 6.16663 12.3115 5.93061 12.515C5.31442 13.0461 4.99438 13.8376 5.05243 14.6864C5.07362 14.9967 4.93963 15.2956 4.69394 15.4856C3.30711 16.5584 3.4073 18.7213 4.88415 19.6841ZM5.81805 16.9388C6.5495 16.373 6.94853 15.4842 6.88533 14.561C6.87517 14.4125 6.89844 14.2725 6.95135 14.1518C8.12458 15.2061 8.74383 16.2076 8.74383 16.5967C8.74383 18.069 7.10273 18.9376 5.88762 18.1452C5.46262 17.8683 5.4342 17.2357 5.81805 16.9388Z" fill="#131039"/>
<path d="M18.8285 15.2501C17.2418 16.3433 17.2424 18.6927 18.8285 19.7856C26.0601 24.7682 29.9826 25.814 31.9999 25.814C34.0171 25.814 37.9396 24.7682 45.1713 19.7856C46.758 18.6924 46.7574 16.343 45.1713 15.2501C37.9399 10.2675 34.0172 9.22168 31.9999 9.22168C29.9825 9.22168 26.0599 10.2677 18.8285 15.2501ZM44.1289 18.2728C38.8675 21.8978 34.4466 23.9769 31.9999 23.9769C29.5531 23.9769 25.1322 21.8978 19.8709 18.2728C19.3441 17.9097 19.3402 17.1286 19.8709 16.7628C25.1321 13.1378 29.5529 11.0589 31.9999 11.0589C34.4469 11.0589 38.8678 13.1379 44.1289 16.7628C44.6558 17.126 44.6594 17.9073 44.1289 18.2728Z" fill="#131039"/>
<path d="M27.3926 17.5178C27.3926 20.0584 29.4594 22.1252 32 22.1252C34.5406 22.1252 36.6074 20.0584 36.6074 17.5178C36.6074 14.9772 34.5406 12.9104 32 12.9104C29.4594 12.9104 27.3926 14.9774 27.3926 17.5178ZM34.7701 17.5178C34.7701 19.0453 33.5274 20.2881 31.9999 20.2881C30.4723 20.2881 29.2296 19.0454 29.2296 17.5178C29.2296 15.9903 30.4723 14.7476 31.9999 14.7476C33.5274 14.7476 34.7701 15.9904 34.7701 17.5178Z" fill="#131039"/>
<path d="M60.5842 42.8055V26.9455C60.5842 25.3829 59.3071 24.1815 57.8174 24.1888V23.0507C57.8174 22.5434 57.4061 22.1321 56.8988 22.1321C56.3915 22.1321 55.9802 22.5434 55.9802 23.0507V24.789L54.7364 25.4105C53.7977 25.8817 53.2146 26.8261 53.2146 27.8751V42.4208H51.9341L47.7639 34.0804C47.1769 32.9071 46.3428 31.9195 45.3423 31.1654C51.7707 24.4176 52.1389 13.9811 46.3172 6.8178C45.9973 6.42427 45.4187 6.36438 45.0249 6.6843C44.6313 7.00433 44.5715 7.5828 44.8914 7.97657C50.2481 14.5673 49.7578 24.1845 43.7094 30.2077C42.6786 29.7547 41.5459 29.5101 40.3688 29.5101H23.6308C22.4538 29.5101 21.3211 29.7547 20.2902 30.2077C17.1732 27.1038 15.3965 22.8514 15.3965 18.4405C15.3965 9.28538 22.8447 1.83719 31.9998 1.83719C35.7295 1.83719 39.2526 3.04495 42.1884 5.32992C42.5889 5.64151 43.1659 5.56961 43.4775 5.16923C43.7891 4.76885 43.7172 4.19172 43.3168 3.88014C40.0556 1.34176 36.1421 0 31.9999 0C21.8318 0 13.5594 8.27236 13.5594 18.4405C13.5594 23.1783 15.4051 27.7514 18.6575 31.1654C17.6571 31.9195 16.8229 32.9071 16.2359 34.0805L12.0658 42.4206H10.7854V27.875C10.7854 26.826 10.2023 25.8815 9.26202 25.4096L8.01984 24.789V23.0507C8.01984 22.5434 7.60855 22.1321 7.10125 22.1321C6.59394 22.1321 6.18265 22.5434 6.18265 23.0507V24.1888C4.69527 24.1814 3.41585 25.3796 3.41585 26.9455V42.8055C1.78896 43.5173 0.648926 45.1417 0.648926 47.0282C0.648926 49.5686 2.71576 51.6356 5.25634 51.6356H58.7437C61.2843 51.6356 63.3511 49.5688 63.3511 47.0282C63.351 45.1417 62.2111 43.5173 60.5842 42.8055ZM55.0518 27.8751C55.0518 27.5252 55.2468 27.21 55.5591 27.0532L57.4174 26.1247C58.0298 25.8188 58.747 26.2632 58.747 26.9455C58.747 42.7911 58.7559 42.4208 58.7437 42.4208H55.0518V27.8751ZM5.25304 26.9455C5.25304 26.2625 5.97113 25.819 6.58291 26.1248L8.43933 27.0523C8.75312 27.21 8.94823 27.5252 8.94823 27.8751V42.4208H5.25634C5.2441 42.4208 5.25304 42.7905 5.25304 26.9455ZM58.7437 49.7983H5.25634C3.72878 49.7983 2.48611 48.5556 2.48611 47.0282C2.48611 45.5007 3.72878 44.2579 5.25634 44.2579H26.4725C26.9798 44.2579 27.3911 43.8467 27.3911 43.3393C27.3911 42.832 26.9798 42.4208 26.4725 42.4208H14.1199L17.8792 34.9024C18.9885 32.6848 21.2116 31.3474 23.631 31.3474H40.369C42.8547 31.3474 45.042 32.7455 46.1209 34.9023L49.8801 42.4208H30.1152C29.6079 42.4208 29.1966 42.832 29.1966 43.3393C29.1966 43.8467 29.6079 44.2579 30.1152 44.2579H58.7437C60.2711 44.2579 61.5139 45.5006 61.5139 47.0282C61.5139 48.5557 60.2711 49.7983 58.7437 49.7983Z" fill="#131039"/>
</svg>
