<svg width="42" height="34" viewBox="0 0 42 34" fill="none" xmlns="http://www.w3.org/2000/svg">
<path d="M39.1629 12.8224C40.1524 12.1949 40.219 10.786 39.2902 10.0873C39.1257 9.96359 39.0359 9.76892 39.0502 9.56683C39.089 9.01385 38.8747 8.49829 38.4619 8.15235C38.3038 8.01983 38.1984 7.93973 38.194 7.93638C37.9714 7.76756 37.6592 7.76764 37.4368 7.93654C37.0879 8.20158 35.3469 9.58566 35.3469 10.8112C35.347 12.7501 37.5587 13.8396 39.1629 12.8224ZM37.7795 9.22121C37.814 9.29924 37.8291 9.38939 37.8224 9.48505C37.7801 10.0864 38.0474 10.6654 38.5373 11.034C38.7944 11.2273 38.7756 11.6393 38.4908 11.8199C37.6779 12.3354 36.5776 11.7713 36.5776 10.8111C36.5776 10.4664 37.1439 9.78344 37.7795 9.22121Z" fill="#131039"/>
<path d="M2.837 12.8223C4.44212 13.8402 6.65295 12.7492 6.65295 10.8111C6.65295 9.5856 4.91205 8.20152 4.56305 7.93648C4.34056 7.7675 4.02847 7.76742 3.8059 7.93632C3.80147 7.93967 3.69604 8.01977 3.53795 8.15229C3.12521 8.49831 2.91083 9.01387 2.94972 9.56677C2.96391 9.76894 2.87416 9.96361 2.70959 10.0874C1.78064 10.7862 1.84775 12.1952 2.837 12.8223ZM3.46256 11.034C3.9525 10.6655 4.21979 10.0865 4.17746 9.48507C4.17065 9.38837 4.18624 9.29718 4.22168 9.21852C5.00754 9.90529 5.42234 10.5577 5.42234 10.8111C5.42234 11.7702 4.32308 12.336 3.50916 11.8198C3.22448 11.6395 3.20544 11.2274 3.46256 11.034Z" fill="#131039"/>
<path d="M12.1773 9.93401C11.1144 10.6462 11.1149 12.1766 12.1773 12.8885C17.0213 16.1341 19.6487 16.8154 20.9999 16.8154C22.3511 16.8154 24.9786 16.1341 29.8226 12.8885C30.8854 12.1763 30.885 10.6459 29.8226 9.93401C24.9787 6.68835 22.3512 6.00708 20.9999 6.00708C19.6486 6.00708 17.0211 6.68843 12.1773 9.93401ZM29.1243 11.903C25.6001 14.2643 22.6388 15.6187 20.9999 15.6187C19.361 15.6187 16.3997 14.2643 12.8755 11.903C12.5227 11.6665 12.52 11.1576 12.8755 10.9194C16.3997 8.55807 19.3608 7.20383 20.9999 7.20383C22.639 7.20383 25.6003 8.55815 29.1243 10.9194C29.4773 11.156 29.4797 11.6649 29.1243 11.903Z" fill="#131039"/>
<path d="M17.9138 11.4112C17.9138 13.0661 19.2982 14.4125 21 14.4125C22.7017 14.4125 24.0862 13.0661 24.0862 11.4112C24.0862 9.75625 22.7017 8.40991 21 8.40991C19.2982 8.40991 17.9138 9.75633 17.9138 11.4112ZM22.8555 11.4112C22.8555 12.4062 22.0231 13.2157 20.9999 13.2157C19.9767 13.2157 19.1443 12.4063 19.1443 11.4112C19.1443 10.4161 19.9767 9.60666 20.9999 9.60666C22.0231 9.60666 22.8555 10.4162 22.8555 11.4112Z" fill="#131039"/>
<path d="M40.1466 27.8836V17.5524C40.1466 16.5345 39.2912 15.7519 38.2933 15.7566V15.0153C38.2933 14.6848 38.0178 14.4169 37.678 14.4169C37.3382 14.4169 37.0627 14.6848 37.0627 15.0153V16.1477L36.2296 16.5525C35.6008 16.8594 35.2102 17.4746 35.2102 18.158V27.633H34.3525L31.5592 22.2001C31.166 21.4358 30.6073 20.7925 29.9371 20.3013C34.2431 15.9057 34.4897 9.10734 30.5901 4.44114C30.3758 4.18479 29.9883 4.14578 29.7245 4.35417C29.4608 4.56265 29.4208 4.93946 29.6351 5.19597C33.2231 9.48918 32.8947 15.7538 28.8433 19.6774C28.1529 19.3823 27.3942 19.223 26.6057 19.223H15.394C14.6056 19.223 13.8469 19.3823 13.1564 19.6774C11.0685 17.6555 9.87842 14.8855 9.87842 12.0122C9.87842 6.04853 14.8675 1.19675 20.9998 1.19675C23.4981 1.19675 25.858 1.98349 27.8245 3.47193C28.0928 3.6749 28.4793 3.62806 28.688 3.36725C28.8967 3.10644 28.8486 2.7305 28.5804 2.52753C26.3959 0.874026 23.7745 0 20.9999 0C14.189 0 8.64789 5.38864 8.64789 12.0122C8.64789 15.0984 9.88416 18.0774 12.0627 20.3013C11.3926 20.7925 10.8339 21.4358 10.4406 22.2002L7.64741 27.6329H6.78976V18.1579C6.78976 17.4745 6.39916 16.8593 5.76934 16.5519L4.93728 16.1477V15.0153C4.93728 14.6848 4.66179 14.4169 4.32198 14.4169C3.98217 14.4169 3.70667 14.6848 3.70667 15.0153V15.7566C2.71037 15.7519 1.85338 16.5324 1.85338 17.5524V27.8836C0.763633 28.3473 0 29.4055 0 30.6343C0 32.2892 1.38443 33.6356 3.0862 33.6356H38.9138C40.6156 33.6356 42 32.2892 42 30.6343C41.9999 29.4055 41.2364 28.3473 40.1466 27.8836ZM36.4409 18.158C36.4409 17.93 36.5715 17.7247 36.7807 17.6225L38.0254 17.0177C38.4356 16.8185 38.916 17.1079 38.916 17.5524C38.916 27.8743 38.922 27.633 38.9138 27.633H36.4409V18.158ZM3.08399 17.5524C3.08399 17.1074 3.56499 16.8186 3.97478 17.0178L5.21827 17.622C5.42846 17.7246 5.55915 17.93 5.55915 18.158V27.633H3.0862C3.078 27.633 3.08399 27.8739 3.08399 17.5524ZM38.9138 32.4388H3.0862C2.06299 32.4388 1.23061 31.6293 1.23061 30.6343C1.23061 29.6393 2.06299 28.8298 3.0862 28.8298H17.2975C17.6373 28.8298 17.9128 28.5619 17.9128 28.2314C17.9128 27.9009 17.6373 27.633 17.2975 27.633H9.02331L11.5414 22.7355C12.2844 21.291 13.7735 20.4198 15.3942 20.4198H26.6058C28.2708 20.4198 29.7359 21.3305 30.4586 22.7354L32.9767 27.633H19.7375C19.3977 27.633 19.1222 27.9009 19.1222 28.2314C19.1222 28.5619 19.3977 28.8298 19.7375 28.8298H38.9138C39.9369 28.8298 40.7694 29.6392 40.7694 30.6343C40.7694 31.6294 39.9369 32.4388 38.9138 32.4388Z" fill="#131039"/>
</svg>
