<svg width="312" height="1063" viewBox="0 0 312 1063" fill="none" xmlns="http://www.w3.org/2000/svg">
<path opacity="0.8" d="M270.272 25.4448C270.273 25.4448 270.273 25.4448 270.273 24.9448L270.273 25.4448C293.105 25.4448 311.5 41.6902 311.5 61.5984L311.5 1001.4C311.5 1021.31 293.105 1037.56 270.273 1037.56L270.273 1038.06C270.273 1037.56 270.273 1037.56 270.272 1037.56L270.27 1037.56L270.267 1037.56L270.262 1037.56L270.256 1037.56L270.249 1037.56L270.24 1037.56L270.23 1037.56L270.218 1037.56L270.206 1037.56L270.192 1037.56L270.176 1037.56L270.16 1037.56L270.142 1037.56L270.123 1037.56L270.102 1037.56L270.08 1037.56L270.057 1037.56L270.033 1037.56L270.007 1037.56L269.98 1037.56L269.952 1037.56L269.922 1037.56L269.892 1037.56L269.86 1037.56L269.826 1037.56L269.792 1037.56L269.756 1037.56L269.719 1037.56L269.681 1037.56L269.641 1037.56L269.601 1037.56L269.559 1037.56L269.516 1037.56L269.472 1037.56L269.426 1037.56L269.379 1037.56L269.331 1037.56L269.282 1037.56L269.232 1037.56L269.18 1037.56L269.128 1037.56L269.074 1037.56L269.019 1037.56L268.963 1037.56L268.905 1037.56L268.847 1037.56L268.787 1037.56L268.726 1037.56L268.664 1037.56L268.601 1037.56L268.537 1037.56L268.472 1037.56L268.405 1037.56L268.337 1037.56L268.269 1037.56L268.199 1037.56L268.128 1037.56L268.056 1037.56L267.982 1037.56L267.908 1037.56L267.833 1037.56L267.756 1037.56L267.679 1037.56L267.6 1037.56L267.52 1037.56L267.44 1037.56L267.358 1037.56L267.275 1037.56L267.191 1037.56L267.106 1037.56L267.019 1037.56L266.932 1037.56L266.844 1037.56L266.755 1037.56L266.665 1037.56L266.573 1037.56L266.481 1037.56L266.388 1037.56L266.293 1037.56L266.198 1037.56L266.101 1037.56L266.004 1037.56L265.906 1037.56L265.806 1037.56L265.706 1037.56L265.604 1037.56L265.502 1037.56L265.399 1037.56L265.294 1037.56L265.189 1037.56L265.083 1037.56L264.976 1037.56L264.868 1037.56L264.758 1037.56L264.648 1037.56L264.537 1037.56L264.425 1037.56L264.313 1037.56L264.199 1037.56L264.084 1037.56L263.968 1037.56L263.852 1037.56L263.734 1037.56L263.616 1037.56L263.497 1037.56L263.376 1037.56L263.255 1037.56L263.133 1037.56L263.01 1037.56L262.887 1037.56L262.762 1037.56L262.636 1037.56L262.51 1037.56L262.383 1037.56L262.255 1037.56L262.126 1037.56L261.996 1037.56L261.865 1037.56L261.734 1037.56L261.601 1037.56L261.468 1037.56L261.334 1037.56L261.199 1037.56L261.063 1037.56L260.927 1037.56L260.79 1037.56L260.652 1037.56L260.513 1037.56L260.373 1037.56L260.232 1037.56L260.091 1037.56L259.949 1037.56L259.806 1037.56L259.662 1037.56L259.518 1037.56L259.373 1037.56L259.227 1037.56L259.08 1037.56L258.932 1037.56L258.784 1037.56L258.635 1037.56L258.485 1037.56L258.335 1037.56L258.184 1037.56L258.032 1037.56L257.879 1037.56L257.726 1037.56L257.572 1037.56L257.417 1037.56L257.261 1037.56L257.105 1037.56L256.948 1037.56L256.79 1037.56L256.632 1037.56L256.473 1037.56L256.313 1037.56L256.153 1037.56L255.992 1037.56L255.83 1037.56L255.667 1037.56L255.504 1037.56L255.341 1037.56L255.176 1037.56L255.011 1037.56L254.845 1037.56L254.679 1037.56L254.512 1037.56L254.345 1037.56L254.176 1037.56L254.007 1037.56L253.838 1037.56L253.668 1037.56L253.497 1037.56L253.326 1037.56L253.154 1037.56L252.981 1037.56L252.808 1037.56L252.635 1037.56L252.46 1037.56L252.286 1037.56L252.11 1037.56L251.934 1037.56L251.758 1037.56L251.58 1037.56L251.403 1037.56L251.224 1037.56L251.046 1037.56L250.866 1037.56L250.686 1037.56L250.506 1037.56L250.325 1037.56L250.144 1037.56L249.962 1037.56L249.779 1037.56L249.596 1037.56L249.412 1037.56L249.228 1037.56L249.044 1037.56L248.859 1037.56L248.673 1037.56L248.487 1037.56L248.301 1037.56L248.113 1037.56L247.926 1037.56L247.738 1037.56L247.55 1037.56L247.361 1037.56L247.171 1037.56L246.982 1037.56L246.791 1037.56L246.601 1037.56L246.409 1037.56L246.218 1037.56L246.026 1037.56L245.833 1037.56L245.64 1037.56L245.447 1037.56L245.253 1037.56L245.059 1037.56L244.865 1037.56L244.67 1037.56L244.474 1037.56L244.279 1037.56L244.083 1037.56L243.886 1037.56L243.689 1037.56L243.492 1037.56L243.294 1037.56L243.096 1037.56L242.898 1037.56L242.699 1037.56L242.5 1037.56L242.301 1037.56L242.101 1037.56L241.901 1037.56L241.7 1037.56L241.499 1037.56L241.298 1037.56L241.097 1037.56L240.895 1037.56L240.693 1037.56L240.49 1037.56L240.288 1037.56L240.085 1037.56L239.881 1037.56L239.678 1037.56L239.474 1037.56L239.27 1037.56L239.065 1037.56L238.86 1037.56L238.655 1037.56L238.45 1037.56L238.245 1037.56L238.039 1037.56L237.833 1037.56L237.626 1037.56L237.42 1037.56L237.213 1037.56L237.006 1037.56L236.799 1037.56L236.591 1037.56L236.383 1037.56L236.175 1037.56L235.967 1037.56L235.759 1037.56L235.55 1037.56L235.341 1037.56L235.132 1037.56L234.923 1037.56L234.714 1037.56L234.504 1037.56L234.294 1037.56L234.084 1037.56L233.874 1037.56L233.664 1037.56L233.453 1037.56L233.243 1037.56L233.032 1037.56L232.821 1037.56L232.61 1037.56L232.399 1037.56L232.187 1037.56L231.976 1037.56L231.764 1037.56L231.552 1037.56L231.34 1037.56L231.128 1037.56L230.916 1037.56L230.704 1037.56L230.492 1037.56L230.279 1037.56L230.067 1037.56L229.854 1037.56L229.642 1037.56L229.429 1037.56L229.216 1037.56L229.003 1037.56L228.79 1037.56L228.577 1037.56L228.364 1037.56L228.15 1037.56L227.937 1037.56L227.724 1037.56L227.511 1037.56L227.297 1037.56L227.084 1037.56L226.87 1037.56L226.657 1037.56L226.443 1037.56L226.23 1037.56L226.016 1037.56L225.803 1037.56L225.589 1037.56L225.376 1037.56L225.162 1037.56L224.948 1037.56L224.735 1037.56L224.521 1037.56L224.308 1037.56L224.094 1037.56L223.881 1037.56L223.668 1037.56L223.454 1037.56L223.241 1037.56L223.028 1037.56L222.814 1037.56L222.601 1037.56L222.388 1037.56L222.175 1037.56L221.962 1037.56L221.749 1037.56L221.536 1037.56L221.324 1037.56L221.111 1037.56L220.898 1037.56L220.686 1037.56L220.473 1037.56L220.261 1037.56L220.049 1037.56L219.837 1037.56L219.625 1037.56L219.413 1037.56L219.201 1037.56L218.99 1037.56L218.778 1037.56L218.567 1037.56L218.356 1037.56L218.145 1037.56L217.934 1037.56L217.723 1037.56L217.513 1037.56L217.302 1037.56L217.092 1037.56L216.882 1037.56L216.672 1037.56L216.462 1037.56L216.253 1037.56L216.044 1037.56L215.834 1037.56L215.626 1037.56L215.417 1037.56L215.208 1037.56L215 1037.56L214.792 1037.56L214.584 1037.56L214.376 1037.56L214.169 1037.56L213.962 1037.56L213.755 1037.56L213.548 1037.56L213.341 1037.56L213.135 1037.56L212.929 1037.56L212.724 1037.56L212.518 1037.56L212.313 1037.56L212.108 1037.56L211.903 1037.56L211.699 1037.56L211.495 1037.56L211.291 1037.56L211.088 1037.56L210.884 1037.56L210.682 1037.56L210.479 1037.56L210.277 1037.56L210.075 1037.56L209.873 1037.56L209.672 1037.56L209.471 1037.56L209.27 1037.56L209.07 1037.56L208.87 1037.56L208.67 1037.56L208.471 1037.56L208.272 1037.56L208.073 1037.56L207.875 1037.56L207.677 1037.56L207.48 1037.56L207.283 1037.56L207.086 1037.56L206.89 1037.56L206.694 1037.56L206.498 1037.56L206.303 1037.56L206.108 1037.56L205.914 1037.56L205.72 1037.56L205.526 1037.56L205.333 1037.56L205.14 1037.56L204.948 1037.56L204.756 1037.56L204.565 1037.56L204.374 1037.56L204.183 1037.56L203.993 1037.56L203.804 1037.56L203.615 1037.56L203.426 1037.56L203.238 1037.56L203.05 1037.56L202.863 1037.56L202.676 1037.56L202.489 1037.56L202.304 1037.56L202.118 1037.56L201.933 1037.56L201.749 1037.56L201.565 1037.56L201.382 1037.56L201.199 1037.56L201.017 1037.56L200.835 1037.56L200.654 1037.56L200.473 1037.56L200.293 1037.56L200.113 1037.56L199.934 1037.56L199.755 1037.56L199.577 1037.56L199.4 1037.56L199.223 1037.56L199.047 1037.56L198.871 1037.56L198.696 1037.56L198.521 1037.56L198.347 1037.56L198.174 1037.56L198.001 1037.56L197.829 1037.56L197.657 1037.56L197.486 1037.56L197.315 1037.56L197.146 1037.56L196.976 1037.56L196.808 1037.56L196.64 1037.56L196.472 1037.56L196.306 1037.56L196.14 1037.56L195.974 1037.56L195.809 1037.56L195.645 1037.56L195.482 1037.56L195.319 1037.56L195.157 1037.56L194.996 1037.56L194.835 1037.56L194.675 1037.56L194.515 1037.56L194.356 1037.56L194.198 1037.56L194.041 1037.56L193.884 1037.56L193.728 1037.56L193.573 1037.56L193.419 1037.56L193.265 1037.56L193.112 1037.56L192.959 1037.56L192.808 1037.56L192.657 1037.56L192.507 1037.56L192.357 1037.56L192.208 1037.56L192.06 1037.56L191.913 1037.56L191.767 1037.56L191.621 1037.56L191.476 1037.56L191.332 1037.56L191.189 1037.56L191.046 1037.56L190.905 1037.56L190.764 1037.56L190.623 1037.56L190.484 1037.56L190.345 1037.56L190.208 1037.56L190.071 1037.56L189.935 1037.56L189.799 1037.56L189.665 1037.56L189.531 1037.56L189.398 1037.56L189.266 1037.56L189.135 1037.56L189.005 1037.56L188.875 1037.56C177.656 1037.56 169.56 1043.91 164.296 1050.21C161.661 1053.36 159.723 1056.5 158.444 1058.86C157.804 1060.04 157.329 1061.03 157.012 1061.72C157.003 1061.74 156.995 1061.76 156.986 1061.78C156.975 1061.75 156.964 1061.73 156.952 1061.71C156.614 1061.02 156.103 1060.03 155.413 1058.85C154.032 1056.49 151.929 1053.34 149.038 1050.19C143.255 1043.89 134.293 1037.56 121.648 1037.56L41.7273 1037.56C18.8953 1037.56 0.500126 1021.31 0.500128 1001.4L0.500152 61.5984C0.500154 41.6902 18.8953 25.4448 41.7274 25.4448L76.3268 25.4448L123.966 25.4448C132.878 25.4448 141.264 19.0699 147.361 12.8216C150.423 9.68321 152.937 6.54686 154.685 4.19591C155.559 3.02001 156.242 2.03954 156.708 1.35216C156.817 1.19139 156.914 1.0465 156.998 0.919054C157.081 1.04564 157.176 1.18944 157.282 1.34886C157.739 2.03502 158.406 3.01427 159.247 4.18883C160.929 6.53697 163.313 9.67028 166.118 12.8058C168.92 15.939 172.155 19.0878 175.54 21.4568C178.917 23.8203 182.496 25.4448 185.977 25.4448L233.124 25.4448L258.976 25.4448L267.198 25.4448L269.473 25.4448L270.069 25.4448L270.221 25.4448L270.26 25.4448L270.27 25.4448L270.272 25.4448Z" fill="#1F103E" stroke="#BAA1C6"/>
</svg>
