<svg width="816" height="673" viewBox="0 0 816 673" fill="none" xmlns="http://www.w3.org/2000/svg">
<g opacity="0.8">
<path d="M0.50005 61.5984C0.500052 41.6902 18.8952 25.4448 41.7273 25.4448H374.966C383.878 25.4448 392.264 19.07 398.361 12.8216C401.423 9.68322 403.937 6.54687 405.685 4.19592C406.559 3.02002 407.242 2.03955 407.708 1.35217C407.798 1.2198 407.879 1.09827 407.952 0.988294C407.968 0.964704 407.983 0.941648 407.998 0.919128C408.081 1.04577 408.176 1.18939 408.282 1.34887C408.739 2.03509 409.405 3.01428 410.247 4.18878C411.929 6.53698 414.313 9.67029 417.117 12.8058C419.92 15.9389 423.154 19.0877 426.539 21.4568C429.917 23.8203 433.496 25.4448 436.977 25.4448C450.025 25.4448 760.642 24.4868 773.841 24.4461C774.103 24.4453 774.248 24.4448 774.271 24.4448H774.296L774.328 24.4449C797.135 24.4711 815.5 40.7064 815.5 60.5984V610.402C815.5 630.293 797.136 646.528 774.33 646.555H774.301H774.267H774.255C771.688 646.564 461.805 647.555 439.875 647.555C428.656 647.555 420.56 653.913 415.295 660.207C412.661 663.357 410.723 666.505 409.444 668.864C408.804 670.044 408.328 671.029 408.012 671.72C408.003 671.739 407.994 671.758 407.986 671.777" fill="#1F103E"/>
<path d="M0.50005 61.5984L0.5 611.402C0.499998 631.31 18.8952 647.555 41.7273 647.555H41.9491H42.6058H45.1699H54.9244H89.9292H197.842H372.648C385.293 647.555 394.255 653.889 400.037 660.19C402.928 663.34 405.032 666.489 406.412 668.85C407.103 670.031 407.613 671.016 407.952 671.708C407.963 671.732 407.975 671.754 407.986 671.777C407.994 671.758 408.003 671.739 408.012 671.72C408.328 671.029 408.804 670.044 409.444 668.864C410.723 666.505 412.661 663.357 415.295 660.207C420.56 653.913 428.656 647.555 439.875 647.555C461.805 647.555 771.688 646.564 774.255 646.555H774.267H774.301H774.33C797.136 646.528 815.5 630.293 815.5 610.402V60.5984C815.5 40.7064 797.135 24.4711 774.328 24.4449L774.296 24.4448H774.271L773.841 24.4461C760.642 24.4868 450.025 25.4448 436.977 25.4448C433.496 25.4448 429.917 23.8203 426.539 21.4568C423.154 19.0877 419.92 15.9389 417.117 12.8058C414.313 9.67029 411.929 6.53698 410.247 4.18878C409.405 3.01428 408.739 2.03509 408.282 1.34887C408.176 1.18939 408.081 1.04577 407.998 0.919128L407.952 0.988294C407.879 1.09827 407.798 1.2198 407.708 1.35217C407.242 2.03955 406.559 3.02002 405.685 4.19592C403.937 6.54687 401.423 9.68322 398.361 12.8216C392.264 19.07 383.878 25.4448 374.966 25.4448H41.7273C18.8952 25.4448 0.500052 41.6902 0.50005 61.5984Z" fill="#1F103E"/>
<path d="M407.998 0.919128C408.081 1.04577 408.176 1.18939 408.282 1.34887C408.739 2.03509 409.405 3.01428 410.247 4.18878C411.929 6.53698 414.313 9.67029 417.117 12.8058C419.92 15.9389 423.154 19.0877 426.539 21.4568C429.917 23.8203 433.496 25.4448 436.977 25.4448C450.025 25.4448 760.642 24.4868 773.841 24.4461M407.998 0.919128L407.952 0.988294M407.998 0.919128C407.983 0.941648 407.968 0.964704 407.952 0.988294M774.271 24.4448H774.296L774.328 24.4449C797.135 24.4711 815.5 40.7064 815.5 60.5984V610.402C815.5 630.293 797.136 646.528 774.33 646.555H774.301H774.267H774.255C771.688 646.564 461.805 647.555 439.875 647.555C428.656 647.555 420.56 653.913 415.295 660.207C412.661 663.357 410.723 666.505 409.444 668.864C408.804 670.044 408.328 671.029 408.012 671.72C408.003 671.739 407.994 671.758 407.986 671.777C407.975 671.754 407.963 671.732 407.952 671.708C407.613 671.016 407.103 670.031 406.412 668.85C405.032 666.489 402.928 663.34 400.037 660.19C394.255 653.889 385.293 647.555 372.648 647.555H197.842H89.9292H54.9244H45.1699H42.6058H41.9491H41.7273C18.8952 647.555 0.499998 631.31 0.5 611.402L0.50005 61.5984C0.500052 41.6902 18.8952 25.4448 41.7273 25.4448H374.966C383.878 25.4448 392.264 19.07 398.361 12.8216C401.423 9.68322 403.937 6.54687 405.685 4.19592C406.559 3.02002 407.242 2.03955 407.708 1.35217C407.798 1.2198 407.879 1.09827 407.952 0.988294M774.271 24.4448L773.841 24.4461M774.271 24.4448C774.248 24.4448 774.103 24.4453 773.841 24.4461" stroke="#BAA1C6"/>
</g>
</svg>
