<svg width="80" height="84" viewBox="0 0 80 84" fill="none" xmlns="http://www.w3.org/2000/svg">
<path fill-rule="evenodd" clip-rule="evenodd" d="M18.8726 57.061C18.9064 57.3632 18.9402 57.6653 18.9739 57.9675C19.4545 62.2639 19.9334 66.5604 20.388 70.8589C20.388 70.8589 20.388 70.859 20.388 70.859L20.3882 70.8613C20.4131 71.0964 20.4379 71.3315 20.4626 71.5666C20.2316 71.5698 19.9963 71.567 19.7581 71.561C19.7305 71.5604 19.7028 71.5596 19.6751 71.5589C19.5271 71.5548 19.3779 71.5497 19.228 71.5443C19.2203 71.544 19.2126 71.5437 19.2048 71.5434C19.1526 71.5415 19.1002 71.5396 19.0478 71.5376C18.8124 71.5289 18.5755 71.5202 18.3383 71.5142C16.6781 71.4719 15.0046 71.5625 13.7392 72.7356C11.716 74.5436 11.8509 77.5725 12.2192 80.0299C12.5616 82.4925 15.0673 84.0616 17.4329 83.994C32.8112 84.0044 48.1895 83.9992 63.573 83.994C63.5747 83.994 63.5765 83.994 63.5782 83.994H63.5834C66.1202 84.1135 68.7607 82.2795 68.9268 79.6143C68.9329 79.4069 68.9416 79.1958 68.9508 78.982C68.9529 78.9327 68.955 78.8832 68.9572 78.8336C69.0473 76.7565 69.1471 74.4584 67.5364 72.933C66.1492 71.4407 64.0788 71.4791 62.1741 71.5146C62.1741 71.5146 62.1742 71.5146 62.1741 71.5146L61.9831 71.5181C61.9147 71.5193 61.8465 71.5204 61.7786 71.5214C61.6104 71.5239 61.444 71.5255 61.28 71.5251C61.2998 71.2895 61.3197 71.0539 61.3397 70.8184L61.3398 70.8167C61.3488 70.7103 61.3578 70.6039 61.3669 70.4975C61.8028 65.36 62.2606 60.2251 62.7184 55.0907C63.1189 50.5989 63.5193 46.1075 63.905 41.6151C63.9724 34.0299 61.3111 26.5017 56.6629 20.527C52.8999 15.5185 49.146 10.5055 45.3927 5.49214C45.1435 5.15937 44.8944 4.82661 44.6453 4.49384L44.6426 4.49035L44.642 4.48947L44.6221 4.46285C44.3523 4.11288 44.0922 3.75065 43.8316 3.38763C43.8316 3.38763 43.8316 3.38762 43.8316 3.38762L43.8316 3.38759C43.8316 3.38757 43.8316 3.38755 43.8316 3.38753M38.9092 7.93844C38.9066 8.15172 38.9042 8.365 38.9019 8.57827C38.9042 8.365 38.9066 8.15173 38.9092 7.93846C38.9092 7.93845 38.9092 7.93845 38.9092 7.93844ZM38.8743 21.8175C38.8743 21.8175 38.8743 21.8175 38.8743 21.8175ZM33.5256 71.5344C33.5244 71.5344 33.5232 71.5344 33.522 71.5344L33.5255 71.5344C33.5256 71.5344 33.5256 71.5344 33.5256 71.5344ZM37.6159 49.0625C37.6159 49.0625 37.6159 49.0625 37.616 49.0625C37.6423 49.062 37.6687 49.0615 37.6951 49.061M38.1792 41.7736C38.1872 41.7736 38.1952 41.7736 38.2032 41.7736C38.1952 41.7736 38.1872 41.7736 38.1792 41.7736C38.1792 41.7736 38.1792 41.7736 38.1792 41.7736ZM38.8607 38.6693C38.5971 38.669 38.3336 38.6687 38.0701 38.6684C38.1064 38.6684 38.1428 38.6685 38.1792 38.6685L38.8605 38.6693H38.8607ZM38.8734 34.9462C38.8733 35.0237 38.8732 35.1012 38.8732 35.1787C38.8732 35.1019 38.8733 35.0252 38.8734 34.9484V34.9462ZM42.2194 8.08607C42.218 7.69226 42.2165 7.29847 42.2149 6.90469C42.4506 7.22064 42.6864 7.53652 42.9222 7.85235C46.4592 12.5898 50.005 17.3146 53.5554 22.0441C58.0791 27.6551 60.7871 34.8507 60.5226 42.0983M42.2305 33.7129C42.6233 33.7129 43.016 33.7126 43.4088 33.7123C43.4088 33.7123 43.4087 33.7123 43.4086 33.7123L43.3948 33.7123C43.0067 33.7126 42.6186 33.7129 42.2305 33.7129ZM42.1378 74.8391C43.0119 74.8394 43.886 74.8397 44.7601 74.84C43.8862 74.8397 43.0123 74.8394 42.1385 74.8391C42.1382 74.8391 42.138 74.8391 42.1378 74.8391ZM44.7266 80.6387C44.3188 80.6388 43.911 80.639 43.5033 80.6392C42.9596 80.6394 42.4159 80.6396 41.8722 80.6398C42.4162 80.6396 42.9603 80.6394 43.5043 80.6392C43.9117 80.639 44.3191 80.6388 44.7266 80.6387ZM56.1129 20.9653C60.6619 26.8124 63.2646 34.1743 63.2053 41.5814C62.8209 46.0573 62.4213 50.5389 62.0216 55.0222L62.0216 55.0226L62.0215 55.0241C61.5329 60.5042 61.0441 65.9868 60.5825 71.4649L60.5179 72.2316L61.2783 72.2335C61.6023 72.2343 61.9208 72.2284 62.2349 72.2225C63.0171 72.2079 63.7719 72.1939 64.5163 72.2855C65.5246 72.4095 66.3765 72.7191 67.0266 73.4184L67.0419 73.4349L67.0581 73.4503C67.8005 74.1533 68.1236 75.0724 68.2421 76.1494C68.3354 76.9973 68.2977 77.8706 68.259 78.7664V78.7665C68.2474 79.0359 68.2357 79.3073 68.2274 79.5807C68.0847 81.7591 65.8691 83.3925 63.6159 83.2863L63.5995 83.2856L63.5547 83.2856H63.5491C48.1735 83.2908 32.8034 83.296 17.4334 83.2856L17.4233 83.2856L17.4132 83.2859C15.2923 83.3464 13.191 81.935 12.9124 79.9312L12.9113 79.9237C12.7302 78.7155 12.6165 77.4237 12.776 76.2345C12.9344 75.0546 13.3545 74.0246 14.2026 73.2667L14.2121 73.258C14.9536 72.5706 15.8878 72.3113 16.9834 72.2385C17.5323 72.202 18.1024 72.2134 18.6938 72.2337C18.7983 72.2373 18.9039 72.2412 19.0102 72.2452L19.0152 72.2454C19.4975 72.2632 19.9945 72.2816 20.4722 72.275L21.2399 72.2644L21.1587 71.4917C20.65 66.6523 20.1089 61.815 19.5681 56.9814C19.0279 52.1522 18.4879 47.3258 17.9803 42.4972C17.5497 35.0504 20.0611 27.532 24.5324 21.5683L24.5336 21.5667C26.2989 19.1985 28.0714 16.8335 29.8444 14.4678L29.8445 14.4677C32.824 10.4922 35.8049 6.51482 38.7552 2.51772L38.7657 2.50351L38.7755 2.48879C39.2144 1.82745 39.8384 1.31359 40.5707 0.833069C41.2072 1.2614 41.7481 1.82089 42.265 2.46276C42.5695 2.84074 42.8595 3.2393 43.1566 3.65262L43.2648 3.80334L43.2649 3.80348C43.5239 4.16423 43.7905 4.53562 44.0671 4.89467L44.0841 4.91736L44.1888 5.05717C48.1573 10.3581 52.1263 15.6595 56.1056 20.9559L56.1129 20.9653ZM39.6258 6.69703L39.6597 4.38883L38.3523 6.28041C36.5472 8.89198 34.6429 11.4078 32.7285 13.937L32.7284 13.9372L32.7248 13.942C31.614 15.4096 30.4998 16.8816 29.3996 18.3795L29.3958 18.3848C28.8554 19.135 28.2813 19.8856 27.6998 20.6459L27.6998 20.646C26.2321 22.5649 24.7175 24.5452 23.5805 26.734C21.139 31.281 19.7394 36.4601 19.8406 41.6603L19.8412 41.6916L19.8445 41.7227C20.5414 48.2241 21.2671 54.7249 21.9926 61.223C22.3797 64.691 22.7668 68.1583 23.1494 71.6245L23.2192 72.2575L23.8486 72.2543C27.0678 72.2376 30.2848 72.2402 33.5041 72.2428H33.5051C35.2957 72.2443 37.087 72.2458 38.8799 72.2439L39.5802 72.2432L39.5792 71.5345C39.5688 64.0382 39.5688 56.5471 39.5792 49.056L39.5802 48.3591L38.8917 48.3466C38.469 48.339 38.0153 48.3469 37.577 48.3545H37.5767C37.2796 48.3597 36.9896 48.3647 36.7211 48.3647C36.0178 48.3647 35.3521 48.3338 34.7111 48.2087L34.6895 48.2045L34.6678 48.2016C34.384 48.1647 34.1922 47.9939 34.0732 47.6752C33.9558 47.3606 33.9418 46.9606 34.0215 46.6216C34.392 46.0866 34.9711 45.9296 35.8717 45.9447C36.2035 45.9502 36.533 45.9774 36.8852 46.0065L36.8864 46.0066C37.0434 46.0195 37.205 46.0329 37.3734 46.0448C37.8903 46.0815 38.4561 46.1031 38.9892 46.0131L39.5766 45.9139L39.574 45.3111C39.5688 44.1338 39.5688 42.9577 39.5792 41.7825L39.5854 41.0711L38.8825 41.0678C37.0678 41.0592 35.2616 41.0647 33.4584 41.0702L33.456 41.0702H33.4554C30.8698 41.0781 28.2903 41.0859 25.7009 41.0522L25.611 41.0511L25.5238 41.0729C25.2901 41.1314 25.025 41.0289 24.8267 40.7367C24.6206 40.433 24.6198 40.117 24.7284 39.9364L24.7748 39.8592L24.8006 39.7726C24.8407 39.638 24.9265 39.5401 25.184 39.465C25.4702 39.3816 25.8251 39.3729 26.2206 39.3674C30.4228 39.3674 34.6302 39.3726 38.8381 39.3777L38.8581 39.3778L39.5836 39.3787L39.5792 38.6649C39.5714 37.4244 39.5724 36.1878 39.5734 34.9489C39.5737 34.5355 39.574 34.1218 39.574 33.7077V33.0087L38.8833 32.9994C38.354 32.9923 37.8477 33.002 37.3551 33.0114L37.3546 33.0114C36.3594 33.0306 35.4207 33.0486 34.4639 32.9245C34.163 32.7336 33.9806 32.3846 33.9648 31.9766C33.9486 31.5561 34.1142 31.1722 34.4056 30.9505C35.048 30.741 35.7333 30.6729 36.474 30.6598C36.8516 30.6531 37.2328 30.6606 37.6287 30.6684L37.6593 30.669C38.0613 30.677 38.4786 30.6848 38.8949 30.6753L39.5773 30.6598L39.5792 29.969C39.5865 27.2446 39.5804 24.5249 39.5743 21.8075V21.8071V21.8068C39.563 16.7678 39.5517 11.7365 39.6258 6.69703ZM42.7736 6.4778L41.5063 4.77924L41.5149 6.9076C41.5404 13.193 41.5346 19.4816 41.5288 25.773V25.7745C41.5275 27.1717 41.5263 28.5691 41.5253 29.9666L41.5248 30.6547L42.2045 30.6752C42.6116 30.6875 43.0189 30.6809 43.4125 30.6725L43.5777 30.6689H43.5777C43.9171 30.6614 44.2453 30.6542 44.5728 30.6566C45.3074 30.6621 45.987 30.7169 46.6261 30.9091C47.0058 31.1318 47.1364 31.4634 47.1102 31.8648C47.0853 32.246 46.9112 32.6682 46.6439 33.0079C45.5626 33.0021 44.4832 33.003 43.4068 33.0039H43.4062H43.4049C43.013 33.0042 42.6215 33.0045 42.2305 33.0045H41.5305V39.3717L42.2296 39.3726C44.7473 39.3757 47.2664 39.3732 49.7856 39.3707H49.7859C51.4661 39.3691 53.1464 39.3674 54.8264 39.3674H54.8402L54.8539 39.3668C55.222 39.3522 55.5636 39.3708 55.8309 39.458C56.0753 39.5376 56.2133 39.6567 56.2897 39.8461L56.3238 39.9308L56.3781 40.004C56.4488 40.0993 56.4935 40.3397 56.3415 40.6368C56.1934 40.9263 55.9863 41.0214 55.8478 41.0122L55.8129 41.0098L55.7779 41.011C53.1454 41.1017 50.5436 41.0867 47.9252 41.0715H47.9252H47.9247C46.0344 41.0605 44.1354 41.0495 42.2098 41.0782L41.517 41.0886L41.5388 46.018L42.2309 46.0227C42.7208 46.026 43.1952 46.0181 43.6602 46.0103H43.6605C44.6598 45.9936 45.6155 45.9776 46.5868 46.0759C46.9216 46.296 47.1271 46.6907 47.1436 47.1119C47.1604 47.5432 46.9795 47.9216 46.6092 48.1236C45.9709 48.3094 45.2933 48.3611 44.5616 48.3647C44.2367 48.3663 43.9111 48.3587 43.5746 48.3507L43.5743 48.3507L43.4102 48.3469C43.0197 48.3379 42.6158 48.3307 42.2119 48.3416L41.531 48.3599L41.5305 49.0493C41.5283 52.2637 41.5289 55.4758 41.5296 58.6871C41.5304 62.9683 41.5312 67.248 41.5253 71.5293L41.5243 72.238L42.2246 72.2387C44.8371 72.2413 47.4507 72.2413 50.064 72.2413H50.0873C52.6929 72.2413 55.2982 72.2413 57.9021 72.2439L58.5415 72.2445L58.5998 71.6C59.0211 66.9415 59.4312 62.289 59.8412 57.6374C60.2957 52.4807 60.7501 47.3251 61.2196 42.1633L61.2214 42.1439L61.2221 42.1245C61.4935 34.6881 58.7184 27.3318 54.1055 21.6058C50.3208 16.5643 46.5419 11.5287 42.7736 6.4778ZM42.2149 6.90469C42.2165 7.29847 42.218 7.69227 42.2194 8.08607ZM64.7709 74.3075C64.2064 74.1109 63.5933 74.0915 63.0914 74.1261C56.1107 74.1356 49.126 74.1331 42.1406 74.1307H42.1402H42.131C33.8822 74.1277 25.6325 74.1248 17.3871 74.1416C16.8348 74.0774 16.3372 74.1891 15.9182 74.4501C15.4964 74.7128 15.1993 75.0981 14.9971 75.5026C14.6176 76.262 14.5171 77.1964 14.6053 77.9518C14.5173 78.7293 14.7034 79.5865 15.1479 80.2483C15.6225 80.9549 16.4198 81.4631 17.4535 81.3308C26.1354 81.3544 34.822 81.351 43.5072 81.3476H43.5208C50.0251 81.3451 56.5286 81.3425 63.0286 81.3514C64.3409 81.5164 65.399 80.8407 66.1736 80.1204L66.4119 79.8987L66.3995 79.5714C66.3862 79.2236 66.3841 78.8528 66.382 78.4692C66.3771 77.6131 66.3719 76.6934 66.2416 75.8244L66.2312 75.7551L66.2076 75.6892C65.9369 74.9342 65.3661 74.5149 64.7709 74.3075Z" fill="#BAA1C6"/>
</svg>
