<svg width="80" height="84" viewBox="0 0 80 84" fill="none" xmlns="http://www.w3.org/2000/svg">
<path fill-rule="evenodd" clip-rule="evenodd" d="M19.7581 71.561C19.7453 71.5607 19.7324 71.5604 19.7195 71.5601C19.7324 71.5604 19.7452 71.5607 19.7581 71.561C19.7581 71.561 19.7581 71.561 19.7581 71.561ZM20.388 70.8589C20.388 70.859 20.388 70.8592 20.388 70.8593L20.388 70.859C20.388 70.859 20.388 70.8589 20.388 70.8589ZM38.9092 7.93844C38.9066 8.15172 38.9042 8.365 38.9019 8.57827C38.9042 8.365 38.9066 8.15173 38.9092 7.93846C38.9092 7.93845 38.9092 7.93845 38.9092 7.93844ZM33.5256 71.5344C33.5244 71.5344 33.5232 71.5344 33.522 71.5344L33.5255 71.5344C33.5256 71.5344 33.5256 71.5344 33.5256 71.5344ZM37.6951 49.061C37.6687 49.0615 37.6423 49.062 37.6159 49.0625L37.6951 49.061ZM38.8733 34.9462C38.8733 35.0237 38.8732 35.1012 38.8732 35.1787C38.8732 35.1019 38.8733 35.0252 38.8733 34.9485V34.9462ZM42.2193 8.08607C42.218 7.69227 42.2165 7.29847 42.2149 6.90469C42.4506 7.22064 42.6864 7.53652 42.9222 7.85235C42.921 7.85071 42.9197 7.84906 42.9185 7.84742L42.2149 6.90469C42.2165 7.29847 42.218 7.69227 42.2193 8.08607ZM42.2305 33.7129C42.6232 33.7129 43.016 33.7126 43.4088 33.7123C43.4088 33.7123 43.4087 33.7123 43.4086 33.7123H43.4084C43.0157 33.7126 42.6231 33.7129 42.2305 33.7129ZM42.138 74.8391C43.0121 74.8394 43.8862 74.8397 44.7603 74.84C43.8908 74.8397 43.0213 74.8394 42.1518 74.8391H42.1385H42.138ZM45.9493 80.6382C45.1337 80.6385 44.3181 80.6388 43.5026 80.6392L43.5043 80.6392C44.3193 80.6389 45.1343 80.6385 45.9493 80.6382ZM56.1129 20.9653C60.6619 26.8124 63.2645 34.1743 63.2053 41.5814C62.8209 46.0574 62.4213 50.5391 62.0216 55.0225L62.0216 55.0226L62.0215 55.0239C61.5329 60.504 61.0441 65.9867 60.5825 71.4649L60.5179 72.2316L61.2783 72.2335C61.6023 72.2343 61.9208 72.2284 62.2349 72.2225C63.0171 72.2079 63.7719 72.1939 64.5163 72.2855C65.5246 72.4095 66.3765 72.7191 67.0266 73.4184L67.0419 73.4348L67.0581 73.4503C67.8005 74.1533 68.1236 75.0724 68.2421 76.1494C68.3354 76.9973 68.2977 77.8706 68.259 78.7664V78.7665C68.2474 79.0359 68.2357 79.3073 68.2274 79.5807C68.0847 81.7591 65.8691 83.3925 63.6159 83.2863L63.5995 83.2856L63.5547 83.2856C48.1772 83.2908 32.8053 83.296 17.4334 83.2856L17.4233 83.2856L17.4132 83.2859C15.2923 83.3464 13.191 81.935 12.9124 79.9312L12.9113 79.9237C12.7302 78.7155 12.6165 77.4237 12.776 76.2345C12.9344 75.0546 13.3545 74.0246 14.2026 73.2667L14.2121 73.258C14.9536 72.5706 15.8878 72.3113 16.9834 72.2385C17.5323 72.202 18.1024 72.2134 18.6938 72.2337C18.7999 72.2374 18.9072 72.2414 19.0152 72.2454C19.4975 72.2632 19.9945 72.2816 20.4722 72.275L21.2399 72.2644L21.1587 71.4917C20.65 66.6523 20.1089 61.815 19.5681 56.9814C19.0279 52.1522 18.4879 47.3258 17.9803 42.4972C17.5496 35.0504 20.0611 27.532 24.5324 21.5683L24.5335 21.5667C26.2989 19.1985 28.0715 16.8334 29.8445 14.4677C32.824 10.4922 35.8049 6.51482 38.7552 2.51772L38.7657 2.50351L38.7755 2.48879C39.2144 1.82745 39.8384 1.31359 40.5707 0.833069C41.2072 1.2614 41.7481 1.82089 42.265 2.46276C42.5695 2.84074 42.8595 3.2393 43.1566 3.65262L43.2648 3.80334L43.2649 3.80347C43.5239 4.16423 43.7905 4.53562 44.0671 4.89467L44.0841 4.91736L44.1903 5.05926C48.1584 10.3595 52.1268 15.6602 56.1056 20.9559L56.1129 20.9653ZM65.6807 78.4052C65.681 78.4549 65.6812 78.5046 65.6815 78.5544C65.6812 78.5047 65.681 78.455 65.6807 78.4054M39.6258 6.69703L39.6597 4.38883L38.3523 6.28041C36.5472 8.89198 34.6429 11.4078 32.7285 13.937L32.7284 13.9372L32.7246 13.9422C31.6139 15.4097 30.4997 16.8817 29.3996 18.3795L29.3958 18.3848C28.8554 19.135 28.2813 19.8857 27.6998 20.6459L27.6998 20.646C26.2321 22.5649 24.7175 24.5452 23.5805 26.734C21.139 31.281 19.7394 36.4601 19.8406 41.6603L19.8412 41.6916L19.8445 41.7227C20.5414 48.2241 21.2671 54.7249 21.9926 61.223C22.3797 64.691 22.7668 68.1583 23.1494 71.6245L23.2192 72.2575L23.8486 72.2543C27.0678 72.2376 30.2848 72.2402 33.5041 72.2428H33.5051C35.2957 72.2443 37.087 72.2458 38.8799 72.2439L39.5802 72.2432L39.5792 71.5345C39.5688 64.0382 39.5688 56.5471 39.5792 49.056L39.5802 48.3591L38.8917 48.3466C38.4689 48.339 38.0151 48.3469 37.5766 48.3545L37.5758 48.3545C37.2791 48.3597 36.9894 48.3647 36.7211 48.3647C36.0178 48.3647 35.3521 48.3338 34.7111 48.2087L34.6895 48.2045L34.6678 48.2016C34.384 48.1647 34.1922 47.9939 34.0732 47.6752C33.9558 47.3606 33.9418 46.9606 34.0215 46.6216C34.392 46.0866 34.9711 45.9296 35.8717 45.9447C36.2035 45.9502 36.5329 45.9774 36.8852 46.0065C37.0426 46.0195 37.2046 46.0329 37.3734 46.0448C37.8903 46.0815 38.4561 46.1031 38.9892 46.0131L39.5766 45.9139L39.574 45.3111C39.5688 44.1338 39.5688 42.9577 39.5792 41.7825L39.5854 41.0711L38.8825 41.0678C37.0673 41.0592 35.2606 41.0647 33.4569 41.0702H33.456C30.8702 41.0781 28.2905 41.0859 25.7009 41.0522L25.611 41.0511L25.5238 41.0729C25.2901 41.1314 25.025 41.0289 24.8267 40.7367C24.6205 40.433 24.6198 40.117 24.7283 39.9364L24.7748 39.8592L24.8006 39.7726C24.8407 39.638 24.9265 39.5401 25.184 39.465C25.4702 39.3816 25.8251 39.3729 26.2206 39.3674C30.4228 39.3674 34.6302 39.3726 38.838 39.3777L38.8581 39.3778L39.5836 39.3787L39.5792 38.6649C39.5714 37.4244 39.5724 36.1878 39.5733 34.9489C39.5737 34.5355 39.574 34.1218 39.574 33.7077V33.0087L38.8833 32.9994C38.3539 32.9923 37.8473 33.002 37.3546 33.0115C36.3594 33.0306 35.4207 33.0486 34.4639 32.9245C34.163 32.7336 33.9806 32.3846 33.9648 31.9766C33.9486 31.5561 34.1142 31.1722 34.4056 30.9505C35.0479 30.741 35.7333 30.6729 36.474 30.6598C36.8516 30.6531 37.2328 30.6606 37.6287 30.6684L37.6592 30.669C38.0613 30.677 38.4786 30.6848 38.8949 30.6753L39.5773 30.6598L39.5792 29.969C39.5865 27.2446 39.5804 24.5249 39.5743 21.8075V21.8071V21.8068C39.563 16.7678 39.5517 11.7365 39.6258 6.69703ZM42.7736 6.4778L41.5063 4.77925L41.5149 6.9076C41.5404 13.193 41.5346 19.4816 41.5288 25.773V25.7745C41.5275 27.1717 41.5262 28.5691 41.5253 29.9666L41.5248 30.6547L42.2045 30.6752C42.6116 30.6875 43.0189 30.6809 43.4125 30.6725L43.5777 30.6689C43.9171 30.6614 44.2453 30.6542 44.5728 30.6566C45.3074 30.6621 45.987 30.7169 46.6261 30.9091C47.0058 31.1318 47.1364 31.4634 47.1102 31.8648C47.0853 32.246 46.9112 32.6682 46.6439 33.0079C45.5626 33.0021 44.4831 33.003 43.4068 33.0039H43.4062C43.0139 33.0042 42.6219 33.0045 42.2305 33.0045H41.5305V39.3717L42.2296 39.3726C44.7473 39.3757 47.2664 39.3732 49.7856 39.3707H49.7859C51.4661 39.3691 53.1464 39.3674 54.8264 39.3674H54.8401L54.8539 39.3668C55.222 39.3522 55.5636 39.3708 55.8309 39.458C56.0753 39.5376 56.2133 39.6567 56.2897 39.8461L56.3238 39.9308L56.3781 40.004C56.4488 40.0993 56.4934 40.3397 56.3415 40.6368C56.1933 40.9263 55.9863 41.0214 55.8478 41.0122L55.8129 41.0098L55.7779 41.011C53.1455 41.1017 50.5438 41.0867 47.9255 41.0715H47.9252C46.0347 41.0605 44.1355 41.0495 42.2098 41.0782L41.517 41.0886L41.5387 46.018L42.2309 46.0227C42.7208 46.026 43.1952 46.0181 43.6602 46.0103H43.6605C44.6598 45.9936 45.6155 45.9776 46.5868 46.0759C46.9216 46.296 47.1271 46.6907 47.1436 47.1119C47.1604 47.5432 46.9795 47.9216 46.6092 48.1236C45.9709 48.3094 45.2932 48.3611 44.5615 48.3647C44.2366 48.3663 43.9109 48.3587 43.5742 48.3507L43.4102 48.3469C43.0197 48.3379 42.6158 48.3307 42.2118 48.3416L41.531 48.3599L41.5305 49.0493C41.5283 52.2637 41.5289 55.4758 41.5295 58.6871C41.5304 62.9683 41.5312 67.248 41.5253 71.5293L41.5243 72.238L42.2246 72.2387C44.8371 72.2413 47.4507 72.2413 50.064 72.2413H50.0873C52.6929 72.2413 55.2982 72.2413 57.9021 72.2439L58.5415 72.2445L58.5998 71.6C59.0211 66.9415 59.4312 62.289 59.8412 57.6374C60.2957 52.4807 60.75 47.3251 61.2196 42.1633L61.2214 42.1439L61.2221 42.1245C61.4935 34.6881 58.7184 27.3318 54.1055 21.6058C50.3208 16.5643 46.5419 11.5287 42.7736 6.4778ZM64.7709 74.3075C64.2064 74.1109 63.5933 74.0915 63.0914 74.1261C56.1105 74.1356 49.1257 74.1331 42.1402 74.1307H42.1215C33.8758 74.1277 25.6293 74.1248 17.3871 74.1416C16.8348 74.0774 16.3372 74.1891 15.9182 74.4501C15.4964 74.7128 15.1993 75.0981 14.9971 75.5026C14.6176 76.262 14.5171 77.1964 14.6052 77.9518C14.5173 78.7293 14.7034 79.5865 15.1479 80.2483C15.6225 80.9549 16.4198 81.4631 17.4535 81.3308C26.1354 81.3544 34.822 81.351 43.5072 81.3476H43.5077C50.0164 81.3451 56.5242 81.3425 63.0286 81.3514C64.3409 81.5164 65.399 80.8407 66.1736 80.1204L66.4119 79.8987L66.3995 79.5714C66.3862 79.2236 66.3841 78.8528 66.382 78.4692C66.3771 77.6131 66.3719 76.6934 66.2416 75.8244L66.2312 75.7551L66.2075 75.6892C65.9369 74.9342 65.3661 74.5149 64.7709 74.3075ZM38.8743 21.8175C38.8743 21.8175 38.8743 21.8175 38.8743 21.8175V21.8175Z" fill="#BAA1C6"/>
</svg>
