<svg width="80" height="84" viewBox="0 0 80 84" fill="none" xmlns="http://www.w3.org/2000/svg">
<path fill-rule="evenodd" clip-rule="evenodd" d="M32.6363 38.2814L32.6444 38.2768L32.6524 38.272C37.4787 35.3438 44.06 35.5384 48.7066 38.7354L48.7142 38.7407L48.722 38.7457C50.8452 40.1249 52.4796 42.1497 53.6847 44.402L54.0598 45.1029L54.7076 44.6422C59.3108 41.3688 64.343 38.5444 69.8872 37.5745C72.4065 37.1307 74.9972 37.0309 77.4199 37.646C77.5001 37.9244 77.5567 38.1727 77.5627 38.4002C77.57 38.679 77.5015 38.8503 77.3147 38.9929L77.2851 39.0156L77.258 39.0413C69.304 46.5822 63.031 57.0732 63.6218 68.4318L63.6543 69.0553L64.2774 69.0941C65.9568 69.1987 67.4956 70.2166 67.7869 71.714C68.0647 73.589 68.1192 75.4592 67.0281 76.7231L67.0251 76.7266C66.3629 77.5038 65.2365 77.8521 64.088 77.794L64.0706 77.7931L64.0532 77.7931C55.9844 77.7866 47.9168 77.7877 39.8496 77.7888H39.8372H39.8371C31.7739 77.7898 23.7111 77.7909 15.6473 77.7844L15.6227 77.7844L15.5982 77.7861C13.9182 77.9028 12.3227 76.5496 12.1673 74.9219C12.1598 74.7246 12.1503 74.53 12.141 74.3378L12.1408 74.3338C12.1063 73.6227 12.0733 72.9441 12.1456 72.2849C12.2352 71.469 12.48 70.7881 13.0301 70.2612L13.0595 70.2332L13.0854 70.2019C13.7732 69.3705 14.9487 69.2 16.316 69.1469L16.9551 69.122L16.9879 68.4834C17.5813 56.9486 11.153 46.3175 2.99998 38.7187L3.00768 38.6436C3.01551 38.567 3.0229 38.4947 3.03002 38.4331C3.05458 38.2207 3.08349 38.046 3.12768 37.903C3.17159 37.761 3.21857 37.691 3.25275 37.6569C3.27581 37.6338 3.31897 37.5987 3.43734 37.5845L3.47654 37.5798L3.51496 37.5707C6.22466 36.9302 9.12111 37.2142 11.9245 37.8113C17.0093 38.9736 21.6348 41.5995 25.9014 44.6417L26.5554 45.108L26.9279 44.3965C28.2449 41.8815 30.177 39.6856 32.6363 38.2814ZM7.49226 38.9026L5.73995 38.7931L6.93622 40.0782C14.1314 47.8077 19.311 57.9113 18.774 68.4899L18.7367 69.2254H61.879L61.8401 68.4885C61.2817 57.9071 66.4777 47.804 73.6738 40.0649L74.8705 38.7779L73.1166 38.8897C66.3216 39.3228 60.2287 42.7369 55.0308 46.6214L54.6897 46.8763L54.7593 47.2965C55.0987 49.3455 55.2879 51.3539 54.9038 53.3066L54.9019 53.316L54.9003 53.3255C54.13 57.9026 50.9438 62.0431 46.6443 63.9706L46.635 63.9748L46.6258 63.9792C40.8811 66.7587 33.3973 65.2605 29.213 60.4998L29.2082 60.4943L29.2033 60.489C25.988 56.9803 24.815 51.9243 25.8261 47.3058L25.9228 46.8643L25.5601 46.5945C20.3627 42.7278 14.2785 39.3268 7.49226 38.9026ZM13.9765 71.2426L13.5877 71.4355V75.6051L13.9995 75.7911C14.0696 75.8228 14.1496 75.8607 14.236 75.9016L14.2361 75.9017C14.4471 76.0016 14.6958 76.1195 14.9294 76.2077C15.2791 76.3397 15.69 76.4476 16.153 76.425C24.0639 76.4337 31.9758 76.4326 39.8877 76.4315C47.8061 76.4304 55.7245 76.4293 63.6428 76.438L63.6595 76.438L63.6761 76.4372C63.7338 76.4346 63.7987 76.4324 63.8687 76.4301C64.0838 76.4229 64.3464 76.4142 64.5892 76.3839C64.9297 76.3413 65.3194 76.2497 65.687 76.019L65.785 75.9575L65.858 75.8677C66.3538 75.258 66.5324 74.5324 66.5613 73.8541C66.59 73.179 66.4729 72.5067 66.3331 71.9444C66.2424 71.5755 66.051 71.2807 65.7856 71.0656C65.5316 70.8597 65.2425 70.7529 64.9861 70.6927C64.6239 70.6076 64.1862 70.5946 63.8872 70.5857C63.801 70.5831 63.7263 70.5809 63.6682 70.5774L63.6469 70.5761L63.6254 70.5761C54.9884 70.5832 46.3529 70.5826 37.717 70.5819H37.7169C30.5306 70.5814 23.3441 70.5809 16.1563 70.5848C15.6833 70.547 15.2651 70.6554 14.9117 70.794C14.6555 70.8945 14.3928 71.0295 14.1745 71.1418L14.1744 71.1419C14.1031 71.1785 14.0366 71.2128 13.9765 71.2426ZM39.9556 37.5715C33.3437 37.68 27.4902 43.1022 26.952 49.6021C26.5022 54.3116 28.8729 59.144 32.8781 61.7398C37.0594 64.5895 42.8319 64.7051 47.1541 62.0978C51.8876 59.3724 54.6104 53.5642 53.4181 48.2347C52.3005 42.0472 46.2703 37.3646 39.9556 37.5715Z" fill="#BAA1C6"/>
</svg>
