<svg width="816" height="673" viewBox="0 0 816 673" fill="none" xmlns="http://www.w3.org/2000/svg">
<path opacity="0.8" d="M0.499995 61.5984L0.499945 611.402C0.499943 631.31 18.8951 647.555 41.7272 647.555L0.499995 61.5984ZM0.499995 61.5984C0.499997 41.6902 18.8951 25.4448 41.7272 25.4448L374.966 25.4448C383.878 25.4448 392.264 19.07 398.361 12.8216C401.423 9.68325 403.937 6.5469 405.685 4.19595C406.559 3.02005 407.242 2.03958 407.708 1.3522C407.817 1.19143 407.913 1.04666 407.998 0.919155C408.081 1.0458 408.176 1.18942 408.282 1.3489C408.739 2.03512 409.405 3.01431 410.247 4.18881C411.929 6.53701 414.313 9.67032 417.117 12.8058C419.92 15.9389 423.154 19.0877 426.539 21.4568C429.917 23.8203 433.496 25.4448 436.977 25.4448L610.624 25.4448L723.445 25.4448L760.326 25.4448L770.631 25.4448L773.343 25.4448L774.038 25.4448L774.214 25.4448L774.24 25.4448L774.258 25.4448L774.269 25.4448C774.27 25.4448 774.271 25.4448 774.271 25.4203C774.272 25.3779 774.273 25.262 774.273 24.9448L774.273 25.4448M0.499995 61.5984L774.273 25.4448M774.273 25.4448C797.105 25.4448 815.5 41.6902 815.5 61.5984L815.5 611.402C815.5 631.31 797.105 647.555 774.273 647.555L774.273 648.055C774.273 647.555 774.271 647.555 774.269 647.555L774.258 647.555L774.241 647.555L774.216 647.555L774.184 647.555L774.145 647.555L774.099 647.555L774.046 647.555L773.986 647.555L773.92 647.555L773.846 647.555L773.766 647.555L773.678 647.555L773.584 647.555L773.483 647.555L773.376 647.555L773.262 647.555L773.141 647.555L773.013 647.555L772.879 647.555L772.738 647.555L772.59 647.555L772.436 647.555L772.276 647.555L772.109 647.555L771.935 647.555L771.755 647.555L771.569 647.555L771.376 647.555L771.177 647.555L770.971 647.555L770.759 647.555L770.541 647.555L770.317 647.555L770.086 647.555L769.849 647.555L769.606 647.555L769.357 647.555L769.102 647.555L768.84 647.555L768.573 647.555L768.299 647.555L768.02 647.555L767.734 647.555L767.443 647.555L767.145 647.555L766.842 647.555L766.533 647.555L766.218 647.555L765.897 647.555L765.57 647.555L765.238 647.555L764.899 647.555L764.556 647.555L764.206 647.555L763.851 647.555L763.49 647.555L763.123 647.555L762.751 647.555L762.373 647.555L761.99 647.555L761.601 647.555L761.207 647.555L760.807 647.555L760.402 647.555L759.992 647.555L759.576 647.555L759.155 647.555L758.728 647.555L758.296 647.555L757.859 647.555L757.417 647.555L756.969 647.555L756.517 647.555L756.059 647.555L755.596 647.555L755.128 647.555L754.654 647.555L754.176 647.555L753.693 647.555L753.205 647.555L752.711 647.555L752.213 647.555L751.71 647.555L751.202 647.555L750.689 647.555L750.172 647.555L749.649 647.555L749.122 647.555L748.59 647.555L748.053 647.555L747.512 647.555L746.966 647.555L746.415 647.555L745.86 647.555L745.3 647.555L744.735 647.555L744.166 647.555L743.593 647.555L743.015 647.555L742.432 647.555L741.845 647.555L741.254 647.555L740.658 647.555L740.058 647.555L739.454 647.555L738.845 647.555L738.233 647.555L737.615 647.555L736.994 647.555L736.369 647.555L735.739 647.555L735.105 647.555L734.467 647.555L733.825 647.555L733.179 647.555L732.529 647.555L731.875 647.555L731.217 647.555L730.555 647.555L729.889 647.555L729.219 647.555L728.545 647.555L727.868 647.555L727.186 647.555L726.501 647.555L725.813 647.555L725.12 647.555L724.424 647.555L723.724 647.555L723.02 647.555L722.313 647.555L721.602 647.555L720.888 647.555L720.17 647.555L719.448 647.555L718.723 647.555L717.995 647.555L717.263 647.555L716.528 647.555L715.789 647.555L715.047 647.555L714.302 647.555L713.554 647.555L712.802 647.555L712.047 647.555L711.288 647.555L710.527 647.555L709.762 647.555L708.995 647.555L708.224 647.555L707.45 647.555L706.673 647.555L705.893 647.555L705.11 647.555L704.324 647.555L703.535 647.555L702.743 647.555L701.948 647.555L701.15 647.555L700.35 647.555L699.547 647.555L698.74 647.555L697.932 647.555L697.12 647.555L696.306 647.555L695.489 647.555L694.669 647.555L693.847 647.555L693.022 647.555L692.195 647.555L691.365 647.555L690.532 647.555L689.697 647.555L688.86 647.555L688.02 647.555L687.178 647.555L686.333 647.555L685.486 647.555L684.637 647.555L683.786 647.555L682.932 647.555L682.076 647.555L681.217 647.555L680.357 647.555L679.494 647.555L678.629 647.555L677.762 647.555L676.893 647.555L676.022 647.555L675.149 647.555L674.274 647.555L673.397 647.555L672.518 647.555L671.637 647.555L670.754 647.555L669.869 647.555L668.983 647.555L668.094 647.555L667.204 647.555L666.312 647.555L665.418 647.555L664.523 647.555L663.626 647.555L662.727 647.555L661.827 647.555L660.925 647.555L660.022 647.555L659.116 647.555L658.21 647.555L657.302 647.555L656.392 647.555L655.481 647.555L654.569 647.555L653.655 647.555L652.74 647.555L651.824 647.555L650.906 647.555L649.987 647.555L649.067 647.555L648.145 647.555L647.222 647.555L646.299 647.555L645.374 647.555L644.447 647.555L643.52 647.555L642.592 647.555L641.663 647.555L640.732 647.555L639.801 647.555L638.869 647.555L637.936 647.555L637.002 647.555L636.067 647.555L635.131 647.555L634.194 647.555L633.257 647.555L632.319 647.555L631.38 647.555L630.44 647.555L629.5 647.555L628.559 647.555L627.618 647.555L626.675 647.555L625.733 647.555L624.789 647.555L623.846 647.555L622.901 647.555L621.957 647.555L621.011 647.555L620.066 647.555L619.12 647.555L618.173 647.555L617.227 647.555L616.28 647.555L615.332 647.555L614.385 647.555L613.437 647.555L612.489 647.555L611.541 647.555L610.593 647.555L609.644 647.555L608.696 647.555L607.747 647.555L606.799 647.555L605.85 647.555L604.901 647.555L603.953 647.555L603.004 647.555L602.056 647.555L601.108 647.555L600.16 647.555L599.212 647.555L598.264 647.555L597.317 647.555L596.369 647.555L595.422 647.555L594.476 647.555L593.53 647.555L592.584 647.555L591.638 647.555L590.693 647.555L589.748 647.555L588.804 647.555L587.861 647.555L586.917 647.555L585.975 647.555L585.033 647.555L584.092 647.555L583.151 647.555L582.211 647.555L581.271 647.555L580.333 647.555L579.395 647.555L578.458 647.555L577.521 647.555L576.586 647.555L575.651 647.555L574.717 647.555L573.784 647.555L572.852 647.555L571.921 647.555L570.991 647.555L570.062 647.555L569.134 647.555L568.208 647.555L567.282 647.555L566.357 647.555L565.434 647.555L564.511 647.555L563.59 647.555L562.67 647.555L561.752 647.555L560.834 647.555L559.918 647.555L559.003 647.555L558.09 647.555L557.178 647.555L556.267 647.555L555.358 647.555L554.451 647.555L553.545 647.555L552.64 647.555L551.737 647.555L550.836 647.555L549.936 647.555L549.037 647.555L548.141 647.555L547.246 647.555L546.353 647.555L545.461 647.555L544.572 647.555L543.684 647.555L542.798 647.555L541.914 647.555L541.031 647.555L540.151 647.555L539.272 647.555L538.396 647.555L537.521 647.555L536.649 647.555L535.778 647.555L534.91 647.555L534.044 647.555L533.179 647.555L532.317 647.555L531.457 647.555L530.6 647.555L529.744 647.555L528.891 647.555L528.04 647.555L527.192 647.555L526.345 647.555L525.501 647.555L524.66 647.555L523.821 647.555L522.984 647.555L522.15 647.555L521.318 647.555L520.489 647.555L519.662 647.555L518.838 647.555L518.017 647.555L517.198 647.555L516.382 647.555L515.568 647.555L514.757 647.555L513.949 647.555L513.144 647.555L512.342 647.555L511.542 647.555L510.745 647.555L509.951 647.555L509.16 647.555L508.372 647.555L507.587 647.555L506.805 647.555L506.026 647.555L505.25 647.555L504.476 647.555L503.707 647.555L502.94 647.555L502.176 647.555L501.415 647.555L500.658 647.555L499.904 647.555L499.153 647.555L498.405 647.555L497.661 647.555L496.92 647.555L496.183 647.555L495.448 647.555L494.718 647.555L493.99 647.555L493.266 647.555L492.546 647.555L491.829 647.555L491.116 647.555L490.406 647.555L489.7 647.555L488.997 647.555L488.298 647.555L487.603 647.555L486.912 647.555L486.224 647.555L485.54 647.555L484.86 647.555L484.183 647.555L483.511 647.555L482.842 647.555L482.177 647.555L481.516 647.555L480.859 647.555L480.207 647.555L479.558 647.555L478.913 647.555L478.272 647.555L477.635 647.555L477.003 647.555L476.374 647.555L475.75 647.555L475.13 647.555L474.514 647.555L473.902 647.555L473.295 647.555L472.692 647.555L472.093 647.555L471.498 647.555L470.908 647.555L470.323 647.555L469.742 647.555L469.165 647.555L468.593 647.555L468.025 647.555L467.462 647.555L466.903 647.555L466.349 647.555L465.8 647.555L465.255 647.555L464.715 647.555L464.18 647.555L463.649 647.555L463.123 647.555L462.602 647.555L462.086 647.555L461.575 647.555L461.068 647.555L460.566 647.555L460.07 647.555L459.578 647.555L459.091 647.555L458.609 647.555L458.133 647.555L457.661 647.555L457.194 647.555L456.733 647.555L456.276 647.555L455.825 647.555L455.379 647.555L454.938 647.555L454.503 647.555L454.073 647.555L453.648 647.555L453.228 647.555L452.814 647.555L452.405 647.555L452.001 647.555L451.603 647.555L451.21 647.555L450.823 647.555L450.442 647.555L450.066 647.555L449.695 647.555L449.33 647.555L448.971 647.555L448.617 647.555L448.269 647.555L447.927 647.555L447.59 647.555L447.26 647.555L446.935 647.555L446.615 647.555L446.302 647.555L445.995 647.555L445.693 647.555L445.397 647.555L445.107 647.555L444.824 647.555L444.546 647.555L444.274 647.555L444.008 647.555L443.749 647.555L443.495 647.555L443.248 647.555L443.007 647.555L442.772 647.555L442.543 647.555L442.32 647.555L442.104 647.555L441.894 647.555L441.69 647.555L441.493 647.555L441.302 647.555L441.118 647.555L440.939 647.555L440.768 647.555L440.603 647.555L440.444 647.555L440.292 647.555L440.146 647.555L440.007 647.555L439.875 647.555C428.656 647.555 420.56 653.913 415.295 660.207C412.661 663.357 410.723 666.505 409.444 668.864C408.804 670.044 408.328 671.029 408.012 671.72C408.003 671.739 407.994 671.758 407.986 671.777C407.975 671.754 407.963 671.732 407.952 671.708C407.613 671.016 407.103 670.031 406.412 668.85C405.032 666.489 402.928 663.34 400.037 660.19C394.255 653.889 385.293 647.555 372.648 647.555L197.842 647.555L89.9291 647.555L54.9243 647.555L45.1698 647.555L42.6057 647.555L41.949 647.555L41.7829 647.555L41.7412 647.555L41.7307 647.555C41.7283 647.555 41.7272 647.555 41.7272 648.055L774.273 25.4448Z" fill="#1F103E" fill-opacity="0.2" stroke="#BAA1C6"/>
</svg>
