<svg width="723" height="689" viewBox="0 0 723 689" fill="none" xmlns="http://www.w3.org/2000/svg">
<path style="mix-blend-mode:color-dodge" d="M295.393 613.708C289.275 611.638 286.004 604.993 288.074 598.875C290.144 592.756 296.788 589.486 302.906 591.556C309.024 593.626 312.295 600.27 310.225 606.389C308.155 612.507 301.511 615.778 295.393 613.708Z" fill="url(#paint0_radial_13555_11094)"/>
<path style="mix-blend-mode:color-dodge" d="M283.923 579.159C277.805 577.089 274.534 570.444 276.604 564.326C278.674 558.207 285.318 554.936 291.436 557.006C297.554 559.076 300.825 565.721 298.755 571.839C296.685 577.958 290.041 581.229 283.923 579.159Z" fill="url(#paint1_radial_13555_11094)"/>
<path style="mix-blend-mode:color-dodge" d="M75.5612 464.829C72.1648 464.44 69.7289 461.375 70.1292 457.979C70.518 454.582 73.5828 452.146 76.9793 452.546C80.3757 452.935 82.8116 456 82.4113 459.397C82.0225 462.793 78.9577 465.229 75.5612 464.829Z" fill="url(#paint2_radial_13555_11094)"/>
<path style="mix-blend-mode:color-dodge" d="M72.5764 436.844C66.8699 436.192 62.7645 431.023 63.4277 425.316C64.0796 419.61 69.2486 415.504 74.9551 416.167C80.6616 416.819 84.7671 421.988 84.1038 427.695C83.452 433.402 78.2829 437.508 72.5764 436.844Z" fill="url(#paint3_radial_13555_11094)"/>
<path style="mix-blend-mode:color-dodge" d="M28.2167 288.286C19.6055 293.078 11.8291 283.277 18.4505 275.98C18.5992 275.809 18.7936 275.66 18.988 275.557C27.5992 270.765 35.3756 280.566 28.7542 287.863C28.6056 288.034 28.4111 288.183 28.2167 288.286Z" fill="url(#paint4_radial_13555_11094)"/>
<path style="mix-blend-mode:color-dodge" d="M256.58 382.19C254.052 381.332 252.703 378.587 253.56 376.06C254.418 373.532 257.163 372.183 259.69 373.041C262.217 373.898 263.567 376.643 262.709 379.171C261.851 381.698 259.107 383.048 256.58 382.19Z" fill="url(#paint5_radial_13555_11094)"/>
<path style="mix-blend-mode:color-dodge" d="M241.644 373.59C237.322 372.126 235 367.425 236.475 363.102C237.939 358.78 242.639 356.458 246.962 357.933C251.285 359.397 253.606 364.097 252.131 368.42C250.667 372.743 245.967 375.065 241.644 373.59Z" fill="url(#paint6_radial_13555_11094)"/>
<path style="mix-blend-mode:color-dodge" d="M259.667 358.379C255.344 356.915 253.023 352.215 254.498 347.892C255.962 343.569 260.662 341.248 264.985 342.723C269.308 344.187 271.629 348.887 270.154 353.21C268.69 357.533 263.99 359.855 259.667 358.379Z" fill="url(#paint7_radial_13555_11094)"/>
<path style="mix-blend-mode:color-dodge" d="M251.902 419.232C247.58 417.768 245.258 413.068 246.733 408.745C248.197 404.422 252.897 402.101 257.22 403.576C261.543 405.04 263.864 409.74 262.389 414.063C260.925 418.386 256.225 420.707 251.902 419.232Z" fill="url(#paint8_radial_13555_11094)"/>
<path style="mix-blend-mode:color-dodge" d="M231.581 413.846C229.305 413.068 228.081 410.598 228.859 408.322C229.637 406.046 232.107 404.822 234.383 405.6C236.658 406.378 237.882 408.848 237.104 411.124C236.327 413.4 233.856 414.623 231.581 413.846Z" fill="url(#paint9_radial_13555_11094)"/>
<path style="mix-blend-mode:color-dodge" d="M230.46 419.495C228.184 418.718 226.961 416.247 227.738 413.971C228.516 411.696 230.986 410.472 233.262 411.25C235.538 412.027 236.761 414.498 235.984 416.773C235.206 419.049 232.736 420.273 230.46 419.495Z" fill="url(#paint10_radial_13555_11094)"/>
<path style="mix-blend-mode:color-dodge" d="M246.71 400.522C244.435 399.745 243.211 397.274 243.989 394.998C244.766 392.723 247.236 391.499 249.512 392.277C251.788 393.054 253.012 395.525 252.234 397.8C251.456 400.076 248.986 401.3 246.71 400.522Z" fill="url(#paint11_radial_13555_11094)"/>
<path style="mix-blend-mode:color-dodge" d="M235.984 401.94C233.708 401.163 232.484 398.692 233.262 396.417C234.039 394.141 236.51 392.917 238.785 393.695C241.061 394.472 242.285 396.943 241.507 399.218C240.729 401.494 238.259 402.718 235.984 401.94Z" fill="url(#paint12_radial_13555_11094)"/>
<path style="mix-blend-mode:color-dodge" d="M242.113 423.338C239.837 422.56 238.614 420.09 239.391 417.814C240.169 415.538 242.639 414.315 244.915 415.092C247.191 415.87 248.414 418.34 247.637 420.616C246.859 422.892 244.389 424.116 242.113 423.338Z" fill="url(#paint13_radial_13555_11094)"/>
<path style="mix-blend-mode:color-dodge" d="M11.772 271.303C4.54449 270.468 -0.635955 263.949 0.198864 256.721C1.03368 249.493 7.55212 244.313 14.7796 245.148C22.0071 245.982 27.1875 252.501 26.3527 259.729C25.5179 266.957 18.9994 272.137 11.772 271.303Z" fill="url(#paint14_radial_13555_11094)"/>
<path style="mix-blend-mode:color-dodge" d="M373.671 263.434C370.275 263.046 367.839 259.981 368.239 256.584C368.628 253.187 371.693 250.751 375.089 251.152C378.486 251.541 380.922 254.605 380.521 258.002C380.133 261.399 377.068 263.835 373.671 263.434Z" fill="url(#paint15_radial_13555_11094)"/>
<path style="mix-blend-mode:color-dodge" d="M386.377 279.811C384.49 279.594 383.14 277.89 383.358 276.003C383.575 274.116 385.279 272.766 387.166 272.984C389.053 273.201 390.402 274.905 390.185 276.792C389.967 278.679 388.264 280.028 386.377 279.811Z" fill="url(#paint16_radial_13555_11094)"/>
<path style="mix-blend-mode:color-dodge" d="M315.143 284.763C311.746 284.374 309.31 281.309 309.711 277.913C310.099 274.516 313.164 272.08 316.561 272.481C319.957 272.869 322.393 275.934 321.993 279.331C321.604 282.728 318.539 285.163 315.143 284.763Z" fill="url(#paint17_radial_13555_11094)"/>
<path style="mix-blend-mode:color-dodge" d="M373.328 219.416C367.622 218.764 363.516 213.595 364.18 207.888C364.831 202.181 370 198.076 375.707 198.739C381.413 199.391 385.519 204.56 384.856 210.267C384.204 215.974 379.035 220.079 373.328 219.416Z" fill="url(#paint18_radial_13555_11094)"/>
<path style="mix-blend-mode:color-dodge" d="M394.027 240.424C386.8 239.59 381.619 233.071 382.454 225.843C383.289 218.615 389.807 213.435 397.035 214.269C404.262 215.104 409.443 221.623 408.608 228.851C407.773 236.079 401.255 241.259 394.027 240.424Z" fill="url(#paint19_radial_13555_11094)"/>
<path style="mix-blend-mode:color-dodge" d="M529.256 567.173C525.86 566.784 523.424 563.719 523.824 560.323C524.213 556.926 527.278 554.49 530.674 554.89C534.071 555.279 536.507 558.344 536.106 561.741C535.718 565.137 532.653 567.573 529.256 567.173Z" fill="url(#paint20_radial_13555_11094)"/>
<path style="mix-blend-mode:color-dodge" d="M30.4925 443.843C28.9944 443.672 27.908 442.311 28.0795 440.813C28.2511 439.314 29.6119 438.228 31.11 438.4C32.6081 438.571 33.6945 439.932 33.523 441.43C33.3515 442.928 31.9906 444.015 30.4925 443.843Z" fill="url(#paint21_radial_13555_11094)"/>
<path style="mix-blend-mode:color-dodge" d="M49.4874 435.575C47.9893 435.403 46.9029 434.042 47.0745 432.544C47.246 431.046 48.6069 429.96 50.105 430.131C51.6031 430.303 52.6895 431.664 52.5179 433.162C52.3464 434.66 50.9855 435.746 49.4874 435.575Z" fill="url(#paint22_radial_13555_11094)"/>
<path style="mix-blend-mode:color-dodge" d="M496.104 688.124C492.707 687.736 490.271 684.671 490.672 681.274C491.06 677.877 494.125 675.441 497.522 675.842C500.918 676.231 503.354 679.295 502.954 682.692C502.565 686.089 499.5 688.525 496.104 688.124Z" fill="url(#paint23_radial_13555_11094)"/>
<path style="mix-blend-mode:color-dodge" d="M528.753 643.854C523.047 643.202 518.941 638.033 519.604 632.326C520.256 626.619 525.425 622.514 531.132 623.177C536.838 623.829 540.944 628.998 540.281 634.705C539.629 640.412 534.46 644.517 528.753 643.854Z" fill="url(#paint24_radial_13555_11094)"/>
<path style="mix-blend-mode:color-dodge" d="M556.142 652.717C548.915 651.882 543.734 645.364 544.569 638.136C545.404 630.908 551.922 625.727 559.15 626.562C566.377 627.397 571.558 633.916 570.723 641.144C569.888 648.371 563.37 653.552 556.142 652.717Z" fill="url(#paint25_radial_13555_11094)"/>
<path style="mix-blend-mode:color-dodge" d="M279.177 64.773C275.78 64.3842 273.345 61.3192 273.745 57.9226C274.134 54.526 277.198 52.09 280.595 52.4903C283.991 52.8792 286.427 55.9441 286.027 59.3407C285.638 62.7373 282.573 65.1733 279.177 64.773Z" fill="url(#paint26_radial_13555_11094)"/>
<path style="mix-blend-mode:color-dodge" d="M313.233 109.089C309.836 108.7 307.401 105.635 307.801 102.239C308.19 98.842 311.254 96.4061 314.651 96.8064C318.047 97.1952 320.483 100.26 320.083 103.657C319.694 107.053 316.629 109.489 313.233 109.089Z" fill="url(#paint27_radial_13555_11094)"/>
<path style="mix-blend-mode:color-dodge" d="M52.335 103.794C48.9385 103.405 46.5027 100.34 46.9029 96.9436C47.2918 93.547 50.3566 91.111 53.753 91.5113C57.1495 91.9001 59.5853 94.9651 59.1851 98.3617C58.7962 101.758 55.7314 104.194 52.335 103.794Z" fill="url(#paint28_radial_13555_11094)"/>
<path style="mix-blend-mode:color-dodge" d="M83.8865 148.67C80.4901 148.281 78.0542 145.216 78.4545 141.82C78.8433 138.423 81.9081 135.987 85.3046 136.388C88.701 136.776 91.1369 139.841 90.7366 143.238C90.3478 146.635 87.283 149.07 83.8865 148.67Z" fill="url(#paint29_radial_13555_11094)"/>
<path style="mix-blend-mode:color-dodge" d="M42.0884 86.9367C38.692 86.5478 36.2561 83.4829 36.6564 80.0863C37.0452 76.6897 40.11 74.2537 43.5065 74.654C46.9029 75.0428 49.3388 78.1078 48.9385 81.5044C48.5497 84.901 45.4849 87.3369 42.0884 86.9367Z" fill="url(#paint30_radial_13555_11094)"/>
<path style="mix-blend-mode:color-dodge" d="M278.845 20.7545C273.139 20.1026 269.033 14.9334 269.696 9.2266C270.348 3.51985 275.517 -0.585809 281.224 0.0775006C286.93 0.729374 291.036 5.8986 290.373 11.6054C289.721 17.3121 284.552 21.4178 278.845 20.7545Z" fill="url(#paint31_radial_13555_11094)"/>
<path style="mix-blend-mode:color-dodge" d="M104.986 159.558C99.2792 158.906 95.1737 153.737 95.837 148.03C96.4889 142.323 101.658 138.218 107.364 138.881C113.071 139.533 117.176 144.702 116.513 150.409C115.861 156.115 110.692 160.221 104.986 159.558Z" fill="url(#paint32_radial_13555_11094)"/>
<path style="mix-blend-mode:color-dodge" d="M36.3705 169.988C30.664 169.336 26.5585 164.167 27.2218 158.46C27.8737 152.753 33.0427 148.647 38.7492 149.311C44.4557 149.963 48.5611 155.132 47.8978 160.839C47.246 166.545 42.077 170.651 36.3705 169.988Z" fill="url(#paint33_radial_13555_11094)"/>
<path style="mix-blend-mode:color-dodge" d="M299.544 41.763C292.317 40.9282 287.136 34.4094 287.971 27.1817C288.806 19.9539 295.324 14.7732 302.552 15.608C309.779 16.4429 314.96 22.9616 314.125 30.1894C313.29 37.4172 306.772 42.5979 299.544 41.763Z" fill="url(#paint34_radial_13555_11094)"/>
<path style="mix-blend-mode:color-dodge" d="M69.3973 63.2635C62.1698 62.4287 56.9894 55.9099 57.8242 48.6821C58.659 41.4544 65.1775 36.2737 72.4049 37.1085C79.6324 37.9434 84.8128 44.4621 83.978 51.6899C83.1432 58.9177 76.6248 64.0984 69.3973 63.2635Z" fill="url(#paint35_radial_13555_11094)"/>
<path style="mix-blend-mode:color-dodge" d="M659.983 333.473C629.026 329.917 606.817 301.943 610.374 270.985C613.931 240.027 641.903 217.817 672.86 221.374C703.816 224.931 726.025 252.904 722.468 283.862C718.912 314.809 690.94 337.03 659.983 333.473Z" fill="url(#paint36_radial_13555_11094)"/>
<path style="mix-blend-mode:color-dodge" d="M555.787 300.614C546.833 299.585 540.406 291.488 541.435 282.533C542.465 273.578 550.561 267.151 559.516 268.181C568.47 269.21 574.897 277.307 573.868 286.261C572.838 295.216 564.742 301.643 555.787 300.614Z" fill="url(#paint37_radial_13555_11094)"/>
<defs>
<radialGradient id="paint0_radial_13555_11094" cx="0" cy="0" r="1" gradientUnits="userSpaceOnUse" gradientTransform="translate(299.182 602.648) rotate(108.739) scale(11.6994 11.6989)">
<stop offset="0.07" stop-color="white"/>
<stop offset="0.25" stop-color="#BDBDBD"/>
<stop offset="0.45" stop-color="#7A7A7A"/>
<stop offset="0.64" stop-color="#454545"/>
<stop offset="0.79" stop-color="#1F1F1F"/>
<stop offset="0.92" stop-color="#080808"/>
<stop offset="1"/>
</radialGradient>
<radialGradient id="paint1_radial_13555_11094" cx="0" cy="0" r="1" gradientUnits="userSpaceOnUse" gradientTransform="translate(287.703 568.103) rotate(108.739) scale(11.6994 11.6989)">
<stop offset="0.07" stop-color="white"/>
<stop offset="0.25" stop-color="#BDBDBD"/>
<stop offset="0.45" stop-color="#7A7A7A"/>
<stop offset="0.64" stop-color="#454545"/>
<stop offset="0.79" stop-color="#1F1F1F"/>
<stop offset="0.92" stop-color="#080808"/>
<stop offset="1"/>
</radialGradient>
<radialGradient id="paint2_radial_13555_11094" cx="0" cy="0" r="1" gradientUnits="userSpaceOnUse" gradientTransform="translate(76.325 458.76) rotate(96.5497) scale(6.18707 6.18681)">
<stop offset="0.07" stop-color="white"/>
<stop offset="0.25" stop-color="#BDBDBD"/>
<stop offset="0.45" stop-color="#7A7A7A"/>
<stop offset="0.64" stop-color="#454545"/>
<stop offset="0.79" stop-color="#1F1F1F"/>
<stop offset="0.92" stop-color="#080808"/>
<stop offset="1"/>
</radialGradient>
<radialGradient id="paint3_radial_13555_11094" cx="0" cy="0" r="1" gradientUnits="userSpaceOnUse" gradientTransform="translate(73.8261 426.587) rotate(96.5497) scale(10.4071 10.4066)">
<stop offset="0.07" stop-color="white"/>
<stop offset="0.25" stop-color="#BDBDBD"/>
<stop offset="0.45" stop-color="#7A7A7A"/>
<stop offset="0.64" stop-color="#454545"/>
<stop offset="0.79" stop-color="#1F1F1F"/>
<stop offset="0.92" stop-color="#080808"/>
<stop offset="1"/>
</radialGradient>
<radialGradient id="paint4_radial_13555_11094" cx="0" cy="0" r="1" gradientUnits="userSpaceOnUse" gradientTransform="translate(23.6505 282.008) rotate(96.5497) scale(7.62806 7.62773)">
<stop offset="0.07" stop-color="white"/>
<stop offset="0.25" stop-color="#BDBDBD"/>
<stop offset="0.45" stop-color="#7A7A7A"/>
<stop offset="0.64" stop-color="#454545"/>
<stop offset="0.79" stop-color="#1F1F1F"/>
<stop offset="0.92" stop-color="#080808"/>
<stop offset="1"/>
</radialGradient>
<radialGradient id="paint5_radial_13555_11094" cx="0" cy="0" r="1" gradientUnits="userSpaceOnUse" gradientTransform="translate(258.162 377.632) rotate(108.739) scale(4.83757 4.83739)">
<stop stop-color="white"/>
<stop offset="0.18" stop-color="#CECECE"/>
<stop offset="0.75" stop-color="#3B3B3B"/>
<stop offset="1"/>
</radialGradient>
<radialGradient id="paint6_radial_13555_11094" cx="0" cy="0" r="1" gradientUnits="userSpaceOnUse" gradientTransform="translate(244.324 365.776) rotate(108.739) scale(8.26846 8.26817)">
<stop stop-color="white"/>
<stop offset="0.18" stop-color="#CECECE"/>
<stop offset="0.75" stop-color="#3B3B3B"/>
<stop offset="1"/>
</radialGradient>
<radialGradient id="paint7_radial_13555_11094" cx="0" cy="0" r="1" gradientUnits="userSpaceOnUse" gradientTransform="translate(262.346 350.563) rotate(108.739) scale(8.26847 8.26817)">
<stop stop-color="white"/>
<stop offset="0.18" stop-color="#CECECE"/>
<stop offset="0.75" stop-color="#3B3B3B"/>
<stop offset="1"/>
</radialGradient>
<radialGradient id="paint8_radial_13555_11094" cx="0" cy="0" r="1" gradientUnits="userSpaceOnUse" gradientTransform="translate(254.576 411.413) rotate(108.739) scale(8.26847 8.26817)">
<stop stop-color="white"/>
<stop offset="0.18" stop-color="#CECECE"/>
<stop offset="0.75" stop-color="#3B3B3B"/>
<stop offset="1"/>
</radialGradient>
<radialGradient id="paint9_radial_13555_11094" cx="0" cy="0" r="1" gradientUnits="userSpaceOnUse" gradientTransform="translate(233.006 409.747) rotate(108.739) scale(4.35725 4.35708)">
<stop stop-color="white"/>
<stop offset="0.18" stop-color="#CECECE"/>
<stop offset="0.75" stop-color="#3B3B3B"/>
<stop offset="1"/>
</radialGradient>
<radialGradient id="paint10_radial_13555_11094" cx="0" cy="0" r="1" gradientUnits="userSpaceOnUse" gradientTransform="translate(231.891 415.383) rotate(108.739) scale(4.35725 4.35708)">
<stop stop-color="white"/>
<stop offset="0.18" stop-color="#CECECE"/>
<stop offset="0.75" stop-color="#3B3B3B"/>
<stop offset="1"/>
</radialGradient>
<radialGradient id="paint11_radial_13555_11094" cx="0" cy="0" r="1" gradientUnits="userSpaceOnUse" gradientTransform="translate(248.132 396.414) rotate(108.739) scale(4.35725 4.35708)">
<stop stop-color="white"/>
<stop offset="0.18" stop-color="#CECECE"/>
<stop offset="0.75" stop-color="#3B3B3B"/>
<stop offset="1"/>
</radialGradient>
<radialGradient id="paint12_radial_13555_11094" cx="0" cy="0" r="1" gradientUnits="userSpaceOnUse" gradientTransform="translate(237.409 397.836) rotate(108.739) scale(4.35722 4.35709)">
<stop stop-color="white"/>
<stop offset="0.18" stop-color="#CECECE"/>
<stop offset="0.75" stop-color="#3B3B3B"/>
<stop offset="1"/>
</radialGradient>
<radialGradient id="paint13_radial_13555_11094" cx="0" cy="0" r="1" gradientUnits="userSpaceOnUse" gradientTransform="translate(243.544 419.228) rotate(108.739) scale(4.35725 4.35708)">
<stop stop-color="white"/>
<stop offset="0.18" stop-color="#CECECE"/>
<stop offset="0.75" stop-color="#3B3B3B"/>
<stop offset="1"/>
</radialGradient>
<radialGradient id="paint14_radial_13555_11094" cx="0" cy="0" r="1" gradientUnits="userSpaceOnUse" gradientTransform="translate(13.3172 258.316) rotate(96.5497) scale(13.1633 13.1627)">
<stop offset="0.07" stop-color="white"/>
<stop offset="0.15" stop-color="#F8F8F8"/>
<stop offset="0.27" stop-color="#E7E7E7"/>
<stop offset="0.4" stop-color="#CBCBCB"/>
<stop offset="0.55" stop-color="#A4A4A4"/>
<stop offset="0.71" stop-color="#717171"/>
<stop offset="0.87" stop-color="#343434"/>
<stop offset="1"/>
</radialGradient>
<radialGradient id="paint15_radial_13555_11094" cx="0" cy="0" r="1" gradientUnits="userSpaceOnUse" gradientTransform="translate(374.412 257.359) rotate(96.5497) scale(6.18707 6.18682)">
<stop offset="0.07" stop-color="white"/>
<stop offset="0.25" stop-color="#BDBDBD"/>
<stop offset="0.45" stop-color="#7A7A7A"/>
<stop offset="0.64" stop-color="#454545"/>
<stop offset="0.79" stop-color="#1F1F1F"/>
<stop offset="0.92" stop-color="#080808"/>
<stop offset="1"/>
</radialGradient>
<radialGradient id="paint16_radial_13555_11094" cx="0" cy="0" r="1" gradientUnits="userSpaceOnUse" gradientTransform="translate(386.816 276.453) rotate(96.5497) scale(3.44235 3.4422)">
<stop offset="0.07" stop-color="white"/>
<stop offset="0.25" stop-color="#BDBDBD"/>
<stop offset="0.45" stop-color="#7A7A7A"/>
<stop offset="0.64" stop-color="#454545"/>
<stop offset="0.79" stop-color="#1F1F1F"/>
<stop offset="0.92" stop-color="#080808"/>
<stop offset="1"/>
</radialGradient>
<radialGradient id="paint17_radial_13555_11094" cx="0" cy="0" r="1" gradientUnits="userSpaceOnUse" gradientTransform="translate(315.881 278.692) rotate(96.5497) scale(6.18707 6.1868)">
<stop offset="0.07" stop-color="white"/>
<stop offset="0.25" stop-color="#BDBDBD"/>
<stop offset="0.45" stop-color="#7A7A7A"/>
<stop offset="0.64" stop-color="#454545"/>
<stop offset="0.79" stop-color="#1F1F1F"/>
<stop offset="0.92" stop-color="#080808"/>
<stop offset="1"/>
</radialGradient>
<radialGradient id="paint18_radial_13555_11094" cx="0" cy="0" r="1" gradientUnits="userSpaceOnUse" gradientTransform="translate(374.551 209.13) rotate(96.5497) scale(10.4071 10.4066)">
<stop offset="0.07" stop-color="white"/>
<stop offset="0.25" stop-color="#BDBDBD"/>
<stop offset="0.45" stop-color="#7A7A7A"/>
<stop offset="0.64" stop-color="#454545"/>
<stop offset="0.79" stop-color="#1F1F1F"/>
<stop offset="0.92" stop-color="#080808"/>
<stop offset="1"/>
</radialGradient>
<radialGradient id="paint19_radial_13555_11094" cx="0" cy="0" r="1" gradientUnits="userSpaceOnUse" gradientTransform="translate(395.567 227.406) rotate(96.5497) scale(13.1633 13.1627)">
<stop offset="0.07" stop-color="white"/>
<stop offset="0.15" stop-color="#F8F8F8"/>
<stop offset="0.27" stop-color="#E7E7E7"/>
<stop offset="0.4" stop-color="#CBCBCB"/>
<stop offset="0.55" stop-color="#A4A4A4"/>
<stop offset="0.71" stop-color="#717171"/>
<stop offset="0.87" stop-color="#343434"/>
<stop offset="1"/>
</radialGradient>
<radialGradient id="paint20_radial_13555_11094" cx="0" cy="0" r="1" gradientUnits="userSpaceOnUse" gradientTransform="translate(530.013 561.08) rotate(96.5497) scale(6.18711 6.1868)">
<stop offset="0.07" stop-color="white"/>
<stop offset="0.25" stop-color="#BDBDBD"/>
<stop offset="0.45" stop-color="#7A7A7A"/>
<stop offset="0.64" stop-color="#454545"/>
<stop offset="0.79" stop-color="#1F1F1F"/>
<stop offset="0.92" stop-color="#080808"/>
<stop offset="1"/>
</radialGradient>
<radialGradient id="paint21_radial_13555_11094" cx="0" cy="0" r="1" gradientUnits="userSpaceOnUse" gradientTransform="translate(30.8584 441.199) rotate(96.5497) scale(2.74474 2.74461)">
<stop offset="0.07" stop-color="white"/>
<stop offset="0.25" stop-color="#BDBDBD"/>
<stop offset="0.45" stop-color="#7A7A7A"/>
<stop offset="0.64" stop-color="#454545"/>
<stop offset="0.79" stop-color="#1F1F1F"/>
<stop offset="0.92" stop-color="#080808"/>
<stop offset="1"/>
</radialGradient>
<radialGradient id="paint22_radial_13555_11094" cx="0" cy="0" r="1" gradientUnits="userSpaceOnUse" gradientTransform="translate(49.8572 432.929) rotate(96.5497) scale(2.74473 2.74462)">
<stop offset="0.07" stop-color="white"/>
<stop offset="0.25" stop-color="#BDBDBD"/>
<stop offset="0.45" stop-color="#7A7A7A"/>
<stop offset="0.64" stop-color="#454545"/>
<stop offset="0.79" stop-color="#1F1F1F"/>
<stop offset="0.92" stop-color="#080808"/>
<stop offset="1"/>
</radialGradient>
<radialGradient id="paint23_radial_13555_11094" cx="0" cy="0" r="1" gradientUnits="userSpaceOnUse" gradientTransform="translate(496.869 682.025) rotate(96.5497) scale(6.18707 6.1868)">
<stop offset="0.07" stop-color="white"/>
<stop offset="0.25" stop-color="#BDBDBD"/>
<stop offset="0.45" stop-color="#7A7A7A"/>
<stop offset="0.64" stop-color="#454545"/>
<stop offset="0.79" stop-color="#1F1F1F"/>
<stop offset="0.92" stop-color="#080808"/>
<stop offset="1"/>
</radialGradient>
<radialGradient id="paint24_radial_13555_11094" cx="0" cy="0" r="1" gradientUnits="userSpaceOnUse" gradientTransform="translate(530.003 633.555) rotate(96.5497) scale(10.4071 10.4067)">
<stop offset="0.07" stop-color="white"/>
<stop offset="0.25" stop-color="#BDBDBD"/>
<stop offset="0.45" stop-color="#7A7A7A"/>
<stop offset="0.64" stop-color="#454545"/>
<stop offset="0.79" stop-color="#1F1F1F"/>
<stop offset="0.92" stop-color="#080808"/>
<stop offset="1"/>
</radialGradient>
<radialGradient id="paint25_radial_13555_11094" cx="0" cy="0" r="1" gradientUnits="userSpaceOnUse" gradientTransform="translate(557.71 639.672) rotate(96.5497) scale(0.571818 0.571794)">
<stop offset="0.07" stop-color="white"/>
<stop offset="0.15" stop-color="#F8F8F8"/>
<stop offset="0.27" stop-color="#E7E7E7"/>
<stop offset="0.4" stop-color="#CBCBCB"/>
<stop offset="0.55" stop-color="#A4A4A4"/>
<stop offset="0.71" stop-color="#717171"/>
<stop offset="0.87" stop-color="#343434"/>
<stop offset="1"/>
</radialGradient>
<radialGradient id="paint26_radial_13555_11094" cx="0" cy="0" r="1" gradientUnits="userSpaceOnUse" gradientTransform="translate(279.911 58.709) rotate(96.5497) scale(6.18709 6.1868)">
<stop stop-color="white"/>
<stop offset="0.04" stop-color="#EBEBEB"/>
<stop offset="0.14" stop-color="#B5B5B5"/>
<stop offset="0.26" stop-color="#848484"/>
<stop offset="0.37" stop-color="#5B5B5B"/>
<stop offset="0.49" stop-color="#3A3A3A"/>
<stop offset="0.61" stop-color="#202020"/>
<stop offset="0.73" stop-color="#0E0E0E"/>
<stop offset="0.86" stop-color="#030303"/>
<stop offset="1"/>
</radialGradient>
<radialGradient id="paint27_radial_13555_11094" cx="0" cy="0" r="1" gradientUnits="userSpaceOnUse" gradientTransform="translate(313.973 103.014) rotate(96.5497) scale(6.18709 6.1868)">
<stop stop-color="white"/>
<stop offset="0.04" stop-color="#EBEBEB"/>
<stop offset="0.14" stop-color="#B5B5B5"/>
<stop offset="0.26" stop-color="#848484"/>
<stop offset="0.37" stop-color="#5B5B5B"/>
<stop offset="0.49" stop-color="#3A3A3A"/>
<stop offset="0.61" stop-color="#202020"/>
<stop offset="0.73" stop-color="#0E0E0E"/>
<stop offset="0.86" stop-color="#030303"/>
<stop offset="1"/>
</radialGradient>
<radialGradient id="paint28_radial_13555_11094" cx="0" cy="0" r="1" gradientUnits="userSpaceOnUse" gradientTransform="translate(53.0711 97.7483) rotate(96.5497) scale(6.18709 6.18681)">
<stop stop-color="white"/>
<stop offset="0.04" stop-color="#EBEBEB"/>
<stop offset="0.14" stop-color="#B5B5B5"/>
<stop offset="0.26" stop-color="#848484"/>
<stop offset="0.37" stop-color="#5B5B5B"/>
<stop offset="0.49" stop-color="#3A3A3A"/>
<stop offset="0.61" stop-color="#202020"/>
<stop offset="0.73" stop-color="#0E0E0E"/>
<stop offset="0.86" stop-color="#030303"/>
<stop offset="1"/>
</radialGradient>
<radialGradient id="paint29_radial_13555_11094" cx="0" cy="0" r="1" gradientUnits="userSpaceOnUse" gradientTransform="translate(84.6293 142.606) rotate(96.5497) scale(6.18707 6.18681)">
<stop stop-color="white"/>
<stop offset="0.04" stop-color="#EBEBEB"/>
<stop offset="0.14" stop-color="#B5B5B5"/>
<stop offset="0.26" stop-color="#848484"/>
<stop offset="0.37" stop-color="#5B5B5B"/>
<stop offset="0.49" stop-color="#3A3A3A"/>
<stop offset="0.61" stop-color="#202020"/>
<stop offset="0.73" stop-color="#0E0E0E"/>
<stop offset="0.86" stop-color="#030303"/>
<stop offset="1"/>
</radialGradient>
<radialGradient id="paint30_radial_13555_11094" cx="0" cy="0" r="1" gradientUnits="userSpaceOnUse" gradientTransform="translate(42.8176 80.8807) rotate(96.5497) scale(6.18707 6.1868)">
<stop stop-color="white"/>
<stop offset="0.04" stop-color="#EBEBEB"/>
<stop offset="0.14" stop-color="#B5B5B5"/>
<stop offset="0.26" stop-color="#848484"/>
<stop offset="0.37" stop-color="#5B5B5B"/>
<stop offset="0.49" stop-color="#3A3A3A"/>
<stop offset="0.61" stop-color="#202020"/>
<stop offset="0.73" stop-color="#0E0E0E"/>
<stop offset="0.86" stop-color="#030303"/>
<stop offset="1"/>
</radialGradient>
<radialGradient id="paint31_radial_13555_11094" cx="0" cy="0" r="1" gradientUnits="userSpaceOnUse" gradientTransform="translate(280.05 10.4803) rotate(96.5497) scale(10.4071 10.4066)">
<stop stop-color="white"/>
<stop offset="0.04" stop-color="#EBEBEB"/>
<stop offset="0.14" stop-color="#B5B5B5"/>
<stop offset="0.26" stop-color="#848484"/>
<stop offset="0.37" stop-color="#5B5B5B"/>
<stop offset="0.49" stop-color="#3A3A3A"/>
<stop offset="0.61" stop-color="#202020"/>
<stop offset="0.73" stop-color="#0E0E0E"/>
<stop offset="0.86" stop-color="#030303"/>
<stop offset="1"/>
</radialGradient>
<radialGradient id="paint32_radial_13555_11094" cx="0" cy="0" r="1" gradientUnits="userSpaceOnUse" gradientTransform="translate(106.215 149.298) rotate(96.5497) scale(10.4071 10.4066)">
<stop stop-color="white"/>
<stop offset="0.04" stop-color="#EBEBEB"/>
<stop offset="0.14" stop-color="#B5B5B5"/>
<stop offset="0.26" stop-color="#848484"/>
<stop offset="0.37" stop-color="#5B5B5B"/>
<stop offset="0.49" stop-color="#3A3A3A"/>
<stop offset="0.61" stop-color="#202020"/>
<stop offset="0.73" stop-color="#0E0E0E"/>
<stop offset="0.86" stop-color="#030303"/>
<stop offset="1"/>
</radialGradient>
<radialGradient id="paint33_radial_13555_11094" cx="0" cy="0" r="1" gradientUnits="userSpaceOnUse" gradientTransform="translate(37.5973 159.734) rotate(96.5497) scale(10.4071 10.4066)">
<stop stop-color="white"/>
<stop offset="0.04" stop-color="#EBEBEB"/>
<stop offset="0.14" stop-color="#B5B5B5"/>
<stop offset="0.26" stop-color="#848484"/>
<stop offset="0.37" stop-color="#5B5B5B"/>
<stop offset="0.49" stop-color="#3A3A3A"/>
<stop offset="0.61" stop-color="#202020"/>
<stop offset="0.73" stop-color="#0E0E0E"/>
<stop offset="0.86" stop-color="#030303"/>
<stop offset="1"/>
</radialGradient>
<radialGradient id="paint34_radial_13555_11094" cx="0" cy="0" r="1" gradientUnits="userSpaceOnUse" gradientTransform="translate(301.066 28.7562) rotate(96.5497) scale(13.1633 13.1627)">
<stop stop-color="white"/>
<stop offset="0.12" stop-color="#D9D9D9"/>
<stop offset="0.45" stop-color="#7D7D7D"/>
<stop offset="0.71" stop-color="#393939"/>
<stop offset="0.9" stop-color="#101010"/>
<stop offset="1"/>
</radialGradient>
<radialGradient id="paint35_radial_13555_11094" cx="0" cy="0" r="1" gradientUnits="userSpaceOnUse" gradientTransform="translate(70.9204 50.2639) rotate(96.5497) scale(13.1633 13.1627)">
<stop stop-color="white"/>
<stop offset="0.12" stop-color="#D9D9D9"/>
<stop offset="0.45" stop-color="#7D7D7D"/>
<stop offset="0.71" stop-color="#393939"/>
<stop offset="0.9" stop-color="#101010"/>
<stop offset="1"/>
</radialGradient>
<radialGradient id="paint36_radial_13555_11094" cx="0" cy="0" r="1" gradientUnits="userSpaceOnUse" gradientTransform="translate(666.457 277.475) rotate(96.5497) scale(56.4156 56.4132)">
<stop stop-color="#FFF8B4"/>
<stop offset="0.16" stop-color="#CAC58F"/>
<stop offset="0.39" stop-color="#837F5C"/>
<stop offset="0.6" stop-color="#4A4834"/>
<stop offset="0.78" stop-color="#222118"/>
<stop offset="0.92" stop-color="#090806"/>
<stop offset="1"/>
</radialGradient>
<radialGradient id="paint37_radial_13555_11094" cx="0" cy="0" r="1" gradientUnits="userSpaceOnUse" gradientTransform="translate(557.678 284.435) rotate(96.5497) scale(16.3311 16.3305)">
<stop stop-color="#FFF8B4"/>
<stop offset="0.16" stop-color="#CAC58F"/>
<stop offset="0.39" stop-color="#837F5C"/>
<stop offset="0.6" stop-color="#4A4834"/>
<stop offset="0.78" stop-color="#222118"/>
<stop offset="0.92" stop-color="#090806"/>
<stop offset="1"/>
</radialGradient>
</defs>
</svg>
