<svg width="1440" height="959" viewBox="0 0 1440 959" fill="none" xmlns="http://www.w3.org/2000/svg">
<g clip-path="url(#clip0_14710_7139)">
<path d="M758.873 833.244C758.873 833.244 759.746 832.808 759.746 832.372C759.746 831.936 759.309 831.499 758.873 831.499C758.436 831.499 758 831.936 758 832.372C758 832.808 758.436 833.244 758.873 833.244Z" fill="white"/>
<path d="M689.2 913.958C689.2 913.476 688.809 913.085 688.327 913.085C687.845 913.085 687.455 913.476 687.455 913.958C687.455 914.44 687.845 914.83 688.327 914.83C688.809 914.83 689.2 914.44 689.2 913.958Z" fill="white"/>
<path d="M352.764 894.615C352.764 893.973 352.243 893.452 351.6 893.452C350.957 893.452 350.436 893.973 350.436 894.615C350.436 895.258 350.957 895.779 351.6 895.779C352.243 895.779 352.764 895.258 352.764 894.615Z" fill="white"/>
<path d="M38.5819 423.861C39.3091 423.861 39.891 423.279 39.891 422.552C39.891 421.825 39.3091 421.243 38.5819 421.243C37.8546 421.243 37.2728 421.825 37.2728 422.552C37.2728 423.279 37.8546 423.861 38.5819 423.861Z" fill="white"/>
<path d="M721.055 443.93C721.055 443.93 722.073 443.494 722.073 442.912C722.073 442.33 721.636 441.894 721.055 441.894C720.473 441.894 720.036 442.33 720.036 442.912C720.036 443.494 720.473 443.93 721.055 443.93Z" fill="white"/>
<path d="M189.273 795.287C189.273 795.287 190.582 794.705 190.582 793.978C190.582 793.251 190 792.669 189.273 792.669C188.546 792.669 187.964 793.251 187.964 793.978C187.964 794.705 188.546 795.287 189.273 795.287Z" fill="white"/>
<path d="M772.836 304.318C772.836 304.318 773.855 303.882 773.855 303.3C773.855 302.718 773.418 302.282 772.836 302.282C772.255 302.282 771.818 302.718 771.818 303.3C771.818 303.882 772.255 304.318 772.836 304.318Z" fill="white"/>
<path d="M24.3274 789.47C24.3274 788.667 23.6761 788.016 22.8728 788.016C22.0695 788.016 21.4183 788.667 21.4183 789.47C21.4183 790.273 22.0695 790.925 22.8728 790.925C23.6761 790.925 24.3274 790.273 24.3274 789.47Z" fill="white"/>
<path d="M608.327 483.196C608.327 483.196 609.345 482.76 609.345 482.178C609.345 481.596 608.909 481.16 608.327 481.16C607.745 481.16 607.309 481.596 607.309 482.178C607.309 482.76 607.745 483.196 608.327 483.196Z" fill="white"/>
<path d="M433.636 540.495C433.636 539.933 433.181 539.477 432.618 539.477C432.056 539.477 431.6 539.933 431.6 540.495C431.6 541.058 432.056 541.513 432.618 541.513C433.181 541.513 433.636 541.058 433.636 540.495Z" fill="white"/>
<path d="M1014.87 878.182C1014.87 877.7 1014.48 877.309 1014 877.309C1013.52 877.309 1013.13 877.7 1013.13 878.182C1013.13 878.664 1013.52 879.055 1014 879.055C1014.48 879.055 1014.87 878.664 1014.87 878.182Z" fill="white"/>
<path d="M999.309 937.517C999.309 937.517 1000.18 937.081 1000.18 936.644C1000.18 936.208 999.745 935.772 999.309 935.772C998.873 935.772 998.436 936.208 998.436 936.644C998.436 937.081 998.873 937.517 999.309 937.517Z" fill="white"/>
<path d="M502 501.084C502 501.084 503.018 500.648 503.018 500.066C503.018 499.484 502.582 499.048 502 499.048C501.418 499.048 500.982 499.484 500.982 500.066C500.982 500.648 501.418 501.084 502 501.084Z" fill="white"/>
<path d="M704.327 724.318C704.327 724.318 705.2 723.881 705.2 723.445C705.2 723.009 704.764 722.573 704.327 722.573C703.891 722.573 703.455 723.009 703.455 723.445C703.455 723.881 703.891 724.318 704.327 724.318Z" fill="white"/>
<path d="M136.764 522.317C136.764 522.317 138.073 521.735 138.073 521.008C138.073 520.28 137.491 519.699 136.764 519.699C136.036 519.699 135.455 520.28 135.455 521.008C135.455 521.735 136.036 522.317 136.764 522.317Z" fill="white"/>
<path d="M792.036 160.052C792.036 160.052 793.055 159.616 793.055 159.034C793.055 158.452 792.618 158.016 792.036 158.016C791.455 158.016 791.018 158.452 791.018 159.034C791.018 159.616 791.455 160.052 792.036 160.052Z" fill="white"/>
<path d="M402.8 948.86C402.8 948.86 403.818 948.424 403.818 947.843C403.818 947.261 403.382 946.824 402.8 946.824C402.218 946.824 401.782 947.261 401.782 947.843C401.782 948.424 402.218 948.86 402.8 948.86Z" fill="white"/>
<path d="M672.036 83.7019C672.036 83.7019 673.2 83.1202 673.2 82.5384C673.2 81.9567 672.618 81.375 672.036 81.375C671.455 81.375 670.873 81.9567 670.873 82.5384C670.873 83.1202 671.455 83.7019 672.036 83.7019Z" fill="white"/>
<path d="M367.455 557.365C367.455 557.365 368.473 556.929 368.473 556.347C368.473 555.765 368.036 555.329 367.455 555.329C366.873 555.329 366.436 555.765 366.436 556.347C366.436 556.929 366.873 557.365 367.455 557.365Z" fill="white"/>
<path d="M974 510.246C974 510.246 974.873 509.81 974.873 509.374C974.873 508.937 974.437 508.501 974 508.501C973.564 508.501 973.127 508.937 973.127 509.374C973.127 509.81 973.564 510.246 974 510.246Z" fill="white"/>
<path d="M1197.56 437.386C1197.56 436.823 1197.11 436.368 1196.55 436.368C1195.98 436.368 1195.53 436.823 1195.53 437.386C1195.53 437.948 1195.98 438.404 1196.55 438.404C1197.11 438.404 1197.56 437.948 1197.56 437.386Z" fill="white"/>
<path d="M862.291 956.568C862.291 956.568 863.164 956.132 863.164 955.696C863.164 955.259 862.727 954.823 862.291 954.823C861.855 954.823 861.418 955.259 861.418 955.696C861.418 956.132 861.855 956.568 862.291 956.568Z" fill="white"/>
<path d="M1204.84 917.593C1204.84 917.593 1205.71 917.157 1205.71 916.721C1205.71 916.284 1205.27 915.848 1204.84 915.848C1204.4 915.848 1203.96 916.284 1203.96 916.721C1203.96 917.157 1204.4 917.593 1204.84 917.593Z" fill="white"/>
<path d="M633.345 828.3C633.345 828.3 634.218 827.864 634.218 827.427C634.218 826.991 633.782 826.555 633.345 826.555C632.909 826.555 632.473 826.991 632.473 827.427C632.473 827.864 632.909 828.3 633.345 828.3Z" fill="white"/>
<path d="M71.7455 923.701C72.4728 923.701 73.2 923.12 73.2 922.247C73.2 921.375 72.6182 920.793 71.7455 920.793C70.8728 920.793 70.291 921.375 70.291 922.247C70.291 923.12 70.8728 923.701 71.7455 923.701Z" fill="white"/>
<path d="M540.255 418.189C540.255 418.189 541.273 417.753 541.273 417.171C541.273 416.589 540.836 416.153 540.255 416.153C539.673 416.153 539.236 416.589 539.236 417.171C539.236 417.753 539.673 418.189 540.255 418.189Z" fill="white"/>
<path d="M434.218 668.037C434.218 668.037 435.236 667.6 435.236 667.019C435.236 666.437 434.8 666.001 434.218 666.001C433.636 666.001 433.2 666.437 433.2 667.019C433.2 667.6 433.636 668.037 434.218 668.037Z" fill="white"/>
<path d="M327.745 534.678C327.745 534.678 328.909 534.242 328.909 533.515C328.909 532.787 328.473 532.351 327.745 532.351C327.018 532.351 326.582 532.787 326.582 533.515C326.582 534.242 327.018 534.678 327.745 534.678Z" fill="white"/>
<path d="M454.436 482.469C454.436 482.469 455.455 482.033 455.455 481.451C455.455 480.869 455.018 480.433 454.436 480.433C453.855 480.433 453.418 480.869 453.418 481.451C453.418 482.033 453.855 482.469 454.436 482.469Z" fill="white"/>
<path d="M460.109 505.592C460.109 505.592 461.127 505.156 461.127 504.574C461.127 503.992 460.691 503.556 460.109 503.556C459.527 503.556 459.091 503.992 459.091 504.574C459.091 505.156 459.527 505.592 460.109 505.592Z" fill="white"/>
<path d="M665.491 534.096C665.491 533.615 665.1 533.224 664.618 533.224C664.136 533.224 663.745 533.615 663.745 534.096C663.745 534.578 664.136 534.969 664.618 534.969C665.1 534.969 665.491 534.578 665.491 534.096Z" fill="white"/>
<path d="M915.527 861.312C915.527 861.312 916.4 860.876 916.4 860.44C916.4 860.003 915.964 859.567 915.527 859.567C915.091 859.567 914.655 860.003 914.655 860.44C914.655 860.876 915.091 861.312 915.527 861.312Z" fill="white"/>
<path d="M857.345 641.132C857.345 641.132 858.218 640.696 858.218 640.26C858.218 639.823 857.782 639.387 857.345 639.387C856.909 639.387 856.473 639.823 856.473 640.26C856.473 640.696 856.909 641.132 857.345 641.132Z" fill="white"/>
<path d="M1366.58 426.915C1366.58 426.915 1367.75 426.333 1367.75 425.752C1367.75 425.17 1367.16 424.588 1366.58 424.588C1366 424.588 1365.42 425.17 1365.42 425.752C1365.42 426.333 1366 426.915 1366.58 426.915Z" fill="white"/>
<path d="M1237.13 576.416C1237.13 576.416 1238.15 575.98 1238.15 575.398C1238.15 574.816 1237.71 574.38 1237.13 574.38C1236.55 574.38 1236.11 574.816 1236.11 575.398C1236.11 575.98 1236.55 576.416 1237.13 576.416Z" fill="white"/>
<path d="M1132.55 239.457C1132.55 239.457 1133.71 239.02 1133.71 238.293C1133.71 237.566 1133.27 237.13 1132.55 237.13C1131.82 237.13 1131.38 237.566 1131.38 238.293C1131.38 239.02 1131.82 239.457 1132.55 239.457Z" fill="white"/>
<path d="M1338.65 208.044C1338.65 208.044 1339.82 207.462 1339.82 206.88C1339.82 206.299 1339.24 205.717 1338.65 205.717C1338.07 205.717 1337.49 206.299 1337.49 206.88C1337.49 207.462 1338.07 208.044 1338.65 208.044Z" fill="white"/>
<path d="M1196.98 231.022C1196.98 231.022 1198.15 230.585 1198.15 229.858C1198.15 229.131 1197.71 228.695 1196.98 228.695C1196.25 228.695 1195.82 229.131 1195.82 229.858C1195.82 230.585 1196.25 231.022 1196.98 231.022Z" fill="white"/>
<path d="M1349.71 1.82523C1350.44 1.82523 1351.02 1.24356 1351.02 0.516416C1351.02 -0.210731 1350.44 -0.792395 1349.71 -0.792395C1348.98 -0.792395 1348.4 -0.210731 1348.4 0.516416C1348.4 1.24356 1348.98 1.82523 1349.71 1.82523Z" fill="white"/>
<path d="M1190.87 148.127C1190.87 147.484 1190.35 146.963 1189.71 146.963C1189.07 146.963 1188.55 147.484 1188.55 148.127C1188.55 148.769 1189.07 149.29 1189.71 149.29C1190.35 149.29 1190.87 148.769 1190.87 148.127Z" fill="white"/>
<path d="M486.291 202.082C486.291 202.082 487.455 201.645 487.455 200.918C487.455 200.191 487.018 199.755 486.291 199.755C485.564 199.755 485.127 200.191 485.127 200.918C485.127 201.645 485.564 202.082 486.291 202.082Z" fill="white"/>
<path d="M339.964 116.86C339.964 116.86 341.127 116.278 341.127 115.696C341.127 115.114 340.546 114.533 339.964 114.533C339.382 114.533 338.8 115.114 338.8 115.696C338.8 116.278 339.382 116.86 339.964 116.86Z" fill="white"/>
<path d="M452.4 189.575C452.4 188.932 451.879 188.411 451.236 188.411C450.594 188.411 450.073 188.932 450.073 189.575C450.073 190.217 450.594 190.738 451.236 190.738C451.879 190.738 452.4 190.217 452.4 189.575Z" fill="white"/>
<path d="M45.8546 88.9373C46.7273 88.9373 47.3092 88.3555 47.3092 87.4829C47.3092 86.6103 46.7273 86.0287 45.8546 86.0287C44.9819 86.0287 44.4001 86.6103 44.4001 87.4829C44.4001 88.3554 44.9819 88.9373 45.8546 88.9373Z" fill="white"/>
<path d="M197.127 186.956C197.127 186.233 196.541 185.648 195.818 185.648C195.095 185.648 194.509 186.233 194.509 186.956C194.509 187.679 195.095 188.265 195.818 188.265C196.541 188.265 197.127 187.679 197.127 186.956Z" fill="white"/>
<path d="M447.6 127.621C447.6 126.979 447.079 126.458 446.436 126.458C445.794 126.458 445.273 126.979 445.273 127.621C445.273 128.264 445.794 128.785 446.436 128.785C447.079 128.785 447.6 128.264 447.6 127.621Z" fill="white"/>
<path d="M88.1819 861.749C88.9092 861.749 89.491 861.167 89.491 860.44C89.491 859.713 88.9092 859.131 88.1819 859.131C87.4546 859.131 86.8728 859.713 86.8728 860.44C86.8728 861.167 87.4546 861.749 88.1819 861.749Z" fill="white"/>
<path d="M649.2 940.862C649.2 940.862 650.073 940.426 650.073 939.99C650.073 939.553 649.636 939.117 649.2 939.117C648.764 939.117 648.327 939.553 648.327 939.99C648.327 940.426 648.764 940.862 649.2 940.862Z" fill="white"/>
<path d="M887.455 790.634C887.455 790.634 888.327 790.198 888.327 789.761C888.327 789.325 887.891 788.888 887.455 788.888C887.018 788.888 886.582 789.325 886.582 789.761C886.582 790.198 887.018 790.634 887.455 790.634Z" fill="white"/>
<path d="M849.636 820.592C849.636 820.592 850.509 820.156 850.509 819.72C850.509 819.283 850.073 818.847 849.636 818.847C849.2 818.847 848.764 819.283 848.764 819.72C848.764 820.156 849.2 820.592 849.636 820.592Z" fill="white"/>
<path d="M952.327 719.519C952.327 719.519 953.2 719.082 953.2 718.646C953.2 718.21 952.764 717.773 952.327 717.773C951.891 717.773 951.455 718.21 951.455 718.646C951.455 719.082 951.891 719.519 952.327 719.519Z" fill="white"/>
<path d="M1352.91 349.547C1352.91 349.547 1354.07 348.965 1354.07 348.383C1354.07 347.801 1353.49 347.22 1352.91 347.22C1352.33 347.22 1351.75 347.801 1351.75 348.383C1351.75 348.965 1352.33 349.547 1352.91 349.547Z" fill="white"/>
<path d="M1430.44 606.375C1430.44 605.732 1429.92 605.211 1429.27 605.211C1428.63 605.211 1428.11 605.732 1428.11 606.375C1428.11 607.017 1428.63 607.538 1429.27 607.538C1429.92 607.538 1430.44 607.017 1430.44 606.375Z" fill="white"/>
<path d="M1300.25 300.973C1300.25 300.973 1301.42 300.392 1301.42 299.81C1301.42 299.228 1300.84 298.646 1300.25 298.646C1299.67 298.646 1299.09 299.228 1299.09 299.81C1299.09 300.392 1299.67 300.973 1300.25 300.973Z" fill="white"/>
<path d="M916.4 169.505C916.4 169.505 917.418 169.069 917.418 168.487C917.418 167.906 916.982 167.469 916.4 167.469C915.818 167.469 915.382 167.906 915.382 168.487C915.382 169.069 915.818 169.505 916.4 169.505Z" fill="white"/>
<path d="M490.218 83.4111C490.218 83.4111 491.382 82.8294 491.382 82.2477C491.382 81.666 490.8 81.0842 490.218 81.0842C489.636 81.0842 489.055 81.666 489.055 82.2477C489.055 82.8294 489.636 83.4111 490.218 83.4111Z" fill="white"/>
<path d="M323.091 229.858C323.091 229.858 324.255 229.277 324.255 228.695C324.255 228.113 323.673 227.531 323.091 227.531C322.509 227.531 321.927 228.113 321.927 228.695C321.927 229.277 322.509 229.858 323.091 229.858Z" fill="white"/>
<path d="M195.818 124.277C195.818 123.554 195.232 122.968 194.509 122.968C193.786 122.968 193.2 123.554 193.2 124.277C193.2 125 193.786 125.586 194.509 125.586C195.232 125.586 195.818 125 195.818 124.277Z" fill="white"/>
<path d="M642.073 0.661621C642.073 0.661621 643.236 0.0798774 643.236 -0.50184C643.236 -1.08356 642.655 -1.66508 642.073 -1.66508C641.491 -1.66508 640.909 -1.08356 640.909 -0.50184C640.909 0.0798774 641.491 0.661621 642.073 0.661621Z" fill="white"/>
<path d="M422.291 61.0151C422.291 61.0151 423.455 60.4334 423.455 59.8517C423.455 59.27 422.873 58.6882 422.291 58.6882C421.709 58.6882 421.127 59.27 421.127 59.8517C421.127 60.4334 421.709 61.0151 422.291 61.0151Z" fill="white"/>
<path d="M393.636 47.3447C393.636 47.3447 394.946 46.7631 394.946 46.0359C394.946 45.3088 394.364 44.7269 393.636 44.7269C392.909 44.7269 392.327 45.3088 392.327 46.0359C392.327 46.7631 392.909 47.3447 393.636 47.3447Z" fill="white"/>
<path d="M454.727 40.0731C454.727 39.4306 454.206 38.9097 453.564 38.9097C452.921 38.9097 452.4 39.4306 452.4 40.0731C452.4 40.7157 452.921 41.2366 453.564 41.2366C454.206 41.2366 454.727 40.7157 454.727 40.0731Z" fill="white"/>
<path d="M492.691 40.2184C492.691 39.5758 492.17 39.0549 491.527 39.0549C490.885 39.0549 490.364 39.5758 490.364 40.2184C490.364 40.8609 490.885 41.3818 491.527 41.3818C492.17 41.3818 492.691 40.8609 492.691 40.2184Z" fill="white"/>
<path d="M573.418 471.125C573.418 471.125 574.436 470.689 574.436 470.107C574.436 469.526 574 469.089 573.418 469.089C572.836 469.089 572.4 469.526 572.4 470.107C572.4 470.689 572.836 471.125 573.418 471.125Z" fill="white"/>
<path d="M89.491 324.969C90.2183 324.969 90.8001 324.387 90.8001 323.66C90.8001 322.933 90.2183 322.351 89.491 322.351C88.7637 322.351 88.1819 322.933 88.1819 323.66C88.1819 324.387 88.7637 324.969 89.491 324.969Z" fill="white"/>
<path d="M172.255 52.4346C172.982 52.4346 173.564 51.8529 173.564 51.1258C173.564 50.3986 172.982 49.8169 172.255 49.8169C171.527 49.8169 170.946 50.3986 170.946 51.1258C170.946 51.8529 171.527 52.4346 172.255 52.4346Z" fill="white"/>
<path d="M284.546 33.3831C284.546 32.6602 283.959 32.0743 283.236 32.0743C282.513 32.0743 281.927 32.6602 281.927 33.3831C281.927 34.106 282.513 34.6921 283.236 34.6921C283.959 34.6921 284.546 34.106 284.546 33.3831Z" fill="white"/>
<path d="M11.091 194.083C11.091 193.28 10.4398 192.628 9.63644 192.628C8.83311 192.628 8.18188 193.28 8.18188 194.083C8.18188 194.886 8.83311 195.537 9.63644 195.537C10.4398 195.537 11.091 194.886 11.091 194.083Z" fill="white"/>
<path d="M141.709 65.2324C142.436 65.2324 143.164 64.6508 143.164 63.7783C143.164 62.9057 142.582 62.3239 141.709 62.3239C140.836 62.3239 140.255 62.9057 140.255 63.7783C140.255 64.6508 140.836 65.2324 141.709 65.2324Z" fill="white"/>
<path d="M258.655 214.734C258.655 214.091 258.134 213.57 257.491 213.57C256.848 213.57 256.327 214.091 256.327 214.734C256.327 215.376 256.848 215.897 257.491 215.897C258.134 215.897 258.655 215.376 258.655 214.734Z" fill="white"/>
<path d="M177.055 320.897C177.055 320.174 176.469 319.588 175.746 319.588C175.023 319.588 174.436 320.174 174.436 320.897C174.436 321.62 175.023 322.206 175.746 322.206C176.469 322.206 177.055 321.62 177.055 320.897Z" fill="white"/>
<path d="M106.946 921.52C106.946 920.797 106.359 920.211 105.636 920.211C104.913 920.211 104.327 920.797 104.327 921.52C104.327 922.243 104.913 922.829 105.636 922.829C106.359 922.829 106.946 922.243 106.946 921.52Z" fill="white"/>
<path d="M604.109 818.265C604.109 818.265 604.982 817.829 604.982 817.393C604.982 816.956 604.545 816.52 604.109 816.52C603.673 816.52 603.236 816.956 603.236 817.393C603.236 817.829 603.673 818.265 604.109 818.265Z" fill="white"/>
<path d="M1108.25 441.749C1108.25 441.187 1107.8 440.731 1107.24 440.731C1106.67 440.731 1106.22 441.187 1106.22 441.749C1106.22 442.311 1106.67 442.767 1107.24 442.767C1107.8 442.767 1108.25 442.311 1108.25 441.749Z" fill="white"/>
<path d="M903.018 723.154C903.018 723.154 903.891 722.718 903.891 722.282C903.891 721.845 903.455 721.409 903.018 721.409C902.582 721.409 902.146 721.845 902.146 722.282C902.146 722.718 902.582 723.154 903.018 723.154Z" fill="white"/>
<path d="M937.055 455.71C937.055 455.71 937.927 455.274 937.927 454.837C937.927 454.401 937.491 453.965 937.055 453.965C936.618 453.965 936.182 454.401 936.182 454.837C936.182 455.274 936.618 455.71 937.055 455.71Z" fill="white"/>
<path d="M1081.64 364.962C1081.64 364.4 1081.18 363.944 1080.62 363.944C1080.06 363.944 1079.6 364.4 1079.6 364.962C1079.6 365.524 1080.06 365.98 1080.62 365.98C1081.18 365.98 1081.64 365.524 1081.64 364.962Z" fill="white"/>
<path d="M807.746 502.247C807.746 502.247 808.618 501.811 808.618 501.375C808.618 500.938 808.182 500.502 807.746 500.502C807.309 500.502 806.873 500.938 806.873 501.375C806.873 501.811 807.309 502.247 807.746 502.247Z" fill="white"/>
<path d="M1018.65 439.858C1018.65 439.858 1019.67 439.422 1019.67 438.84C1019.67 438.258 1019.24 437.822 1018.65 437.822C1018.07 437.822 1017.64 438.258 1017.64 438.84C1017.64 439.422 1018.07 439.858 1018.65 439.858Z" fill="white"/>
<path d="M609.345 601.43C609.345 600.868 608.89 600.412 608.327 600.412C607.765 600.412 607.309 600.868 607.309 601.43C607.309 601.992 607.765 602.448 608.327 602.448C608.89 602.448 609.345 601.992 609.345 601.43Z" fill="white"/>
<path d="M1015.75 512.573C1015.75 512.573 1016.62 512.137 1016.62 511.7C1016.62 511.264 1016.18 510.828 1015.75 510.828C1015.31 510.828 1014.87 511.264 1014.87 511.7C1014.87 512.137 1015.31 512.573 1015.75 512.573Z" fill="white"/>
<path d="M179.236 841.97C179.236 841.247 178.65 840.661 177.927 840.661C177.204 840.661 176.618 841.247 176.618 841.97C176.618 842.693 177.204 843.279 177.927 843.279C178.65 843.279 179.236 842.693 179.236 841.97Z" fill="white"/>
<path d="M255.745 776.963C255.745 776.963 256.909 776.382 256.909 775.8C256.909 775.218 256.327 774.636 255.745 774.636C255.164 774.636 254.582 775.218 254.582 775.8C254.582 776.382 255.164 776.963 255.745 776.963Z" fill="white"/>
<path d="M123.673 728.971C123.673 728.971 124.982 728.39 124.982 727.663C124.982 726.935 124.4 726.354 123.673 726.354C122.946 726.354 122.364 726.935 122.364 727.663C122.364 728.39 122.946 728.971 123.673 728.971Z" fill="white"/>
<path d="M56.0364 200.627C56.7637 200.627 57.491 200.045 57.491 199.173C57.491 198.3 56.9092 197.718 56.0364 197.718C55.1637 197.718 54.5819 198.3 54.5819 199.173C54.5819 200.045 55.1637 200.627 56.0364 200.627Z" fill="white"/>
<path d="M243.818 278.286C243.818 277.644 243.297 277.123 242.655 277.123C242.012 277.123 241.491 277.644 241.491 278.286C241.491 278.929 242.012 279.449 242.655 279.449C243.297 279.449 243.818 278.929 243.818 278.286Z" fill="white"/>
<path d="M29.1273 223.169C29.8546 223.169 30.5819 222.587 30.5819 221.714C30.5819 220.842 30.0001 220.26 29.1273 220.26C28.2546 220.26 27.6728 220.842 27.6728 221.714C27.6728 222.587 28.2546 223.169 29.1273 223.169Z" fill="white"/>
<path d="M437.855 307.663C437.855 307.663 439.018 307.227 439.018 306.645C439.018 306.063 438.582 305.627 437.855 305.627C437.127 305.627 436.836 306.063 436.836 306.645C436.836 307.227 437.273 307.663 437.855 307.663Z" fill="white"/>
<path d="M553.927 67.9956C553.927 67.9956 555.091 67.4139 555.091 66.8321C555.091 66.2504 554.509 65.6687 553.927 65.6687C553.345 65.6687 552.764 66.2504 552.764 66.8321C552.764 67.4139 553.345 67.9956 553.927 67.9956Z" fill="white"/>
<path d="M940.109 130.821C940.109 130.821 941.273 130.385 941.273 129.658C941.273 128.93 940.836 128.494 940.109 128.494C939.382 128.494 938.946 128.93 938.946 129.658C938.946 130.385 939.382 130.821 940.109 130.821Z" fill="white"/>
<path d="M785.2 257.926C785.2 257.926 786.218 257.49 786.218 256.908C786.218 256.327 785.782 255.89 785.2 255.89C784.618 255.89 784.182 256.327 784.182 256.908C784.182 257.49 784.618 257.926 785.2 257.926Z" fill="white"/>
<path d="M1066.36 135.038C1066.36 135.038 1067.53 134.602 1067.53 133.875C1067.53 133.148 1066.95 132.711 1066.36 132.711C1065.78 132.711 1065.2 133.148 1065.2 133.875C1065.2 134.602 1065.64 135.038 1066.36 135.038Z" fill="white"/>
<path d="M1027.96 378.633C1027.96 378.07 1027.51 377.614 1026.95 377.614C1026.38 377.614 1025.93 378.07 1025.93 378.633C1025.93 379.195 1026.38 379.65 1026.95 379.65C1027.51 379.65 1027.96 379.195 1027.96 378.633Z" fill="white"/>
<path d="M1041.2 277.559C1041.2 276.997 1040.74 276.541 1040.18 276.541C1039.62 276.541 1039.16 276.997 1039.16 277.559C1039.16 278.121 1039.62 278.577 1040.18 278.577C1040.74 278.577 1041.2 278.121 1041.2 277.559Z" fill="white"/>
<path d="M1127.75 377.033C1127.75 377.033 1128.76 376.596 1128.76 376.015C1128.76 375.433 1128.33 374.997 1127.75 374.997C1127.16 374.997 1126.73 375.433 1126.73 376.015C1126.73 376.596 1127.16 377.033 1127.75 377.033Z" fill="white"/>
<path d="M1157.71 364.381C1157.71 364.381 1158.73 363.944 1158.73 363.363C1158.73 362.781 1158.29 362.345 1157.71 362.345C1157.13 362.345 1156.69 362.781 1156.69 363.363C1156.69 363.944 1157.13 364.381 1157.71 364.381Z" fill="white"/>
<path d="M1207.75 536.132C1207.75 535.57 1207.29 535.114 1206.73 535.114C1206.17 535.114 1205.71 535.57 1205.71 536.132C1205.71 536.694 1206.17 537.15 1206.73 537.15C1207.29 537.15 1207.75 536.694 1207.75 536.132Z" fill="white"/>
<path d="M1244.84 551.112C1244.84 551.112 1245.85 550.675 1245.85 550.093C1245.85 549.512 1245.42 549.076 1244.84 549.076C1244.25 549.076 1243.82 549.512 1243.82 550.093C1243.82 550.675 1244.25 551.112 1244.84 551.112Z" fill="white"/>
<path d="M1180.98 824.664C1180.98 824.664 1181.85 824.228 1181.85 823.792C1181.85 823.355 1181.42 822.919 1180.98 822.919C1180.55 822.919 1180.11 823.355 1180.11 823.792C1180.11 824.228 1180.55 824.664 1180.98 824.664Z" fill="white"/>
<path d="M1222.73 776.963C1222.73 776.963 1223.75 776.527 1223.75 775.945C1223.75 775.364 1223.31 774.927 1222.73 774.927C1222.15 774.927 1221.71 775.364 1221.71 775.945C1221.71 776.527 1222.15 776.963 1222.73 776.963Z" fill="white"/>
<path d="M1106.36 839.207C1106.36 838.725 1105.97 838.335 1105.49 838.335C1105.01 838.335 1104.62 838.725 1104.62 839.207C1104.62 839.689 1105.01 840.08 1105.49 840.08C1105.97 840.08 1106.36 839.689 1106.36 839.207Z" fill="white"/>
<path d="M1218.36 746.569C1218.36 746.569 1219.38 746.132 1219.38 745.55C1219.38 744.969 1218.95 744.533 1218.36 744.533C1217.78 744.533 1217.35 744.969 1217.35 745.55C1217.35 746.132 1217.78 746.569 1218.36 746.569Z" fill="white"/>
<path d="M1098.51 743.66C1098.51 743.66 1099.38 743.224 1099.38 742.787C1099.38 742.351 1098.95 741.915 1098.51 741.915C1098.07 741.915 1097.64 742.351 1097.64 742.787C1097.64 743.224 1098.07 743.66 1098.51 743.66Z" fill="white"/>
<path d="M1152.76 651.167C1152.76 651.167 1153.78 650.731 1153.78 650.149C1153.78 649.567 1153.35 649.131 1152.76 649.131C1152.18 649.131 1151.75 649.567 1151.75 650.149C1151.75 650.731 1152.18 651.167 1152.76 651.167Z" fill="white"/>
<path d="M1181.13 738.425C1181.13 738.425 1182.15 737.988 1182.15 737.406C1182.15 736.825 1181.71 736.389 1181.13 736.389C1180.55 736.389 1180.11 736.825 1180.11 737.406C1180.11 737.988 1180.55 738.425 1181.13 738.425Z" fill="white"/>
<path d="M1032.47 630.807C1032.47 630.807 1033.35 630.371 1033.35 629.934C1033.35 629.498 1032.91 629.062 1032.47 629.062C1032.04 629.062 1031.6 629.498 1031.6 629.934C1031.6 630.371 1032.04 630.807 1032.47 630.807Z" fill="white"/>
<path d="M1243.67 864.948C1243.67 864.948 1244.69 864.512 1244.69 863.93C1244.69 863.348 1244.25 862.912 1243.67 862.912C1243.09 862.912 1242.65 863.348 1242.65 863.93C1242.65 864.512 1243.09 864.948 1243.67 864.948Z" fill="white"/>
<path d="M1179.67 867.711C1179.67 867.229 1179.28 866.838 1178.8 866.838C1178.32 866.838 1177.93 867.229 1177.93 867.711C1177.93 868.193 1178.32 868.584 1178.8 868.584C1179.28 868.584 1179.67 868.193 1179.67 867.711Z" fill="white"/>
<path d="M1373.85 914.539C1373.85 914.539 1374.87 914.103 1374.87 913.521C1374.87 912.939 1374.44 912.503 1373.85 912.503C1373.27 912.503 1372.84 912.939 1372.84 913.521C1372.84 914.103 1373.27 914.539 1373.85 914.539Z" fill="white"/>
<path d="M1333.27 958.895C1333.27 958.333 1332.82 957.877 1332.25 957.877C1331.69 957.877 1331.24 958.333 1331.24 958.895C1331.24 959.457 1331.69 959.913 1332.25 959.913C1332.82 959.913 1333.27 959.457 1333.27 958.895Z" fill="white"/>
<path d="M223.309 625.281C223.309 625.281 224.473 624.699 224.473 624.117C224.473 623.536 223.891 622.954 223.309 622.954C222.727 622.954 222.146 623.536 222.146 624.117C222.146 624.699 222.727 625.281 223.309 625.281Z" fill="white"/>
<path d="M663.455 725.918C663.455 725.918 664.327 725.481 664.327 725.045C664.327 724.609 663.891 724.172 663.455 724.172C663.018 724.172 662.582 724.609 662.582 725.045C662.582 725.481 663.018 725.918 663.455 725.918Z" fill="white"/>
<path d="M458.8 740.024C458.8 740.024 459.818 739.588 459.818 739.006C459.818 738.424 459.382 737.988 458.8 737.988C458.218 737.988 457.782 738.424 457.782 739.006C457.782 739.588 458.218 740.024 458.8 740.024Z" fill="white"/>
<path d="M400.473 469.089C400.473 469.089 401.491 468.653 401.491 468.071C401.491 467.49 401.055 467.053 400.473 467.053C399.891 467.053 399.455 467.49 399.455 468.071C399.455 468.653 399.891 469.089 400.473 469.089Z" fill="white"/>
<path d="M796.836 865.384C796.836 865.384 797.709 864.948 797.709 864.512C797.709 864.075 797.273 863.639 796.836 863.639C796.4 863.639 795.964 864.075 795.964 864.512C795.964 864.948 796.4 865.384 796.836 865.384Z" fill="white"/>
<path d="M425.055 774.345C425.055 774.345 426.073 773.909 426.073 773.328C426.073 772.746 425.636 772.309 425.055 772.309C424.473 772.309 424.036 772.746 424.036 773.328C424.036 773.909 424.473 774.345 425.055 774.345Z" fill="white"/>
<path d="M830.873 862.766C830.873 862.766 831.745 862.33 831.745 861.894C831.745 861.458 831.309 861.021 830.873 861.021C830.436 861.021 830 861.458 830 861.894C830 862.33 830.436 862.766 830.873 862.766Z" fill="white"/>
<path d="M592.036 867.856C592.036 867.856 593.055 867.42 593.055 866.838C593.055 866.257 592.618 865.82 592.036 865.82C591.455 865.82 591.018 866.257 591.018 866.838C591.018 867.42 591.455 867.856 592.036 867.856Z" fill="white"/>
<path d="M561.345 816.084C561.345 815.522 560.89 815.066 560.327 815.066C559.765 815.066 559.309 815.522 559.309 816.084C559.309 816.646 559.765 817.102 560.327 817.102C560.89 817.102 561.345 816.646 561.345 816.084Z" fill="white"/>
<path d="M728.909 905.086C728.909 905.086 729.782 904.65 729.782 904.214C729.782 903.778 729.346 903.341 728.909 903.341C728.473 903.341 728.036 903.778 728.036 904.214C728.036 904.65 728.473 905.086 728.909 905.086Z" fill="white"/>
<path d="M697.491 764.456C697.491 764.456 698.364 764.02 698.364 763.584C698.364 763.147 697.927 762.711 697.491 762.711C697.055 762.711 696.618 763.147 696.618 763.584C696.618 764.02 697.055 764.456 697.491 764.456Z" fill="white"/>
<path d="M282.073 696.104C282.073 696.104 283.236 695.523 283.236 694.941C283.236 694.359 282.655 693.778 282.073 693.778C281.491 693.778 280.909 694.359 280.909 694.941C280.909 695.523 281.491 696.104 282.073 696.104Z" fill="white"/>
<path d="M765.564 679.38C765.564 679.38 766.436 678.944 766.436 678.508C766.436 678.071 766 677.635 765.564 677.635C765.127 677.635 764.691 678.071 764.691 678.508C764.691 678.944 765.127 679.38 765.564 679.38Z" fill="white"/>
<path d="M302.146 845.606C302.146 844.963 301.625 844.442 300.982 844.442C300.339 844.442 299.818 844.963 299.818 845.606C299.818 846.248 300.339 846.769 300.982 846.769C301.625 846.769 302.146 846.248 302.146 845.606Z" fill="white"/>
<path d="M196.255 379.069C196.255 378.426 195.734 377.905 195.091 377.905C194.448 377.905 193.927 378.426 193.927 379.069C193.927 379.711 194.448 380.232 195.091 380.232C195.734 380.232 196.255 379.711 196.255 379.069Z" fill="white"/>
<path d="M822.582 93.7367C822.582 93.0941 822.061 92.5732 821.418 92.5732C820.776 92.5732 820.255 93.0941 820.255 93.7367C820.255 94.3792 820.776 94.9001 821.418 94.9001C822.061 94.9001 822.582 94.3792 822.582 93.7367Z" fill="white"/>
<path d="M668.545 458.182C668.545 457.62 668.09 457.164 667.527 457.164C666.965 457.164 666.509 457.62 666.509 458.182C666.509 458.745 666.965 459.2 667.527 459.2C668.09 459.2 668.545 458.745 668.545 458.182Z" fill="white"/>
<path d="M132.691 442.912C132.691 442.912 134 442.33 134 441.603C134 440.876 133.418 440.294 132.691 440.294C131.964 440.294 131.382 440.876 131.382 441.603C131.382 442.33 131.964 442.912 132.691 442.912Z" fill="white"/>
<path d="M145.491 328.023C145.491 328.023 146.8 327.441 146.8 326.714C146.8 325.987 146.218 325.405 145.491 325.405C144.764 325.405 144.182 325.987 144.182 326.714C144.182 327.441 144.764 328.023 145.491 328.023Z" fill="white"/>
<path d="M480.473 259.526C480.473 259.526 481.636 259.09 481.636 258.362C481.636 257.635 481.2 257.199 480.473 257.199C479.746 257.199 479.309 257.635 479.309 258.362C479.309 259.09 479.746 259.526 480.473 259.526Z" fill="white"/>
<path d="M337.2 455.128C337.2 455.128 338.364 454.692 338.364 453.965C338.364 453.238 337.927 452.801 337.2 452.801C336.473 452.801 336.036 453.238 336.036 453.965C336.036 454.692 336.473 455.128 337.2 455.128Z" fill="white"/>
<path d="M184.618 437.822C184.618 437.18 184.097 436.659 183.455 436.659C182.812 436.659 182.291 437.18 182.291 437.822C182.291 438.465 182.812 438.986 183.455 438.986C184.097 438.986 184.618 438.465 184.618 437.822Z" fill="white"/>
<path d="M95.4546 297.628C96.1819 297.628 96.7637 297.047 96.7637 296.319C96.7637 295.592 96.1819 295.011 95.4546 295.011C94.7273 295.011 94.1455 295.592 94.1455 296.319C94.1455 297.047 94.7273 297.628 95.4546 297.628Z" fill="white"/>
<path d="M306.509 341.403C306.509 341.403 307.673 340.821 307.673 340.239C307.673 339.657 307.091 339.076 306.509 339.076C305.927 339.076 305.346 339.657 305.346 340.239C305.346 340.821 305.927 341.403 306.509 341.403Z" fill="white"/>
<path d="M106.655 651.167C106.655 651.167 107.964 650.585 107.964 649.858C107.964 649.131 107.382 648.549 106.655 648.549C105.927 648.549 105.346 649.131 105.346 649.858C105.346 650.585 105.927 651.167 106.655 651.167Z" fill="white"/>
<path d="M46.291 612.046C47.0182 612.046 47.6 611.465 47.6 610.737C47.6 610.01 47.0182 609.429 46.291 609.429C45.5637 609.429 44.9819 610.01 44.9819 610.737C44.9819 611.465 45.5637 612.046 46.291 612.046Z" fill="white"/>
<path d="M157.127 464.29C157.127 464.29 158.436 463.709 158.436 462.981C158.436 462.254 157.855 461.672 157.127 461.672C156.4 461.672 155.818 462.254 155.818 462.981C155.818 463.709 156.4 464.29 157.127 464.29Z" fill="white"/>
<path d="M269.564 442.621C269.564 442.621 270.727 442.04 270.727 441.458C270.727 440.876 270.146 440.295 269.564 440.295C268.982 440.295 268.4 440.876 268.4 441.458C268.4 442.04 268.982 442.621 269.564 442.621Z" fill="white"/>
<path d="M162.946 646.222C162.946 646.222 164.255 645.641 164.255 644.913C164.255 644.186 163.673 643.605 162.946 643.605C162.218 643.605 161.636 644.186 161.636 644.913C161.636 645.641 162.218 646.222 162.946 646.222Z" fill="white"/>
<path d="M178.945 538.314C178.945 538.314 180.109 537.732 180.109 537.15C180.109 536.569 179.527 535.987 178.945 535.987C178.364 535.987 177.782 536.569 177.782 537.15C177.782 537.732 178.364 538.314 178.945 538.314Z" fill="white"/>
<path d="M392.473 402.047C392.473 402.047 393.491 401.61 393.491 401.029C393.491 400.447 393.055 400.011 392.473 400.011C391.891 400.011 391.455 400.447 391.455 401.029C391.455 401.61 391.891 402.047 392.473 402.047Z" fill="white"/>
<path d="M225.636 661.492C225.636 661.492 226.8 660.91 226.8 660.329C226.8 659.747 226.218 659.165 225.636 659.165C225.055 659.165 224.473 659.747 224.473 660.329C224.473 660.91 225.055 661.492 225.636 661.492Z" fill="white"/>
<path d="M425.491 621.79C425.491 621.79 426.509 621.354 426.509 620.772C426.509 620.19 426.073 619.754 425.491 619.754C424.909 619.754 424.473 620.19 424.473 620.772C424.473 621.354 424.909 621.79 425.491 621.79Z" fill="white"/>
<path d="M1277.27 890.398C1277.27 890.398 1278.29 889.962 1278.29 889.38C1278.29 888.798 1277.85 888.362 1277.27 888.362C1276.69 888.362 1276.25 888.798 1276.25 889.38C1276.25 889.962 1276.69 890.398 1277.27 890.398Z" fill="white"/>
<path d="M1390.29 730.281C1390.29 730.281 1391.31 729.844 1391.31 729.263C1391.31 728.681 1390.87 728.245 1390.29 728.245C1389.71 728.245 1389.27 728.681 1389.27 729.263C1389.27 729.844 1389.71 730.281 1390.29 730.281Z" fill="white"/>
<path d="M1323.24 369.616C1323.24 369.616 1324.4 369.034 1324.4 368.453C1324.4 367.871 1323.82 367.289 1323.24 367.289C1322.65 367.289 1322.07 367.871 1322.07 368.453C1322.07 369.034 1322.65 369.616 1323.24 369.616Z" fill="white"/>
<path d="M1290.51 403.792C1290.51 403.792 1291.67 403.355 1291.67 402.628C1291.67 401.901 1291.24 401.465 1290.51 401.465C1289.78 401.465 1289.35 401.901 1289.35 402.628C1289.35 403.355 1289.78 403.792 1290.51 403.792Z" fill="white"/>
<path d="M770.073 116.86C770.073 116.86 771.236 116.423 771.236 115.696C771.236 114.969 770.8 114.533 770.073 114.533C769.345 114.533 768.909 114.969 768.909 115.696C768.909 116.423 769.345 116.86 770.073 116.86Z" fill="white"/>
<path d="M510.873 16.2227C510.873 16.2227 512.036 15.6409 512.036 15.0592C512.036 14.4775 511.455 13.8957 510.873 13.8957C510.291 13.8957 509.709 14.4775 509.709 15.0592C509.709 15.6409 510.291 16.2227 510.873 16.2227Z" fill="white"/>
<path d="M436.4 8.51514C436.4 8.51514 437.709 7.93325 437.709 7.2061C437.709 6.47896 437.127 5.89729 436.4 5.89729C435.673 5.89729 435.091 6.47896 435.091 7.2061C435.091 7.93325 435.673 8.51514 436.4 8.51514Z" fill="white"/>
<path d="M308.109 22.9124C308.109 22.9124 309.418 22.3307 309.418 21.6035C309.418 20.8764 308.836 20.2947 308.109 20.2947C307.382 20.2947 306.8 20.8764 306.8 21.6035C306.8 22.3307 307.382 22.9124 308.109 22.9124Z" fill="white"/>
<path d="M186.364 20.731C187.091 20.731 187.818 20.1492 187.818 19.2766C187.818 18.404 187.236 17.8224 186.364 17.8224C185.491 17.8224 184.909 18.404 184.909 19.2766C184.909 20.1492 185.491 20.731 186.364 20.731Z" fill="white"/>
<path d="M97.3455 19.1311C98.2183 19.1311 98.8001 18.5493 98.8001 17.6767C98.8001 16.8041 98.2183 16.2226 97.3455 16.2226C96.4728 16.2226 95.891 16.8041 95.891 17.6767C95.891 18.5493 96.4728 19.1311 97.3455 19.1311Z" fill="white"/>
<path d="M35.9637 54.7614C35.9637 53.9583 35.3125 53.3073 34.5092 53.3073C33.7059 53.3073 33.0546 53.9583 33.0546 54.7614C33.0546 55.5646 33.7059 56.2158 34.5092 56.2158C35.3125 56.2158 35.9637 55.5646 35.9637 54.7614Z" fill="white"/>
<path d="M13.1273 374.997C13.8546 374.997 14.5819 374.415 14.5819 373.542C14.5819 372.67 14.0001 372.088 13.1273 372.088C12.2546 372.088 11.6728 372.67 11.6728 373.542C11.6728 374.415 12.2546 374.997 13.1273 374.997Z" fill="white"/>
<path d="M7.45463 423.134C7.45463 422.331 6.80341 421.679 6.00008 421.679C5.19676 421.679 4.54553 422.331 4.54553 423.134C4.54553 423.937 5.19676 424.588 6.00008 424.588C6.80341 424.588 7.45463 423.937 7.45463 423.134Z" fill="white"/>
<path d="M92.2546 706.139C92.2546 706.139 93.5637 705.558 93.5637 704.83C93.5637 704.103 92.9819 703.522 92.2546 703.522C91.5273 703.522 90.9455 704.103 90.9455 704.83C90.9455 705.558 91.5273 706.139 92.2546 706.139Z" fill="white"/>
<path d="M110.291 818.12C111.018 818.12 111.6 817.538 111.6 816.811C111.6 816.084 111.018 815.502 110.291 815.502C109.564 815.502 108.982 816.084 108.982 816.811C108.982 817.538 109.564 818.12 110.291 818.12Z" fill="white"/>
<path d="M21.1273 669.2C21.8546 669.2 22.5819 668.618 22.5819 667.746C22.5819 666.873 22.0001 666.291 21.1273 666.291C20.2546 666.291 19.6728 666.873 19.6728 667.746C19.6728 668.618 20.2546 669.2 21.1273 669.2Z" fill="white"/>
<path d="M103.309 594.595C103.309 594.595 104.618 594.013 104.618 593.286C104.618 592.559 104.036 591.977 103.309 591.977C102.582 591.977 102 592.559 102 593.286C102 594.013 102.582 594.595 103.309 594.595Z" fill="white"/>
<path d="M114.218 216.042C114.946 216.042 115.527 215.461 115.527 214.733C115.527 214.006 114.946 213.425 114.218 213.425C113.491 213.425 112.909 214.006 112.909 214.733C112.909 215.461 113.491 216.042 114.218 216.042Z" fill="white"/>
<path d="M121.927 176.049C121.927 175.327 121.341 174.741 120.618 174.741C119.895 174.741 119.309 175.327 119.309 176.049C119.309 176.772 119.895 177.358 120.618 177.358C121.341 177.358 121.927 176.772 121.927 176.049Z" fill="white"/>
<path d="M271.6 103.917C271.6 103.917 272.909 103.335 272.909 102.608C272.909 101.881 272.327 101.299 271.6 101.299C270.873 101.299 270.291 101.881 270.291 102.608C270.291 103.335 270.873 103.917 271.6 103.917Z" fill="white"/>
<path d="M408.327 86.4651C408.327 86.4651 409.491 85.8833 409.491 85.3016C409.491 84.7199 408.909 84.1382 408.327 84.1382C407.746 84.1382 407.164 84.7199 407.164 85.3016C407.164 85.8833 407.746 86.4651 408.327 86.4651Z" fill="white"/>
<path d="M644.109 28.875C644.109 28.875 645.273 28.2933 645.273 27.7115C645.273 27.1298 644.691 26.5481 644.109 26.5481C643.527 26.5481 642.945 27.1298 642.945 27.7115C642.945 28.2933 643.527 28.875 644.109 28.875Z" fill="white"/>
<path d="M757.273 8.6604C757.273 8.6604 758.436 8.07866 758.436 7.49694C758.436 6.91522 757.855 6.33348 757.273 6.33348C756.691 6.33348 756.109 6.91522 756.109 7.49694C756.109 8.07866 756.691 8.6604 757.273 8.6604Z" fill="white"/>
<path d="M865.491 16.8043C865.491 16.1618 864.97 15.6409 864.327 15.6409C863.685 15.6409 863.164 16.1618 863.164 16.8043C863.164 17.4469 863.685 17.9678 864.327 17.9678C864.97 17.9678 865.491 17.4469 865.491 16.8043Z" fill="white"/>
<path d="M885.855 179.395C885.855 179.395 886.873 178.958 886.873 178.376C886.873 177.795 886.436 177.359 885.855 177.359C885.273 177.359 884.836 177.795 884.836 178.376C884.836 178.958 885.273 179.395 885.855 179.395Z" fill="white"/>
<path d="M987.527 111.77C987.527 111.77 988.691 111.333 988.691 110.606C988.691 109.879 988.255 109.443 987.527 109.443C986.8 109.443 986.364 109.879 986.364 110.606C986.364 111.333 986.8 111.77 987.527 111.77Z" fill="white"/>
<path d="M1099.96 119.914C1099.96 119.914 1101.13 119.332 1101.13 118.75C1101.13 118.169 1100.55 117.587 1099.96 117.587C1099.38 117.587 1098.8 118.169 1098.8 118.75C1098.8 119.332 1099.38 119.914 1099.96 119.914Z" fill="white"/>
<path d="M1087.6 147.836C1087.6 147.836 1088.76 147.4 1088.76 146.673C1088.76 145.946 1088.33 145.51 1087.6 145.51C1086.87 145.51 1086.44 145.946 1086.44 146.673C1086.44 147.4 1086.87 147.836 1087.6 147.836Z" fill="white"/>
<path d="M1126 132.13C1126 132.13 1127.16 131.548 1127.16 130.966C1127.16 130.385 1126.58 129.803 1126 129.803C1125.42 129.803 1124.84 130.385 1124.84 130.966C1124.84 131.548 1125.42 132.13 1126 132.13Z" fill="white"/>
<path d="M1254.15 175.031C1254.15 175.031 1255.31 174.45 1255.31 173.868C1255.31 173.286 1254.73 172.705 1254.15 172.705C1253.56 172.705 1252.98 173.286 1252.98 173.868C1252.98 174.45 1253.56 175.031 1254.15 175.031Z" fill="white"/>
<path d="M1096.18 81.0842C1096.18 81.0842 1097.35 80.5025 1097.35 79.9208C1097.35 79.3391 1096.76 78.7575 1096.18 78.7575C1095.6 78.7575 1095.02 79.3391 1095.02 79.9208C1095.02 80.5025 1095.6 81.0842 1096.18 81.0842Z" fill="white"/>
<path d="M1242.07 56.5069C1242.07 56.5069 1243.38 55.925 1243.38 55.1978C1243.38 54.4707 1242.8 53.889 1242.07 53.889C1241.35 53.889 1240.76 54.4707 1240.76 55.1978C1240.76 55.925 1241.35 56.5069 1242.07 56.5069Z" fill="white"/>
<path d="M1333.13 123.84C1333.13 123.118 1332.54 122.532 1331.82 122.532C1331.1 122.532 1330.51 123.118 1330.51 123.84C1330.51 124.563 1331.1 125.149 1331.82 125.149C1332.54 125.149 1333.13 124.563 1333.13 123.84Z" fill="white"/>
<path d="M1389.13 35.7102C1389.85 35.7102 1390.44 35.1286 1390.44 34.4014C1390.44 33.6743 1389.85 33.0926 1389.13 33.0926C1388.4 33.0926 1387.82 33.6743 1387.82 34.4014C1387.82 35.1286 1388.4 35.7102 1389.13 35.7102Z" fill="white"/>
<path d="M1425.35 40.9458C1426.07 40.9458 1426.65 40.3642 1426.65 39.637C1426.65 38.9099 1426.07 38.3282 1425.35 38.3282C1424.62 38.3282 1424.04 38.9099 1424.04 39.637C1424.04 40.3642 1424.62 40.9458 1425.35 40.9458Z" fill="white"/>
<path d="M1399.02 58.5428C1399.75 58.5428 1400.33 57.9609 1400.33 57.2337C1400.33 56.5066 1399.75 55.9249 1399.02 55.9249C1398.29 55.9249 1397.71 56.5066 1397.71 57.2337C1397.71 57.9609 1398.29 58.5428 1399.02 58.5428Z" fill="white"/>
<path d="M1428.98 94.7547C1429.71 94.7547 1430.29 94.173 1430.29 93.4459C1430.29 92.7187 1429.71 92.137 1428.98 92.137C1428.25 92.137 1427.67 92.7187 1427.67 93.4459C1427.67 94.173 1428.25 94.7547 1428.98 94.7547Z" fill="white"/>
<path d="M1400.04 254.872C1400.04 254.872 1401.35 254.29 1401.35 253.563C1401.35 252.836 1400.76 252.254 1400.04 252.254C1399.31 252.254 1398.73 252.836 1398.73 253.563C1398.73 254.29 1399.31 254.872 1400.04 254.872Z" fill="white"/>
<path d="M1432.91 956.278C1432.91 956.278 1434.07 955.841 1434.07 955.114C1434.07 954.387 1433.64 953.951 1432.91 953.951C1432.18 953.951 1431.75 954.387 1431.75 955.114C1431.75 955.841 1432.18 956.278 1432.91 956.278Z" fill="white"/>
<path d="M296.618 751.949C296.618 751.307 296.097 750.786 295.455 750.786C294.812 750.786 294.291 751.307 294.291 751.949C294.291 752.592 294.812 753.113 295.455 753.113C296.097 753.113 296.618 752.592 296.618 751.949Z" fill="white"/>
<path d="M617.055 373.252C617.055 372.689 616.599 372.234 616.036 372.234C615.474 372.234 615.018 372.689 615.018 373.252C615.018 373.814 615.474 374.27 616.036 374.27C616.599 374.27 617.055 373.814 617.055 373.252Z" fill="white"/>
<path d="M612.691 403.937C612.691 403.937 613.709 403.501 613.709 402.919C613.709 402.337 613.273 401.901 612.691 401.901C612.109 401.901 611.673 402.337 611.673 402.919C611.673 403.501 612.109 403.937 612.691 403.937Z" fill="white"/>
<path d="M574.582 374.56C574.582 374.56 575.6 374.124 575.6 373.542C575.6 372.96 575.164 372.524 574.582 372.524C574 372.524 573.564 372.96 573.564 373.542C573.564 374.124 574 374.56 574.582 374.56Z" fill="white"/>
<path d="M584.036 408.009C584.036 407.447 583.581 406.991 583.018 406.991C582.456 406.991 582 407.447 582 408.009C582 408.571 582.456 409.027 583.018 409.027C583.581 409.027 584.036 408.571 584.036 408.009Z" fill="white"/>
<path d="M599.309 385.613C599.309 385.613 600.327 385.177 600.327 384.595C600.327 384.013 599.891 383.577 599.309 383.577C598.727 383.577 598.291 384.013 598.291 384.595C598.291 385.177 598.727 385.613 599.309 385.613Z" fill="white"/>
<path d="M583.309 341.112C583.309 341.112 584.327 340.675 584.327 340.094C584.327 339.512 583.891 339.076 583.309 339.076C582.727 339.076 582.291 339.512 582.291 340.094C582.291 340.675 582.727 341.112 583.309 341.112Z" fill="white"/>
<path d="M745.2 232.476C745.2 232.476 746.218 232.04 746.218 231.458C746.218 230.876 745.782 230.44 745.2 230.44C744.618 230.44 744.182 230.876 744.182 231.458C744.182 232.04 744.618 232.476 745.2 232.476Z" fill="white"/>
<path d="M544.618 382.123C544.618 382.123 545.636 381.686 545.636 381.105C545.636 380.523 545.2 380.087 544.618 380.087C544.036 380.087 543.6 380.523 543.6 381.105C543.6 381.686 544.036 382.123 544.618 382.123Z" fill="white"/>
<path d="M373.855 278.577C373.855 278.577 375.018 278.141 375.018 277.414C375.018 276.687 374.582 276.25 373.855 276.25C373.127 276.25 372.691 276.687 372.691 277.414C372.691 278.141 373.127 278.577 373.855 278.577Z" fill="white"/>
<path d="M601.636 164.997C601.636 164.997 602.8 164.561 602.8 163.833C602.8 163.106 602.364 162.67 601.636 162.67C600.909 162.67 600.473 163.106 600.473 163.833C600.473 164.561 600.909 164.997 601.636 164.997Z" fill="white"/>
<path d="M596.691 269.561C596.691 269.561 597.709 269.124 597.709 268.542C597.709 267.961 597.273 267.525 596.691 267.525C596.109 267.525 595.673 267.961 595.673 268.542C595.673 269.124 596.109 269.561 596.691 269.561Z" fill="white"/>
<path d="M586.8 190.447C586.8 189.804 586.279 189.283 585.636 189.283C584.994 189.283 584.473 189.804 584.473 190.447C584.473 191.089 584.994 191.61 585.636 191.61C586.279 191.61 586.8 191.089 586.8 190.447Z" fill="white"/>
<path d="M745.2 285.267C745.2 284.705 744.744 284.249 744.182 284.249C743.62 284.249 743.164 284.705 743.164 285.267C743.164 285.829 743.62 286.285 744.182 286.285C744.744 286.285 745.2 285.829 745.2 285.267Z" fill="white"/>
<path d="M788.4 347.074C788.4 347.074 789.418 346.638 789.418 346.056C789.418 345.474 788.982 345.038 788.4 345.038C787.818 345.038 787.382 345.474 787.382 346.056C787.382 346.638 787.818 347.074 788.4 347.074Z" fill="white"/>
<path d="M897.927 402.774C897.927 402.774 898.946 402.337 898.946 401.756C898.946 401.174 898.509 400.738 897.927 400.738C897.346 400.738 896.909 401.174 896.909 401.756C896.909 402.337 897.346 402.774 897.927 402.774Z" fill="white"/>
<path d="M894.291 460.073C894.291 460.073 895.164 459.637 895.164 459.2C895.164 458.764 894.727 458.328 894.291 458.328C893.855 458.328 893.418 458.764 893.418 459.2C893.418 459.637 893.855 460.073 894.291 460.073Z" fill="white"/>
<path d="M916.836 425.606C916.836 425.606 917.855 425.17 917.855 424.588C917.855 424.006 917.418 423.57 916.836 423.57C916.255 423.57 915.818 424.006 915.818 424.588C915.818 425.17 916.255 425.606 916.836 425.606Z" fill="white"/>
<path d="M954.218 414.844C954.218 414.844 955.237 414.408 955.237 413.826C955.237 413.245 954.8 412.808 954.218 412.808C953.637 412.808 953.2 413.245 953.2 413.826C953.2 414.408 953.637 414.844 954.218 414.844Z" fill="white"/>
<path d="M834.8 364.962C834.8 364.962 835.818 364.526 835.818 363.944C835.818 363.363 835.382 362.926 834.8 362.926C834.218 362.926 833.782 363.363 833.782 363.944C833.782 364.526 834.218 364.962 834.8 364.962Z" fill="white"/>
<path d="M954.509 251.237C954.509 251.237 955.527 250.8 955.527 250.218C955.527 249.637 955.091 249.201 954.509 249.201C953.927 249.201 953.491 249.637 953.491 250.218C953.491 250.8 953.927 251.237 954.509 251.237Z" fill="white"/>
<path d="M936.327 593.141C936.327 593.141 937.2 592.704 937.2 592.268C937.2 591.832 936.764 591.396 936.327 591.396C935.891 591.396 935.455 591.832 935.455 592.268C935.455 592.704 935.891 593.141 936.327 593.141Z" fill="white"/>
<path d="M950.436 648.258C950.436 647.776 950.046 647.386 949.564 647.386C949.082 647.386 948.691 647.776 948.691 648.258C948.691 648.74 949.082 649.131 949.564 649.131C950.046 649.131 950.436 648.74 950.436 648.258Z" fill="white"/>
<path d="M473.055 817.829C473.055 817.829 474.073 817.393 474.073 816.811C474.073 816.229 473.636 815.793 473.055 815.793C472.473 815.793 472.036 816.229 472.036 816.811C472.036 817.393 472.473 817.829 473.055 817.829Z" fill="white"/>
<path d="M732.546 145.945C732.546 145.303 732.024 144.782 731.382 144.782C730.739 144.782 730.218 145.303 730.218 145.945C730.218 146.588 730.739 147.109 731.382 147.109C732.024 147.109 732.546 146.588 732.546 145.945Z" fill="white"/>
<path d="M790.436 378.196C790.436 378.196 791.455 377.76 791.455 377.178C791.455 376.596 791.018 376.16 790.436 376.16C789.855 376.16 789.418 376.596 789.418 377.178C789.418 377.76 789.855 378.196 790.436 378.196Z" fill="white"/>
<path d="M417.055 277.705C417.055 277.705 418.218 277.268 418.218 276.541C418.218 275.814 417.782 275.378 417.055 275.378C416.327 275.378 415.891 275.814 415.891 276.541C415.891 277.268 416.327 277.705 417.055 277.705Z" fill="white"/>
<path d="M584.036 12.5872C584.036 12.5872 585.2 12.0054 585.2 11.4237C585.2 10.842 584.618 10.2602 584.036 10.2602C583.455 10.2602 582.873 10.842 582.873 11.4237C582.873 12.0054 583.455 12.5872 584.036 12.5872Z" fill="white"/>
<path d="M552.473 743.224C552.473 743.224 553.491 742.787 553.491 742.206C553.491 741.624 553.055 741.188 552.473 741.188C551.891 741.188 551.455 741.624 551.455 742.206C551.455 742.787 551.891 743.224 552.473 743.224Z" fill="white"/>
<path d="M516.982 730.571C516.982 730.571 518 730.135 518 729.553C518 728.972 517.564 728.535 516.982 728.535C516.4 728.535 515.964 728.972 515.964 729.553C515.964 730.135 516.4 730.571 516.982 730.571Z" fill="white"/>
</g>
<defs>
<clipPath id="clip0_14710_7139">
<rect width="959" height="1440" fill="white" transform="translate(0 959) rotate(-90)"/>
</clipPath>
</defs>
</svg>
