<svg width="1336" height="629" viewBox="0 0 1336 629" fill="none" xmlns="http://www.w3.org/2000/svg">
<path style="mix-blend-mode:color-dodge" d="M31.8919 542.761C12.1396 540.492 -2.03065 522.644 0.238634 502.892C2.50792 483.14 20.3558 468.969 40.1081 471.239C59.8604 473.508 74.0307 491.356 71.7614 511.108C69.4921 530.853 51.6442 545.031 31.8919 542.761Z" fill="url(#paint0_radial_14710_7138)"/>
<path style="mix-blend-mode:color-dodge" d="M1271.38 627.621C1239.56 623.964 1216.73 595.208 1220.38 563.384C1224.04 531.559 1252.8 508.728 1284.62 512.384C1316.44 516.041 1339.27 544.797 1335.62 576.621C1331.96 608.434 1303.2 631.277 1271.38 627.621Z" fill="url(#paint1_radial_14710_7138)"/>
<path style="mix-blend-mode:color-dodge" d="M67.7703 152.5C25.7967 147.677 -4.31514 109.749 0.507097 67.7734C5.32933 25.7979 43.256 -4.31533 85.2297 0.507119C127.203 5.32957 157.315 43.2579 152.493 85.2334C147.671 127.193 109.744 157.322 67.7703 152.5Z" fill="url(#paint2_radial_14710_7138)"/>
<defs>
<radialGradient id="paint0_radial_14710_7138" cx="0" cy="0" r="1" gradientUnits="userSpaceOnUse" gradientTransform="translate(36.0231 507.033) rotate(96.55) scale(35.9949 35.9949)">
<stop stop-color="#FFF8B4"/>
<stop offset="0.16" stop-color="#CAC58F"/>
<stop offset="0.39" stop-color="#837F5C"/>
<stop offset="0.6" stop-color="#4A4834"/>
<stop offset="0.78" stop-color="#222118"/>
<stop offset="0.92" stop-color="#090806"/>
<stop offset="1"/>
</radialGradient>
<radialGradient id="paint1_radial_14710_7138" cx="0" cy="0" r="1" gradientUnits="userSpaceOnUse" gradientTransform="translate(1278.04 570.056) rotate(96.5497) scale(57.9943 57.9918)">
<stop stop-color="#FFF8B4"/>
<stop offset="0.16" stop-color="#CAC58F"/>
<stop offset="0.39" stop-color="#837F5C"/>
<stop offset="0.6" stop-color="#4A4834"/>
<stop offset="0.78" stop-color="#222118"/>
<stop offset="0.92" stop-color="#090806"/>
<stop offset="1"/>
</radialGradient>
<radialGradient id="paint2_radial_14710_7138" cx="0" cy="0" r="1" gradientUnits="userSpaceOnUse" gradientTransform="translate(76.5491 76.5733) rotate(96.5497) scale(76.4924 76.4891)">
<stop stop-color="#FFF8B4"/>
<stop offset="0.16" stop-color="#CAC58F"/>
<stop offset="0.39" stop-color="#837F5C"/>
<stop offset="0.6" stop-color="#4A4834"/>
<stop offset="0.78" stop-color="#222118"/>
<stop offset="0.92" stop-color="#090806"/>
<stop offset="1"/>
</radialGradient>
</defs>
</svg>
